<svg width="48" height="48" viewBox="0 0 48 48" fill="none" xmlns="http://www.w3.org/2000/svg">
<path fill-rule="evenodd" clip-rule="evenodd" d="M8.5 10C8.5 8.61929 7.38071 7.5 6 7.5C4.61929 7.5 3.5 8.61929 3.5 10V26.5568L3.50258 26.6135C3.79464 33.0388 7.56041 38.3718 11.6554 41.9969C13.7256 43.8296 15.9593 45.3002 18.0491 46.3234C20.0779 47.3168 22.1982 48 24 48C25.8305 48 27.9671 47.2654 29.9807 46.2461C32.0635 45.1917 34.2865 43.6938 36.3446 41.8719C40.3852 38.295 44.1986 33.0914 44.4969 27.1248L44.5 27.0625L44.5 10.5C44.5 9.11929 43.3807 8 42 8C40.6193 8 39.5 9.11929 39.5 10.5L39.5 26.934C39.2753 30.9479 36.5974 34.9705 33.0304 38.1281C31.276 39.6812 29.4052 40.9333 27.7224 41.7851C25.9704 42.6721 24.6695 43 24 43C23.3018 43 21.9846 42.6832 20.2478 41.8328C18.5719 41.0123 16.7119 39.7954 14.9696 38.2531C11.4535 35.1405 8.72695 30.9941 8.5 26.4406V10Z" fill="currentColor"/>
<path fill-rule="evenodd" clip-rule="evenodd" d="M25.5977 1.07649C27.7955 2.82355 31.1161 4.45021 34.4169 5.65049C37.7898 6.87702 40.7023 7.49997 42 7.49997C43.3807 7.49997 44.5 8.61926 44.5 9.99997C44.5 11.3807 43.3807 12.5 42 12.5C39.7977 12.5 36.2102 11.6229 32.7081 10.3495C29.7729 9.28211 26.5959 7.82716 24 6.09088C21.4041 7.82716 18.2271 9.28211 15.2919 10.3495C11.7898 11.6229 8.20233 12.5 6 12.5C4.61929 12.5 3.5 11.3807 3.5 9.99997C3.5 8.61926 4.61929 7.49997 6 7.49997C7.29767 7.49997 10.2102 6.87702 13.5831 5.65049C16.8839 4.45021 20.2045 2.82355 22.4023 1.07649C22.5654 0.940678 22.7429 0.828345 22.9297 0.740037C23.2697 0.578673 23.6357 0.499648 24 0.499878C24.3643 0.499648 24.7303 0.578673 25.0703 0.740037C25.2571 0.828345 25.4346 0.940678 25.5977 1.07649Z" fill="currentColor"/>
<path fill-rule="evenodd" clip-rule="evenodd" d="M21.2094 17.4185C21.2094 16.5301 21.9823 15.3255 24 15.3255C25.8341 15.3255 26.7906 16.5738 26.7906 17.4185C26.7906 18.0607 27.3112 18.5813 27.9534 18.5813C28.5956 18.5813 29.1162 18.0607 29.1162 17.4185C29.1162 15.0075 26.817 13 24 13C20.9016 13 18.8838 15.0512 18.8838 17.4185C18.8838 18.0607 19.4044 18.5813 20.0466 18.5813C20.6888 18.5813 21.2094 18.0607 21.2094 17.4185ZM15.9852 17.294C15.5311 16.8399 14.7949 16.8399 14.3408 17.294C13.8867 17.7481 13.8867 18.4843 14.3408 18.9384L14.839 19.4365C15.5196 20.1172 16.3517 20.6116 17.256 20.8871V23.93H15.163C14.5208 23.93 14.0002 24.4506 14.0002 25.0927C14.0002 25.7349 14.5208 26.2555 15.163 26.2555H17.256V26.7206C17.256 27.1516 17.295 27.5735 17.3699 27.9828C16.4208 28.1727 15.6831 28.6225 15.1395 29.2301C14.4484 30.0025 14.1582 30.9316 14.0228 31.6087C13.8969 32.2385 14.3052 32.851 14.935 32.977C15.5647 33.1029 16.1772 32.6945 16.3032 32.0648C16.4003 31.5792 16.5753 31.113 16.8725 30.7808C17.1074 30.5182 17.4857 30.261 18.1933 30.2159C19.4006 32.2973 21.6531 33.6972 24.2326 33.6972C26.787 33.6972 29.0208 32.3243 30.2364 30.2762C30.6773 30.377 30.9454 30.5773 31.1275 30.7808C31.4247 31.113 31.5997 31.5792 31.6968 32.0648C31.8228 32.6945 32.4353 33.1029 33.065 32.977C33.6948 32.851 34.1031 32.2385 33.9772 31.6087C33.8418 30.9316 33.5516 30.0025 32.8605 29.2301C32.4048 28.7207 31.8126 28.3222 31.0738 28.0948C31.1626 27.6505 31.2091 27.191 31.2091 26.7206V26.2555H32.837C33.4792 26.2555 33.9998 25.7349 33.9998 25.0927C33.9998 24.4506 33.4792 23.93 32.837 23.93H31.2091V20.7236C31.9333 20.4339 32.5988 19.9987 33.161 19.4365L33.6592 18.9384C34.1133 18.4843 34.1133 17.7481 33.6592 17.294C33.2051 16.8399 32.4689 16.8399 32.0148 17.294L31.5167 17.7921C30.8625 18.4463 29.9752 18.8138 29.0501 18.8138H18.9499C18.0248 18.8138 17.1375 18.4463 16.4834 17.7921L15.9852 17.294ZM28.8836 21.1393H19.5815V26.7206C19.5815 28.8878 21.0638 30.7088 23.0698 31.2251V24.1625C23.0698 23.5204 23.5904 22.9998 24.2326 22.9998C24.8747 22.9998 25.3953 23.5204 25.3953 24.1625V31.2251C27.4013 30.7088 28.8836 28.8878 28.8836 26.7206V21.1393Z" fill="currentColor"/>
</svg>
