<svg width="48" height="48" viewBox="0 0 48 48" fill="none" xmlns="http://www.w3.org/2000/svg">
<path d="M3.23223 3.23223C4.20854 2.25592 5.79146 2.25592 6.76777 3.23223L24 20.4645L41.2322 3.23223C42.2085 2.25592 43.7915 2.25592 44.7678 3.23223C45.7441 4.20854 45.7441 5.79146 44.7678 6.76777L27.5355 24L44.7678 41.2322C45.7441 42.2085 45.7441 43.7915 44.7678 44.7678C43.7915 45.7441 42.2085 45.7441 41.2322 44.7678L24 27.5355L6.76777 44.7678C5.79146 45.7441 4.20854 45.7441 3.23223 44.7678C2.25592 43.7915 2.25592 42.2085 3.23223 41.2322L20.4645 24L3.23223 6.76777C2.25592 5.79146 2.25592 4.20854 3.23223 3.23223Z" fill="#fff"/>
</svg>
