<svg width="48" height="48" viewBox="0 0 48 48" fill="none" xmlns="http://www.w3.org/2000/svg">
<path d="M41.442 20.799C41.409 19.899 41.475 18.945 40.59 18.318C40.23 18.063 40.392 17.934 40.722 17.796C40.983 17.685 41.412 17.757 41.454 17.346C41.574 16.131 41.661 14.913 41.766 13.647C40.806 13.938 39.921 14.193 39.048 14.484C38.76 14.58 38.565 14.559 38.469 14.259C38.01 12.831 37.263 11.541 37.323 9.90601C37.44 6.60601 36.093 3.71701 34.239 1.04701C33.915 0.582007 33.456 0.201007 32.934 0.492007C32.37 0.804007 32.7 1.35601 32.889 1.80901C33.165 2.46901 33.522 3.10201 33.684 3.91201C33.135 3.47401 32.679 3.10501 32.214 2.74801C31.149 1.92901 29.982 1.29001 28.791 0.681007C28.3161 0.457903 27.7864 0.378646 27.267 0.453007C26.901 0.489007 26.892 0.849007 26.811 1.12801C26.793 1.18801 26.679 1.23601 26.598 1.26001C26.226 1.36801 26.208 1.64101 26.235 1.95601C26.271 2.34301 26.478 2.61901 26.742 2.88301C27.546 3.67801 28.332 4.49101 29.127 5.29501C28.596 5.07601 28.131 4.76701 27.666 4.46101C27.27 4.20001 26.898 3.88501 26.439 3.75301C25.977 3.61801 25.494 3.65101 25.257 4.14001C25.038 4.59001 25.398 4.85701 25.722 5.07601C26.781 5.79601 27.702 6.66601 28.59 7.57801C28.824 7.82101 29.04 8.07001 29.103 8.46901C28.149 8.44201 27.282 8.72401 26.397 8.89801C25.98 8.97901 25.725 9.24601 25.71 9.70201C25.698 10.152 26.076 10.083 26.331 10.173C27.411 10.551 28.575 10.746 29.484 11.511C30.096 12.027 30.777 12.414 31.503 12.741C32.085 13.002 32.625 13.23 33.147 13.722C33.726 14.265 33.84 14.856 34.107 15.465C34.272 15.84 34.128 15.936 33.81 16.029C33.081 16.239 32.361 16.47 31.605 16.704L33.534 20.163C33.627 20.331 33.678 20.571 33.975 20.403C34.098 20.334 34.242 20.181 34.395 20.346C34.587 20.553 34.365 20.685 34.26 20.796C33.78 21.309 33.825 21.81 34.26 22.314C34.578 22.68 34.515 23.016 34.161 23.433C33.828 22.293 33.147 21.456 32.442 20.637C31.29 19.293 29.847 18.714 28.086 19.056C27.789 19.113 27.615 19.074 27.456 18.834C26.859 17.907 25.965 17.376 24.96 17.067C22.248 16.227 19.917 17.07 17.877 18.849C16.422 20.115 15.162 21.57 14.397 23.514C14.091 23.013 14.19 22.557 14.046 22.155C13.959 21.915 14.076 21.792 14.307 21.837C14.85 21.945 14.94 21.645 15 21.204C15.06 20.76 15.216 20.331 15.336 19.899C15.66 18.711 15.66 18.711 14.424 18.402C12.921 18.03 12.864 18.009 13.371 16.542C13.605 15.867 13.77 15.042 14.523 14.685C15.384 14.277 15.948 13.668 16.344 12.795C17.061 11.211 17.883 9.68401 19.224 8.49601C20.07 7.74601 19.896 7.07401 18.759 6.70501L20.016 5.88001C21.06 5.20501 22.104 4.53301 23.145 3.85201C23.253 3.78001 23.487 3.76201 23.352 3.52501C23.22 3.29701 23.058 3.38401 22.896 3.48601L22.668 3.63001L17.091 7.10701C15.891 7.85401 15.93 7.84501 15.474 6.47701C15.279 5.89501 15.408 5.57101 15.876 5.22601C16.3217 4.87436 16.7362 4.48492 17.115 4.06201C17.331 3.83401 17.55 3.49801 17.34 3.21301C17.112 2.89801 16.794 3.18901 16.566 3.31501C15.3299 3.96751 14.0314 4.49415 12.69 4.88701C12.432 4.96801 12.162 5.12401 11.886 4.82701C11.442 4.34401 11.076 4.55401 10.725 4.99801C10.1456 5.74905 9.61841 6.5389 9.147 7.36201C8.877 7.81501 8.685 8.01301 8.385 7.35901C8.05866 6.68978 7.69095 6.04152 7.284 5.41801C7.056 5.04301 6.801 4.44901 6.306 4.65301C5.829 4.85101 6.066 5.45401 6.144 5.88001C6.516 7.85101 7.158 9.75001 7.761 11.661C7.86 11.976 8.133 12.285 7.635 12.564C7.395 12.699 7.674 12.966 7.719 13.173C7.77 13.407 7.878 13.392 8.052 13.272C8.238 13.143 8.316 13.284 8.403 13.443C8.934 14.442 9.27 15.453 8.778 16.575C8.679 16.803 8.634 16.977 8.304 16.857C7.884 16.704 7.434 16.623 6.996 16.518C6.777 16.467 6.63 16.464 6.609 16.782C6.546 17.799 6.462 18.816 6.336 19.827C6.258 20.448 6.321 20.853 7.098 20.808C7.512 20.784 7.719 20.97 7.599 21.468C7.512 21.849 7.212 22.353 7.5 22.641C8.061 23.205 7.854 23.835 7.866 24.459C7.92 26.949 8.133 29.439 7.998 31.932C7.98 32.262 8.106 32.4 8.427 32.493C9.012 32.661 9.627 32.838 9.615 33.651C9.612 33.834 9.825 33.87 9.948 33.96C11.514 35.118 13.083 36.27 14.646 37.431C14.883 37.608 15.276 37.752 15.045 38.163C14.847 38.514 14.979 38.694 15.273 38.871C15.471 38.991 15.657 39.18 15.528 39.426C15.426 39.618 15.195 39.528 15.027 39.483C13.701 39.126 12.33 39.123 10.977 39.018C10.716 38.997 10.419 38.913 10.062 39.18C11.058 39.525 11.859 40.047 12.756 40.404C12.3049 40.0259 11.8529 39.6489 11.4 39.273C11.775 39.273 11.973 39.249 12.165 39.276C14.427 39.615 16.599 40.314 18.783 40.962C19.041 41.037 19.374 41.124 19.344 41.589C16.395 41.175 13.449 41.151 10.512 41.679C10.803 41.733 11.097 41.724 11.388 41.733C14.109 41.808 16.836 41.712 19.515 42.375C20.85 42.705 22.215 42.93 23.559 43.227C23.676 43.254 24.084 43.23 23.871 43.557C23.295 44.442 23.133 45.474 22.8 46.443C22.722 46.665 22.458 47.046 22.953 47.145C23.364 47.226 23.544 46.923 23.541 46.575C23.535 46.098 23.79 45.927 24.189 45.765C25.044 45.414 25.947 45.084 26.067 43.953C26.076 43.866 26.211 43.788 26.292 43.71L27.933 42.177C28.749 41.415 28.821 41.412 29.841 42.108L28.038 43.203C27.885 43.296 27.735 43.422 27.567 43.464C26.652 43.695 25.794 45.306 25.905 46.482C25.968 47.151 26.316 47.391 26.967 47.292C28.776 47.019 29.886 44.703 28.911 43.155C32.091 41.364 35.586 40.446 39.096 39.456C38.613 39.24 38.193 39.675 37.653 39.453C38.253 38.907 38.853 38.469 39.558 38.094C39.21 37.956 38.964 38.082 38.712 38.163C37.212 38.652 35.727 39.177 34.299 39.852C33.381 40.284 32.469 40.731 31.554 41.169C31.392 41.247 31.152 41.478 31.098 41.133C31.026 40.668 30.927 40.227 31.563 39.903C33.513 38.91 35.517 38.046 37.533 37.197C37.716 37.119 37.89 37.014 38.103 37.071C38.076 37.374 37.722 37.554 37.761 37.791L39.192 36.417C38.931 36.324 38.661 36.444 38.388 36.519C38.025 36.618 37.863 36.531 37.875 36.102C37.893 35.439 37.959 34.809 38.274 34.203C38.532 33.708 38.802 33.192 38.841 32.622C38.925 31.422 39.261 30.27 39.471 29.094C39.765 27.438 40.545 25.953 41.178 24.417C41.427 23.817 41.763 23.196 41.598 22.539C41.454 21.954 41.463 21.384 41.442 20.799ZM24.933 44.736C24.6196 45.0243 24.2339 45.2223 23.817 45.309C23.8363 44.8814 23.986 44.47 24.246 44.13C24.456 43.836 24.804 43.761 25.074 44.001C25.368 44.259 25.182 44.538 24.933 44.736ZM28.617 44.895C28.5721 45.234 28.449 45.5579 28.2574 45.8412C28.0658 46.1244 27.811 46.3592 27.513 46.527C27.261 46.665 26.985 46.689 26.748 46.518C26.514 46.347 26.55 46.083 26.604 45.834C26.721 45.303 26.871 44.781 27.255 44.379C27.531 44.091 27.861 43.956 28.293 44.127C28.641 44.265 28.629 44.505 28.617 44.895Z" fill="#1A1A1A"/>
<path d="M19.944 45.717C20.505 45.045 20.958 44.49 21.423 43.947C21.597 43.743 21.801 43.497 22.11 43.626C22.44 43.761 22.344 44.091 22.32 44.346C22.284 44.724 22.194 45.099 22.122 45.477C22.053 45.834 21.978 46.182 22.254 46.506C22.395 46.671 22.413 46.89 22.23 47.055C22.1457 47.1303 22.0438 47.1832 21.9338 47.2089C21.8237 47.2346 21.7089 47.2322 21.6 47.202C21.327 47.142 21.351 46.905 21.345 46.713C21.333 46.203 21.342 45.693 21.342 45.048C20.841 45.624 20.439 46.119 19.998 46.584C19.791 46.8 19.563 47.154 19.212 46.98C18.885 46.818 18.954 46.449 19.005 46.128C19.029 45.987 19.107 45.828 18.921 45.645C18.513 46.191 18.105 46.716 17.724 47.262C17.55 47.511 17.349 47.736 17.076 47.532C16.833 47.346 17.001 47.085 17.175 46.89C17.946 46.023 18.462 44.982 19.143 44.058C19.302 43.842 19.458 43.542 19.77 43.641C20.103 43.746 19.986 44.088 20.004 44.346C20.037 44.742 19.818 45.126 19.944 45.717Z" fill="#1B1B1B"/>
<path d="M33.717 45.018C34.053 45.003 34.386 44.979 34.722 44.976C34.866 44.976 35.088 44.904 35.106 45.132C35.121 45.303 35.028 45.453 34.833 45.552C34.551 45.699 34.26 45.66 33.969 45.678C33.693 45.696 33.354 45.684 33.384 46.065C33.417 46.467 33.738 46.161 33.918 46.191C34.206 46.236 34.506 46.197 34.803 46.2C34.989 46.203 35.181 46.206 35.187 46.47C35.19 46.704 35.097 46.893 34.845 46.881C34.155 46.845 33.501 47.034 32.838 47.163C32.442 47.241 32.349 47.025 32.439 46.695C32.631 46.002 32.76 45.282 33.054 44.634C33.402 43.869 34.074 43.488 34.95 43.554C35.154 43.569 35.361 43.557 35.562 43.593C35.745 43.626 36.054 43.488 36.084 43.731C36.117 44.022 35.793 44.103 35.559 44.151C35.226 44.217 34.878 44.292 34.548 44.256C33.957 44.19 33.726 44.445 33.717 45.018Z" fill="#1C1C1C"/>
<path d="M11.652 45.81C11.61 46.185 11.817 46.281 12.144 46.179C12.531 46.059 12.906 45.903 13.287 45.771C13.425 45.723 13.599 45.558 13.704 45.75C13.812 45.948 13.704 46.158 13.533 46.29C13.1252 46.6142 12.6476 46.8391 12.138 46.947C11.793 47.019 11.421 47.367 11.064 47.013C10.701 46.653 10.734 46.191 10.86 45.744C11.1 44.904 11.487 44.151 12.219 43.623C12.4107 43.4813 12.6321 43.3851 12.8665 43.3414C13.1009 43.2977 13.3421 43.3079 13.572 43.371C13.725 43.41 14.031 43.44 13.926 43.743C13.851 43.956 13.725 44.103 13.428 44.079C12.459 43.989 11.661 44.778 11.652 45.81Z" fill="#1D1D1D"/>
<path d="M31.059 47.169C30.4221 47.1223 29.8243 46.8437 29.379 46.386C29.187 46.191 29.079 45.933 29.31 45.732C29.565 45.51 29.751 45.633 29.922 45.933C30.087 46.224 30.405 46.392 30.729 46.524C30.9 46.593 31.038 46.608 31.158 46.473C31.29 46.326 31.215 46.185 31.116 46.05C30.846 45.69 30.57 45.333 30.318 44.958C29.985 44.46 30.078 44.016 30.552 43.665C30.993 43.338 31.887 43.398 32.196 43.749C32.2504 43.807 32.2866 43.8798 32.2999 43.9582C32.3132 44.0366 32.3032 44.1172 32.271 44.19C32.19 44.379 32.01 44.325 31.863 44.256C31.74 44.202 31.629 44.115 31.503 44.067C31.26 43.974 31.047 44.082 30.885 44.241C30.693 44.43 30.837 44.613 30.957 44.781C31.263 45.201 31.608 45.597 31.869 46.041C32.235 46.671 31.917 47.166 31.059 47.169Z" fill="#1E1E1E"/>
<path d="M24.927 27.498L23.865 28.464C25.506 28.404 26.544 27.66 27.213 26.265C28.197 27.855 29.697 28.734 31.233 29.559C31.632 29.772 32.073 29.892 32.526 29.967C33.246 30.084 33.372 30.333 33.09 31.017C33.03 31.164 32.952 31.308 33.054 31.506C33.254 31.3835 33.4244 31.2184 33.553 31.0223C33.6816 30.8263 33.7653 30.6042 33.798 30.372C33.843 30.129 33.93 30.054 34.152 30.108C34.392 30.168 34.329 30.339 34.266 30.483C33.924 31.284 33.723 32.223 32.562 32.238C32.313 32.241 32.238 32.448 32.148 32.634C31.9419 33.0781 31.6487 33.4763 31.286 33.805C30.9232 34.1338 30.4982 34.3864 30.036 34.548C29.889 34.605 29.553 34.587 29.664 34.884C29.742 35.091 29.976 34.992 30.15 34.938L30.744 34.743C30.243 36.192 29.691 37.479 28.41 38.289C27.2424 39.0118 25.892 39.3845 24.519 39.363C23.418 39.363 22.551 38.865 21.981 37.842C21.3346 36.6878 20.4134 35.7109 19.299 34.998C18.621 34.557 17.994 34.092 17.679 33.315C17.607 33.138 17.499 32.982 17.289 32.988C16.509 33.009 16.2 32.448 15.882 31.884C14.961 30.252 15.057 29.955 16.761 29.214C17.496 28.896 18.252 28.707 19.065 28.671C21.057 28.584 23.07 28.551 24.828 27.348C24.8631 27.3966 24.8961 27.4467 24.927 27.498ZM32.757 4.806C33.384 4.812 33.954 4.701 34.323 5.46C34.446 4.599 34.233 4.026 34.026 3.462C33.801 2.847 33.507 2.256 33.258 1.647C33.162 1.413 32.901 1.101 33.252 0.939001C33.516 0.819001 33.75 1.11 33.891 1.338C34.335 2.049 34.785 2.76 35.181 3.498C36.18 5.355 36.876 7.305 36.903 9.441C36.906 9.621 36.957 9.831 36.885 9.981C36.441 10.914 36.825 11.724 37.212 12.549C37.461 13.083 37.635 13.65 37.875 14.187C38.037 14.553 38.01 14.748 37.575 14.859C36.804 15.057 36.045 15.3 35.289 15.54C34.971 15.642 34.776 15.609 34.698 15.24C34.647 15 34.485 14.778 34.461 14.535C34.377 13.623 33.51 13.266 33.093 12.585C32.865 12.213 32.262 12.288 31.824 12.189C31.3092 12.0926 30.8242 11.8769 30.408 11.559C29.3848 10.6838 28.1222 10.1361 26.784 9.987C26.574 9.966 26.271 9.99 26.265 9.675C26.256 9.336 26.562 9.315 26.805 9.285C27.924 9.144 29.04 8.841 30.18 9.129C30.351 9.171 30.492 9.102 30.627 9.012L31.995 8.115C31.428 7.893 30.996 8.07 30.585 8.295C30.237 8.487 29.949 8.502 29.697 8.151C28.8 6.897 27.531 6.024 26.409 5.001C26.325 4.926 26.229 4.863 26.145 4.785C26.013 4.662 25.839 4.533 25.986 4.332C26.112 4.161 26.274 4.272 26.412 4.347C26.748 4.536 27.093 4.71 27.411 4.929C28.44 5.637 29.514 6.273 30.609 6.879C30.753 6.96 30.915 7.17 31.083 7.008C31.29 6.81 31.071 6.63 30.948 6.492C29.82 5.217 28.731 3.903 27.492 2.73C27.213 2.469 26.682 2.175 27.03 1.761C27.3 1.44 27.69 1.881 27.951 2.073C29.244 3.033 30.585 3.933 31.794 5.007C31.926 5.124 32.076 5.334 32.247 5.19C32.487 4.989 32.229 4.824 32.1 4.698C30.9996 3.58114 29.7652 2.60472 28.425 1.791C28.308 1.722 28.176 1.671 28.071 1.59C27.861 1.428 27.513 1.281 27.69 0.969001C27.846 0.699001 28.14 0.885001 28.359 0.993001C29.823 1.725 31.281 2.472 32.535 3.54C32.895 3.846 33.474 4.161 32.757 4.806Z" fill="#F4E4CB"/>
<path d="M14.58 29.94C14.391 29.154 14.784 28.662 15.324 28.257C15.861 27.852 16.5 27.684 17.148 27.543C19.338 27.06 21.576 26.721 23.556 25.566C24.183 25.2 24.765 24.78 24.732 23.838C23.979 24.258 23.415 24.831 22.659 25.107C20.943 25.743 19.146 25.962 17.343 26.178C15.903 26.349 14.541 26.739 13.428 27.72C13.308 27.654 13.323 27.561 13.362 27.486C15.03 24.279 17.475 21.969 21.057 21.072C22.1859 20.7799 23.3677 20.7573 24.507 21.006C25.278 21.18 25.95 21.546 26.511 22.104C27.429 23.016 27.555 23.886 26.778 24.945C25.602 26.544 23.994 27.525 22.059 27.948C20.502 28.287 18.897 28.236 17.331 28.488C16.062 28.692 15.723 28.356 14.58 29.94Z" fill="#875630"/>
<path d="M12.276 17.802C11.298 17.55 10.401 17.304 9.49499 17.094C9.21599 17.031 9.16799 16.911 9.23999 16.674C9.33299 16.371 9.34799 16.011 9.52799 15.774C9.93299 15.24 9.74399 14.814 9.47099 14.31C8.70899 12.894 8.72699 12.885 10.056 12.06L13.29 10.047C13.674 9.80699 14.04 9.53699 14.514 9.49499C15.021 9.44999 15.219 8.94899 15.606 8.73899C16.56 8.22299 17.592 7.85399 18.495 7.22999C18.807 7.01399 19.116 7.27499 19.074 7.66799C19.036 7.91851 18.9067 8.14612 18.711 8.30699C17.568 9.40499 16.734 10.731 16.038 12.132C15.6458 12.955 14.9974 13.6287 14.19 14.052C13.782 14.268 13.701 14.589 13.53 14.97C13.14 15.834 12.819 16.713 12.564 17.622C12.507 17.823 12.381 17.859 12.276 17.802Z" fill="#F4E4CB"/>
<path d="M16.047 21.81C16.896 20.49 17.901 19.293 19.242 18.465C21.69 16.95 23.82 16.68 26.019 18.282C27.339 19.245 27.96 21.201 27.318 22.584C27.222 22.512 27.114 22.464 27.054 22.383C25.743 20.628 23.895 20.28 21.879 20.475C20.187 20.64 18.576 21.111 17.187 22.131C16.458 22.665 15.795 23.289 15.105 23.874C14.874 23.55 15.132 23.304 15.273 23.079C15.531 22.656 15.768 22.221 16.047 21.81Z" fill="#875630"/>
<path d="M10.188 33.252C10.092 33.033 9.873 32.862 9.912 32.586C10.143 32.319 10.536 32.505 10.785 32.301C10.746 31.881 10.188 32.319 10.17 31.896C10.1726 31.8514 10.1796 31.8072 10.191 31.764C10.257 31.59 10.419 31.575 10.569 31.524C11.142 31.329 10.839 31.161 10.548 30.996C10.449 30.9 10.377 30.798 10.44 30.651C10.608 30.507 10.815 30.507 11.016 30.51C11.259 30.516 11.574 30.456 11.691 30.705C11.808 30.957 11.88 31.284 11.481 31.488C12.288 31.398 13.011 31.353 13.716 31.629L13.872 32.028C13.929 32.139 13.866 32.184 13.773 32.214C13.692 32.241 13.596 32.226 13.53 32.322C13.707 32.451 13.857 32.322 14.01 32.274L15.093 33.279C15.216 33.351 15.387 33.399 15.474 33.312C15.603 33.186 15.441 33.075 15.36 32.982C15.252 32.862 15.186 32.718 15.111 32.58C15.099 32.385 15.171 32.307 15.315 32.475C15.6095 32.8204 15.989 33.0831 16.416 33.237C16.977 33.441 17.13 33.861 17.145 34.395C17.172 35.25 17.088 36.099 16.977 36.945C17.316 37.224 17.259 37.638 17.274 38.034C17.484 37.947 17.46 37.821 17.433 37.722C17.301 37.233 17.577 37.11 17.979 37.131C18.423 37.152 18.861 37.161 19.398 37.113C19.131 36.714 18.699 37.002 18.516 36.717C18.348 36.453 18.48 36.081 18.213 35.847C18.354 35.295 18.642 35.265 19.104 35.535C19.566 35.805 19.881 36.216 20.262 36.567C20.457 36.747 20.373 36.939 20.262 37.116C19.938 37.632 19.794 38.154 19.983 38.775C20.073 39.066 20.148 39.462 19.734 39.666C19.422 39.675 19.074 39.498 18.834 39.873C18.765 39.981 18.651 39.924 18.546 39.855C18.048 39.522 17.523 39.588 16.998 39.789L16.737 39.777C16.599 39.588 16.353 39.546 16.185 39.399C16.119 39.111 16.641 39.066 16.461 38.784C16.302 38.535 16.119 38.928 15.924 38.838C15.603 38.418 15.876 37.932 15.771 37.488C15.618 37.113 15.546 36.636 14.943 36.819L14.538 36.543C14.595 36.045 14.613 35.547 14.565 34.923C14.169 35.337 14.64 35.982 14.001 36.126L13.044 35.442C12.864 35.106 12.696 34.77 12.759 34.371C12.78 34.242 12.816 34.068 12.63 34.056C12.444 34.047 12.453 34.212 12.477 34.35C12.522 34.581 12.576 34.815 12.204 34.788L11.943 34.641C11.967 34.032 11.613 33.969 11.133 34.086L10.575 33.687C10.479 33.426 10.893 33.396 10.827 33.147C10.566 32.91 10.422 33.339 10.188 33.252Z" fill="#735F42"/>
<path d="M11.748 8.22899L13.308 9.28799L10.542 10.842C9.93 11.187 9.315 11.532 8.706 11.883C8.526 11.988 8.376 12.051 8.298 11.784C7.701 9.78899 6.9 7.85399 6.594 5.77499C6.582 5.69099 6.606 5.60099 6.627 5.33699C7.845 6.78299 8.325 8.51999 9.387 9.91499C9.561 9.69899 9.474 9.53999 9.396 9.42299C8.958 8.76899 9.168 8.21399 9.582 7.63199C10.044 6.98699 10.434 6.29399 10.86 5.62499C11.187 5.11499 11.457 5.06699 11.784 5.54699C12.441 6.51599 13.293 7.29599 14.13 8.09399C14.289 8.24699 14.523 8.42399 14.358 8.66099C14.19 8.90699 13.905 8.94299 13.62 8.81699C12.9788 8.52303 12.3948 8.11777 11.895 7.61999C11.772 7.50299 11.595 7.24799 11.469 7.40699C11.28 7.64399 11.214 7.97699 11.109 8.27699C11.049 8.45399 11.142 8.62499 11.289 8.67299C11.709 8.81099 11.451 8.27399 11.748 8.22899Z" fill="#F4E4CB"/>
<path d="M41.199 14.589C41.136 15.453 41.073 16.242 41.019 17.031C40.998 17.322 40.779 17.385 40.563 17.46C38.526 18.165 36.486 18.864 34.452 19.584C34.125 19.701 33.96 19.635 33.804 19.338C33.477 18.717 33.126 18.108 32.778 17.496C32.658 17.283 32.532 17.127 32.913 17.019C35.658 16.227 38.394 15.414 41.199 14.589Z" fill="#FEFEFE"/>
<path d="M34.467 26.58C34.551 26.802 34.83 26.997 34.662 27.249C34.464 27.543 34.17 27.333 33.915 27.294C31.671 26.967 29.973 25.674 28.416 24.153C27.933 23.685 27.81 22.512 28.098 21.921C28.179 21.753 28.32 21.711 28.485 21.699C29.811 21.603 31.05 21.786 32.034 22.794C32.481 23.022 32.844 23.376 33.285 23.613C33.468 23.763 33.513 23.988 33.618 24.246C32.973 24.234 32.577 23.643 31.893 23.592C32.304 24.105 32.94 24.258 33.18 24.813C33.771 25.287 34.083 25.959 34.467 26.58Z" fill="#875630"/>
<path d="M35.847 27.417C35.445 27.393 35.244 27.171 35.205 26.775C35.184 26.574 35.169 26.361 35.094 26.178C34.683 25.155 34.569 24.147 35.124 23.127C35.313 22.776 35.07 22.476 34.869 22.2C34.563 21.777 34.449 21.366 34.881 20.94C35.004 20.82 35.148 20.61 35.121 20.472C35.022 19.965 35.319 19.845 35.703 19.776C36.159 19.941 36.165 20.292 36.093 20.685C36.069 20.817 35.889 21.027 36.156 21.063C36.39 21.096 36.447 20.889 36.408 20.688C36.324 20.277 36.489 19.89 36.51 19.491L37.488 19.107C37.881 19.014 38.25 19.164 38.595 19.284C39.111 19.464 39.069 20.475 38.556 20.832C38.061 20.826 37.557 20.7 37.077 20.958C37.545 20.949 38.016 21.15 38.481 20.94C38.8105 20.9649 39.1255 21.0859 39.387 21.288L39.663 21.429C39.69 21.789 39.417 21.72 39.207 21.75C38.814 21.807 38.403 21.726 37.971 21.873C38.769 21.816 39.039 22.218 38.952 23.013C39.375 22.674 38.988 22.089 39.441 21.96C39.774 21.867 40.14 21.849 40.494 21.819C40.695 21.93 40.935 21.99 41.058 22.215C41.034 22.566 40.764 22.605 40.5 22.671C40.32 22.716 40.089 22.638 39.954 22.863C40.218 22.998 40.425 22.527 40.644 22.8C40.92 23.145 40.779 23.526 40.644 23.892L40.473 24.402C39.822 24.555 39.822 24.555 40.086 25.233C39.846 25.458 39.546 25.428 39.255 25.434C39.114 25.437 38.967 25.458 38.958 25.632C38.949 25.815 39.105 25.836 39.243 25.845C39.423 25.86 39.612 25.842 39.702 26.049L39.645 26.307C39.348 26.478 38.913 26.334 38.7 26.727C38.646 26.829 38.475 26.79 38.403 26.694C38.22 26.451 37.986 26.391 37.692 26.394C37.371 26.397 37.284 26.157 37.296 25.878C37.308 25.563 37.173 25.419 36.846 25.449C36.486 25.482 36.123 25.389 35.76 25.461C35.655 25.482 35.532 25.461 35.436 25.629C35.79 25.779 36.144 25.842 36.522 25.824C36.774 25.812 36.993 25.893 36.957 26.199C36.927 26.457 36.744 26.511 36.504 26.448C36.357 26.409 36.132 26.361 36.144 26.592C36.156 26.82 36.384 26.739 36.528 26.715C36.852 26.661 37.209 26.85 37.5 26.565C37.566 26.502 37.68 26.511 37.755 26.571C38.1 26.85 38.502 26.853 38.913 26.853C39.069 26.853 39.3 26.856 39.267 27.135C38.967 27.39 38.613 27.375 38.253 27.348C37.671 27.306 37.101 27.324 36.669 27.807L36.522 27.684C36.414 27.318 36.168 27.276 35.847 27.417Z" fill="#746043"/>
<path d="M7.16999 17.052C9.71399 17.715 12.123 18.36 14.541 18.969C15 19.086 15.099 19.236 14.952 19.695C14.469 21.207 14.487 21.225 12.909 21.021C11.085 20.784 9.26699 20.514 7.44299 20.292C6.94499 20.232 6.80399 20.052 6.88199 19.56C7.01099 18.738 7.07399 17.904 7.16999 17.052Z" fill="#FEFEFE"/>
<path d="M10.446 30.681L10.584 30.945C10.512 31.071 10.383 31.155 10.257 31.131C9.57 31.008 9.558 31.416 9.627 31.899C9.399 32.124 9.168 32.184 8.928 31.92C8.934 31.275 9.186 30.615 8.823 29.991L8.805 29.046C8.931 28.632 9.069 28.224 9.036 27.771C9.018 27.507 8.91 27.36 8.688 27.261C8.634 25.998 8.472 24.741 8.538 23.475C8.53925 23.1581 8.44632 22.848 8.271 22.584C7.992 22.089 8.142 21.369 8.55 21.114C8.73 21.651 8.697 22.233 8.982 22.764C9 22.365 9.048 21.969 9.033 21.567C9.015 21.189 9.21 21.153 9.504 21.273L10.173 21.297C10.74 21.555 10.506 22.086 10.572 22.509C10.599 22.671 10.458 22.932 10.716 22.938C10.992 22.938 10.86 22.68 10.863 22.515C10.869 22.134 10.809 21.717 11.292 21.543C11.508 22.26 11.886 21.855 12.228 21.675L12.234 21.678C12.381 21.882 12.534 22.074 12.828 22.044C13.263 21.996 13.251 22.257 13.35 22.602C13.5 23.112 13.128 23.751 13.719 24.144L13.728 24.279C13.248 24.732 13.248 24.741 13.857 24.96L13.854 25.227C13.524 25.413 13.203 25.626 12.786 25.485C12.651 25.437 12.48 25.482 12.477 25.644C12.474 25.896 12.678 25.839 12.825 25.8C13.065 25.74 13.281 25.698 13.308 26.046L13.164 26.445C12.489 26.373 12.489 26.373 12.402 27.303C12.51 27.15 12.516 26.799 12.93 26.862L11.793 29.991C11.604 30.201 11.343 30.18 11.103 30.171C10.728 30.159 10.506 30.306 10.446 30.681Z" fill="#776446"/>
<path d="M36.801 32.451L37.104 33.027C37.227 32.229 36.939 31.524 36.666 30.816C36.903 30.708 36.951 30.69 36.99 30.81C37.173 31.347 37.584 31.509 38.097 31.554C38.289 31.572 38.448 31.665 38.313 31.911H38.316C37.725 32.157 38.337 32.568 38.184 32.874C38.133 33.045 38.118 33.237 38.025 33.381C37.428 34.323 37.242 35.373 37.242 36.459C37.242 36.987 36.882 36.996 36.537 37.071C36.189 36.657 36.354 36.339 36.795 36.066C36.585 35.853 36.369 35.802 36.162 35.91C35.991 36 36.087 36.189 36.123 36.339C36.189 36.615 36.057 36.804 35.799 36.819C35.535 36.834 35.376 36.639 35.439 36.372C35.523 36.018 35.502 35.868 35.064 35.979C34.911 36.018 35.013 35.703 34.908 35.583C34.68 33.927 34.614 32.28 35.052 30.612C35.664 30.855 36.033 31.308 36.405 31.758C36.516 32.034 36.051 32.016 36.141 32.286C36.321 32.487 36.621 32.238 36.801 32.451Z" fill="#756144"/>
<path d="M27.72 23.769C28.677 24.99 29.811 25.932 30.978 26.82C31.911 27.528 33.108 27.507 34.221 27.684C34.785 27.774 35.388 27.741 36.003 28.227C34.869 28.227 33.873 28.134 32.904 28.248C31.167 28.452 29.76 27.756 28.428 26.82C27.288 26.019 27.054 24.948 27.72 23.769Z" fill="#875630"/>
<path d="M24.282 40.266C23.082 40.854 21.828 41.196 20.889 42.147C20.637 42.402 20.265 42.225 20.235 41.808C20.202 41.361 20.229 40.923 20.022 40.494C19.86 40.161 20.181 39.957 20.376 39.756C20.628 39.495 20.775 39.261 20.616 38.862C20.403 38.322 20.865 37.887 20.925 37.167C21.681 38.298 22.338 39.267 23.55 39.648C22.893 39.837 22.23 39.879 21.51 40.182C22.485 40.557 23.358 40.029 24.282 40.266ZM28.008 41.376C27.393 41.898 26.79 42.405 26.193 42.924C26.019 43.074 25.863 43.14 25.647 43.017C24.6763 42.4405 23.6372 41.988 22.554 41.67C24.384 40.899 26.115 40.083 28.008 41.376Z" fill="#FDFDFD"/>
<path d="M32.697 22.092L33.099 22.56C32.817 22.65 32.685 22.446 32.529 22.35C31.422 21.666 30.246 21.249 28.923 21.423C28.218 21.516 27.957 21.231 28.062 20.553C28.071 20.487 28.062 20.418 28.059 20.349C28.005 19.476 28.44 19.155 29.301 19.446C29.574 19.539 29.835 19.653 30.102 19.758C30.789 20.136 31.413 20.592 31.926 21.189C32.181 21.492 32.466 21.768 32.697 22.092Z" fill="#875630"/>
<path d="M39.393 21.285C39.024 21.381 38.751 21.138 38.445 21.012C38.37 20.919 38.37 20.829 38.445 20.736C39.24 20.568 38.508 19.977 38.739 19.611C38.862 19.413 38.481 19.353 38.298 19.386C37.959 19.452 37.77 19.17 37.494 19.107C38.118 18.846 38.739 18.582 39.363 18.324C39.546 18.249 39.753 18.27 39.864 18.426C40.2 18.897 41.076 19.101 40.641 19.971C40.557 20.136 40.719 20.307 40.815 20.463C40.8857 20.5676 40.9245 20.6905 40.9267 20.8167C40.9288 20.943 40.8942 21.0671 40.827 21.174C40.656 21.426 40.419 21.189 40.209 21.162C39.927 21.12 39.6 20.82 39.393 21.285Z" fill="#685236"/>
<path d="M27.54 39.627C28.689 39.207 29.433 38.535 30.027 37.548L30.669 39.129C30.717 39.252 30.795 39.378 30.696 39.513C30.432 39.882 30.516 40.275 30.573 40.689C30.648 41.232 30.168 41.61 29.73 41.355C29.013 40.935 28.218 40.746 27.45 40.473C27.246 40.401 27 40.392 26.865 40.185C26.976 39.885 27.186 40.05 27.327 40.083C28.056 40.26 28.776 40.461 29.502 40.647C29.682 40.695 29.931 40.92 30.036 40.677C30.135 40.443 29.949 40.191 29.679 40.107C29.2897 39.9867 28.8965 39.8796 28.5 39.786C28.245 39.726 27.984 39.699 27.54 39.627Z" fill="#FBFBFB"/>
<path d="M10.446 30.681C10.158 30.207 10.29 29.982 10.848 29.994C11.163 30 11.478 29.991 11.79 29.991V31.071C12.348 30.273 12.807 29.43 13.455 28.668C13.296 29.688 13.668 30.645 13.71 31.632C13.221 31.335 12.627 32.121 12.171 31.479C12.072 31.557 11.982 31.656 11.874 31.713C11.804 31.7517 11.7244 31.7694 11.6446 31.7641C11.5648 31.7588 11.4882 31.7306 11.424 31.683C11.25 31.56 11.259 31.374 11.271 31.191C11.277 31.095 11.334 31.056 11.421 31.008C11.547 30.933 11.529 31.452 11.658 31.062C11.715 30.888 11.646 30.69 11.394 30.684C11.082 30.678 10.764 30.684 10.446 30.681Z" fill="#665034"/>
<path d="M34.911 35.583C34.983 35.676 35.07 35.859 35.127 35.85C35.745 35.76 35.814 35.802 35.625 36.327C35.574 36.474 35.523 36.552 35.64 36.663C35.715 36.732 35.793 36.753 35.88 36.69C36.042 36.573 36.024 36.483 35.913 36.306C35.778 36.093 35.757 35.757 36.039 35.664C36.327 35.568 36.645 35.739 36.909 35.889C36.972 35.925 37.02 36.27 36.846 36.291C36.228 36.369 36.618 36.807 36.528 37.068C36.003 37.347 35.484 37.638 34.896 37.77C34.68 37.461 34.896 37.122 34.815 36.84C34.77 37.044 34.938 37.401 34.512 37.47C34.17 37.524 33.945 37.386 33.876 37.035C33.9 36.456 33.753 35.889 33.783 35.31C33.798 35.043 33.741 34.761 34.065 34.626C34.218 34.995 34.386 35.358 34.65 35.664C34.812 35.832 34.875 35.751 34.911 35.583Z" fill="#654F33"/>
<path d="M33.936 37.08C34.125 37.296 34.365 37.479 34.629 37.296C34.863 37.134 34.788 36.858 34.644 36.633C34.593 36.555 34.533 36.471 34.641 36.411C34.71 36.372 34.821 36.342 34.881 36.372C34.938 36.402 35.001 36.54 34.977 36.588C34.776 36.975 35.028 37.386 34.902 37.773H34.899C34.503 37.719 34.1017 37.716 33.705 37.764C33.537 37.779 33.33 37.644 33.237 37.881C33.162 38.079 33.363 38.142 33.468 38.25C33.519 38.301 33.54 38.358 33.513 38.43L33.108 38.574C33.09 38.589 33.072 38.613 33.054 38.613C31.539 38.601 31.71 38.874 31.689 37.335C31.683 36.978 31.449 36.645 31.605 36.276C31.752 35.931 31.599 35.577 31.647 35.229C31.287 35.892 31.293 36.609 31.266 37.323C31.254 37.623 31.38 38.01 30.942 38.16C30.156 36.498 31.035 35.22 31.929 33.951C32.091 33.723 32.178 33.423 32.475 33.312C32.487 33.306 32.526 33.372 32.553 33.402C32.514 33.768 32.043 34.137 32.565 34.497C32.5769 34.5369 32.5829 34.5783 32.583 34.62C32.226 35.358 32.445 36.177 32.259 36.942C32.244 37.005 32.298 37.071 32.37 37.089C32.475 37.113 32.541 37.05 32.58 36.963C32.655 36.789 32.571 36.6 32.622 36.432C32.685 36.219 32.61 35.91 32.964 35.871L33.252 36.537C33.201 37.206 33.255 37.26 33.873 37.152C33.8925 37.1267 33.9135 37.1027 33.936 37.08Z" fill="#786547"/>
<path d="M39.27 27.141C39 26.886 38.664 27.045 38.361 27C38.151 26.97 37.899 27.09 37.764 26.808C37.641 26.547 37.599 26.727 37.458 26.829C37.011 27.15 36.492 26.853 36.006 26.901C35.856 26.916 35.814 26.61 35.886 26.433C35.991 26.169 36.213 26.157 36.456 26.226C36.567 26.259 36.654 26.463 36.792 26.295C36.837 26.238 36.861 26.112 36.828 26.055C36.744 25.902 36.594 25.929 36.474 26.007C36.135 26.229 35.835 25.77 35.457 25.974C35.295 26.061 35.196 25.725 35.178 25.524C35.163 25.377 35.22 25.257 35.4 25.254C35.994 25.248 36.591 25.23 37.185 25.242C37.581 25.251 37.509 25.578 37.473 25.797C37.413 26.178 37.425 26.373 37.902 26.211C38.253 26.091 38.526 26.22 38.535 26.784C38.748 25.929 39.225 26.214 39.645 26.31L39.27 27.141Z" fill="#654E32"/>
<path d="M38.313 31.908C38.31 31.563 37.92 31.674 37.872 31.686C37.167 31.86 37.083 31.344 36.912 30.897C36.876 30.804 36.801 30.687 36.666 30.813C36.189 30.045 35.499 29.469 34.833 28.845C35.757 28.833 36.657 28.743 37.488 29.187C37.77 29.724 37.686 30.297 37.689 30.897C37.929 30.894 38.223 30.669 38.454 30.96C38.394 31.275 38.559 31.623 38.313 31.908Z" fill="#654F33"/>
<path d="M12.501 5.47799C13.9073 4.99133 15.2571 4.35466 16.527 3.57899C16.686 3.82799 16.665 4.01699 16.476 4.19099C15.696 4.91099 14.913 5.62799 14.031 6.22799C13.527 6.56699 13.143 6.55799 12.855 5.96999C12.777 5.81399 12.648 5.68199 12.501 5.47799Z" fill="#F2E3CA"/>
<path d="M30.942 38.16C31.305 37.659 31.104 37.062 31.116 36.54C31.128 35.994 31.404 35.568 31.458 35.067C31.473 34.935 31.521 34.782 31.698 34.797C31.878 34.812 31.899 34.971 31.881 35.103C31.755 36.09 31.872 37.074 31.869 38.058C31.866 38.403 31.824 38.58 32.25 38.451C32.544 38.361 32.823 38.526 33.111 38.571C32.892 38.679 32.673 38.793 32.454 38.898C31.296 39.444 31.281 39.438 30.942 38.16Z" fill="#654E32"/>
<path d="M18.213 35.85C18.525 35.832 18.723 35.952 18.609 36.285C18.459 36.717 18.63 36.741 18.996 36.684C19.239 36.648 19.587 36.555 19.593 37.002C19.596 37.449 19.245 37.38 19.005 37.329C18.624 37.245 18.252 37.422 17.862 37.272C17.682 37.203 17.385 37.299 17.613 37.659C17.736 37.851 17.775 38.109 17.532 38.256C17.4708 38.2848 17.4039 38.2992 17.3363 38.2981C17.2687 38.2971 17.2023 38.2806 17.142 38.25C16.917 38.1 16.923 37.737 17.043 37.647C17.475 37.329 16.707 37.191 16.974 36.942C17.361 37.017 17.46 36.663 17.634 36.462C17.82 36.252 17.979 36.018 18.213 35.85Z" fill="#644E32"/>
<path d="M21.066 26.112C18.942 27.102 16.359 26.655 14.358 28.254C14.232 27.741 14.502 27.579 14.808 27.393C15.867 26.742 17.061 26.622 18.252 26.469L21.066 26.112Z" fill="#85542F"/>
<path d="M38.454 30.96C38.097 30.816 37.794 31.275 37.566 31.161C37.161 30.957 37.782 30.576 37.551 30.267C37.296 29.922 37.647 29.538 37.488 29.187L37.755 29.328C37.908 29.421 37.992 29.766 38.226 29.562C38.463 29.355 38.142 29.289 38.037 29.178L37.065 28.101C37.104 27.705 37.428 27.714 37.704 27.66C37.7494 27.6548 37.7953 27.6631 37.836 27.684C38.172 27.843 38.589 27.576 38.88 27.849C39.186 28.137 38.673 28.461 38.865 28.779L38.568 30.399C38.382 30.477 38.277 30.204 38.052 30.306C38.034 30.609 38.682 30.546 38.451 30.96H38.454Z" fill="#715D40"/>
<path d="M40.497 21.819C40.449 21.864 40.404 21.945 40.35 21.951C39.711 22.035 39.159 22.164 39.351 23.034C39.387 23.193 39.111 23.193 38.961 23.175C38.709 23.148 38.685 22.938 38.73 22.767C38.883 22.212 38.826 21.924 38.16 22.224C38.049 22.275 37.869 22.248 37.806 22.101C37.7668 22.0194 37.7492 21.929 37.755 21.8387C37.7608 21.7483 37.7897 21.661 37.839 21.585C37.95 21.414 38.091 21.48 38.256 21.522C38.733 21.645 39.216 21.696 39.672 21.426C39.9804 21.4704 40.2681 21.6075 40.497 21.819Z" fill="#654E32"/>
<path d="M14.694 6.219C14.775 6.219 14.805 6.21 14.817 6.219C15.186 6.591 15.207 7.113 15.39 7.563C15.459 7.74 15.633 7.932 15.384 8.106C15.144 8.277 14.913 8.496 14.658 8.103C14.523 7.896 14.322 7.734 14.175 7.533C14.034 7.341 13.662 7.14 13.791 6.96C14.022 6.645 14.409 6.441 14.694 6.219Z" fill="#F1E2C9"/>
<path d="M38.865 28.776L38.769 28.686C38.511 28.44 39.03 27.927 38.715 27.939C38.175 27.96 37.56 27.585 37.068 28.101L36.669 27.816C36.771 26.832 37.572 27.207 38.076 27.171C38.463 27.144 38.871 27.117 39.27 27.141C39.27 27.72 39.072 28.248 38.865 28.776ZM32.964 35.868C32.814 36.144 32.709 36.426 32.808 36.75C32.871 36.957 32.868 37.161 32.658 37.287C32.496 37.386 32.292 37.404 32.145 37.293C31.953 37.152 31.989 36.918 32.079 36.738C32.262 36.375 31.803 35.859 32.361 35.598C32.343 35.559 32.334 35.511 32.304 35.487C31.584 34.938 32.256 34.833 32.583 34.62L32.964 35.868Z" fill="#654E32"/>
<path d="M16.998 39.789C17.007 39.657 17.049 39.408 17.118 39.447C17.601 39.699 18.237 39.063 18.633 39.711C18.786 39.963 18.765 39.705 18.798 39.657C19.116 39.201 19.425 39.366 19.731 39.669C19.719 39.687 19.698 39.702 19.692 39.723C19.278 40.77 18.576 40.359 17.892 40.083C17.604 39.963 17.298 39.885 16.998 39.789Z" fill="#654E33"/>
<path d="M11.262 21.561C11.106 21.93 10.872 22.281 11.112 22.716C11.178 22.836 11.175 23.07 11.001 23.133C10.8304 23.1903 10.6466 23.1956 10.473 23.148C10.251 23.079 10.281 22.842 10.329 22.683C10.485 22.191 10.377 21.741 10.173 21.297L11.265 21.447C11.304 21.474 11.316 21.501 11.301 21.528C11.289 21.549 11.277 21.561 11.262 21.561Z" fill="#644D32"/>
<path d="M31.176 28.848C32.331 29.094 33.402 28.44 34.359 29.22C33.345 29.595 32.04 29.481 31.176 28.848Z" fill="#82532F"/>
<path d="M13.719 24.144C13.239 24.207 13.101 23.955 13.194 23.541C13.2288 23.3693 13.2399 23.1937 13.227 23.019C13.209 22.47 13.254 22.047 12.462 22.203C12.153 22.263 12.246 21.888 12.234 21.678L12.978 21.693C13.242 21.699 13.404 21.81 13.44 22.083L13.719 24.144Z" fill="#634D32"/>
<path d="M34.077 34.623C33.759 35.091 33.987 35.628 33.993 36.105C33.996 36.435 33.912 36.756 33.936 37.08L33.939 37.077C33.897 37.143 33.861 37.143 33.825 37.071C33.525 35.766 33.357 34.461 33.873 33.075C34.002 33.639 33.84 34.161 34.077 34.623Z" fill="#776548"/>
<path d="M36.513 19.491C36.852 19.965 36.468 20.484 36.615 20.997C36.693 21.27 36.291 21.282 36.042 21.282C35.655 21.282 35.805 20.976 35.862 20.853C36.054 20.442 35.94 20.109 35.706 19.776C35.9469 19.6149 36.2244 19.517 36.513 19.491Z" fill="#644E32"/>
<path d="M9.504 21.273C9.348 21.303 9.141 21.222 9.186 21.549C9.24 21.942 9.216 22.347 9.216 22.746C9.216 22.893 9.27 23.088 9.069 23.148C8.835 23.217 8.838 23.001 8.772 22.869C8.48561 22.3309 8.40764 21.706 8.553 21.114C8.865 21.195 9.216 21.036 9.504 21.273Z" fill="#654F33"/>
<path d="M9.62699 31.902C9.48599 31.659 9.20999 31.434 9.43499 31.116C9.60899 30.873 9.86999 30.954 10.119 30.984C10.269 31.002 10.428 30.96 10.581 30.945C10.812 30.972 11.1 30.87 11.13 31.266C11.16 31.65 10.863 31.614 10.641 31.674C10.491 31.713 10.338 31.737 10.188 31.77C9.86699 31.251 9.85799 32.031 9.62699 31.902Z" fill="#665034"/>
<path d="M33.516 38.427C33.306 38.253 32.829 38.295 32.997 37.812C33.15 37.377 33.441 37.596 33.75 37.587C34.164 37.575 34.56 37.395 34.902 37.77C34.491 38.1 33.978 38.211 33.516 38.427Z" fill="#654F33"/>
<path d="M14.004 36.12C14.223 35.859 14.253 35.58 14.157 35.25C14.094 35.037 14.1 34.785 14.445 34.767C14.817 34.746 14.898 35.004 14.796 35.247C14.616 35.667 15.102 36.207 14.541 36.54L14.004 36.12Z" fill="#644D32"/>
<path d="M8.82301 29.991C8.97601 30.006 9.23101 29.997 9.18601 30.192C9.06001 30.765 9.44101 31.413 8.92501 31.923C8.56801 31.881 8.48701 31.626 8.54101 31.344C8.63101 30.891 8.61301 30.417 8.82301 29.991Z" fill="#634D32"/>
<path d="M40.644 23.892C40.56 23.553 40.827 23.178 40.542 22.86C40.335 22.827 40.38 23.043 40.284 23.112C40.2112 23.1663 40.1233 23.1967 40.0324 23.1988C39.9416 23.201 39.8523 23.1748 39.777 23.124C39.648 23.043 39.669 22.884 39.684 22.752C39.714 22.5 39.921 22.479 40.092 22.521C40.2655 22.5691 40.4493 22.566 40.6211 22.5123C40.793 22.4586 40.9457 22.3564 41.061 22.218C41.079 22.812 40.995 23.385 40.644 23.892Z" fill="#665034"/>
<path d="M13.305 26.046C13.098 25.71 12.888 26.034 12.681 26.043C12.435 26.058 12.222 26.037 12.225 25.71C12.225 25.413 12.402 25.131 12.651 25.26C13.095 25.494 13.458 25.17 13.854 25.227L13.305 26.046Z" fill="#644E32"/>
<path d="M39.702 26.052C39.531 25.956 39.36 26.01 39.183 26.037C38.895 26.082 38.712 26.001 38.712 25.653C38.712 25.329 38.853 25.17 39.156 25.245C39.474 25.323 39.777 25.194 40.086 25.233C40.0274 25.5334 39.8954 25.8148 39.702 26.052Z" fill="#644D31"/>
<path d="M12.204 34.782C12.423 34.683 12.426 34.584 12.276 34.383C12.165 34.233 12.15 33.963 12.369 33.858C12.4511 33.8234 12.5391 33.8054 12.6282 33.8049C12.7173 33.8044 12.8055 33.8214 12.888 33.855C13.119 33.966 13.038 34.176 12.948 34.374C12.777 34.743 13.185 35.067 13.044 35.436L12.204 34.782Z" fill="#644E32"/>
<path d="M8.688 27.261C9.033 27.078 9.30001 27.129 9.20401 27.567C9.09601 28.062 9.498 28.707 8.805 29.046C8.547 28.467 8.718 27.858 8.688 27.261Z" fill="#624C31"/>
<path d="M12.93 26.862C12.549 27.009 12.567 27.456 12.225 27.774V26.547C12.225 26.382 12.252 26.235 12.453 26.196C12.741 26.139 12.981 26.211 13.164 26.448L12.93 26.862Z" fill="#644E32"/>
<path d="M15.927 38.835C16.08 38.673 16.113 38.361 16.458 38.445C16.605 38.481 16.716 38.535 16.719 38.694C16.722 38.922 16.818 39.189 16.443 39.267C16.182 39.321 16.38 39.387 16.467 39.393C16.719 39.417 16.728 39.594 16.737 39.777C16.056 39.816 16.089 39.24 15.927 38.835Z" fill="#654E33"/>
<path d="M10.167 31.899C10.464 32.049 11.076 31.656 11.073 32.223C11.067 32.829 10.455 32.493 10.11 32.583C10.047 32.598 9.978 32.589 9.909 32.589C9.92506 32.3386 10.0148 32.0985 10.167 31.899Z" fill="#644D32"/>
<path d="M16.047 21.81L15.105 23.874C15.015 23.97 14.949 24.096 14.694 24.12C14.949 23.202 15.366 22.434 16.047 21.81Z" fill="#EBE9E7"/>
<path d="M33.051 34.464C32.766 33.984 32.85 33.528 32.847 33.084C32.8443 33.038 32.8514 32.9919 32.8681 32.9489C32.8847 32.9059 32.9104 32.867 32.9434 32.8349C32.9765 32.8027 33.016 32.778 33.0594 32.7625C33.1028 32.747 33.1491 32.741 33.195 32.745C33.474 32.757 33.426 33.006 33.375 33.156C33.237 33.558 33.33 34.011 33.051 34.464Z" fill="#80522E"/>
<path d="M31.89 21.282L30.102 19.761C30.942 19.944 31.548 20.454 32.034 21.135C32.076 21.273 32.016 21.309 31.89 21.282Z" fill="#F2F0EE"/>
<path d="M11.262 21.561C11.2645 21.5221 11.2655 21.483 11.265 21.444C11.559 21.627 11.946 21.435 12.228 21.675C12.003 21.792 12.183 22.17 11.844 22.23C11.259 22.329 11.235 21.975 11.262 21.561Z" fill="#644D31"/>
<path d="M10.188 33.252C10.35 33.153 10.302 32.838 10.584 32.862C10.77 32.877 11.016 32.778 11.097 33.042C11.166 33.258 11.082 33.429 10.857 33.522C10.758 33.561 10.668 33.627 10.575 33.681C10.3997 33.5878 10.2627 33.436 10.188 33.252ZM36.801 32.451C36.756 32.457 36.711 32.46 36.669 32.469C36.387 32.529 36.042 32.802 35.871 32.355C35.685 31.872 36.234 31.965 36.408 31.758C36.567 31.971 36.783 32.154 36.801 32.451Z" fill="#644D32"/>
<path d="M40.086 25.233C39.738 25.077 39.531 24.807 39.714 24.453C39.891 24.114 40.209 24.297 40.473 24.402L40.086 25.233Z" fill="#665034"/>
<path d="M38.454 30.957C38.43 30.771 38.325 30.675 38.136 30.681C37.89 30.687 37.749 30.588 37.764 30.324C37.773 30.18 37.797 30.045 37.965 30.018C38.169 29.988 38.379 29.958 38.451 30.24C38.466 30.3 38.529 30.348 38.568 30.399C38.562 30.591 38.646 30.801 38.454 30.957Z" fill="#654F33"/>
<path d="M11.136 34.077C11.352 33.801 11.673 33.687 11.946 33.864C12.243 34.056 12.06 34.371 11.946 34.632L11.136 34.077Z" fill="#654E32"/>
<path d="M38.04 29.178C38.265 29.055 38.502 29.01 38.547 29.337C38.583 29.592 38.469 29.823 38.154 29.856C37.728 29.901 37.761 29.601 37.758 29.328C37.866 29.304 37.989 29.307 38.04 29.178Z" fill="#654F33"/>
<path d="M13.857 24.96C13.653 25.047 13.428 25.209 13.248 24.978C13.167 24.876 13.173 24.675 13.194 24.528C13.239 24.192 13.524 24.303 13.731 24.279C13.8466 24.486 13.8909 24.7253 13.857 24.96Z" fill="#654E32"/>
<path d="M17.457 35.991C17.3919 35.6594 17.4063 35.317 17.499 34.992C17.544 34.848 17.493 34.557 17.796 34.683C17.958 34.752 18.105 34.899 17.991 35.118C17.844 35.388 17.766 35.7 17.457 35.991Z" fill="#7C502E"/>
<path d="M24.972 39.912L26.247 39.822C26.349 39.816 26.424 39.864 26.439 39.966C26.457 40.098 26.376 40.188 26.256 40.194C25.863 40.212 25.449 40.341 24.972 39.912Z" fill="#C6C6C6"/>
<path d="M34.467 26.58C33.954 26.055 33.57 25.434 33.183 24.816C33.972 25.143 34.242 25.842 34.467 26.58Z" fill="#E9E5E2"/>
<path d="M14.943 36.816C15.156 36.714 15.336 36.42 15.591 36.57C15.951 36.783 15.705 37.176 15.771 37.485L14.943 36.816Z" fill="#644E32"/>
<path d="M33.825 37.071L33.939 37.077C33.738 37.557 33.312 37.425 33.081 37.248C32.805 37.038 33.024 36.738 33.252 36.537C33.531 36.621 33.387 37.155 33.825 37.071Z" fill="#654F33"/>
<path d="M14.01 32.277C13.989 32.547 13.809 32.595 13.581 32.586C13.395 32.577 13.203 32.58 13.194 32.322C13.188 32.064 13.365 32.037 13.56 32.058C13.665 32.067 13.773 32.148 13.869 32.034L14.01 32.277Z" fill="#654E32"/>
<path d="M32.565 34.494C32.022 34.539 31.923 34.317 32.202 33.882C32.31 33.717 32.436 33.561 32.553 33.402L32.565 34.494Z" fill="#604B31"/>
<path d="M15.111 32.583C15.228 32.682 15.354 32.775 15.459 32.886C15.63 33.069 15.948 33.273 15.657 33.537C15.381 33.786 15.285 33.372 15.093 33.279C15.264 33.258 15.351 33.198 15.21 33.03C15.099 32.898 15.081 32.745 15.111 32.583Z" fill="#634C31"/>
<path d="M38.184 32.874C38.148 32.796 38.13 32.673 38.07 32.649C37.833 32.547 37.713 32.397 37.773 32.136C37.848 31.815 38.112 31.929 38.316 31.911C38.271 32.232 38.409 32.577 38.184 32.874Z" fill="#654F33"/>
<path d="M35.847 27.417C35.901 27.042 36.18 27.108 36.402 27.171C36.717 27.258 36.636 27.483 36.519 27.693C36.288 27.627 36.039 27.588 35.847 27.417Z" fill="#654E32"/>
<path d="M21.681 42.165C22.329 41.784 22.674 42.324 23.1 42.483C22.6101 42.4766 22.1268 42.3683 21.681 42.165Z" fill="#F0F0F0"/>
<path d="M33.288 23.613C32.736 23.544 32.424 23.115 32.037 22.794C32.5404 22.9043 32.9856 23.1958 33.288 23.613Z" fill="#E3DFDB"/>
<path d="M31.89 21.282L32.034 21.135C32.31 21.417 32.595 21.69 32.697 22.092C32.3862 21.8672 32.1137 21.5937 31.89 21.282Z" fill="#CABFB8"/>
<path d="M39.222 46.56C38.7671 46.3416 38.4061 45.9668 38.205 45.504C38.052 45.141 38.634 45.105 38.718 44.793C38.748 44.688 38.817 44.595 38.853 44.49C39.006 44.064 39.063 43.611 38.7 43.29C38.355 42.987 37.941 43.083 37.572 43.332C37.464 43.404 37.386 43.491 37.215 43.413C36.786 43.215 36.63 43.548 36.546 43.851C36.294 44.76 36.069 45.678 35.865 46.599C35.817 46.809 35.676 47.151 36.06 47.205C36.378 47.25 36.618 47.082 36.669 46.719C36.723 46.326 36.795 45.933 36.87 45.465C37.41 45.798 37.614 46.332 38.007 46.686C38.289 46.944 38.529 47.262 38.949 47.313C39.216 47.346 39.468 47.298 39.558 47.007C39.642 46.737 39.459 46.674 39.222 46.56ZM37.986 44.556C37.7081 44.8804 37.3441 45.1196 36.936 45.246C37.047 44.754 37.071 44.322 37.428 44.019C37.638 43.842 37.911 43.761 38.103 43.956C38.283 44.136 38.151 44.382 37.986 44.556Z" fill="#1C1C1C"/>
<path d="M17.814 44.166C17.763 43.707 17.544 43.164 17.031 43.23C15.216 43.455 14.481 44.394 14.316 46.299C14.331 47.1 14.661 47.409 15.387 47.292C16.638 47.094 17.958 45.417 17.814 44.166ZM17.025 44.883C16.914 45.507 16.629 46.14 15.933 46.515C15.678 46.653 15.411 46.692 15.174 46.518C14.943 46.353 14.964 46.11 15.018 45.846C15.129 45.312 15.285 44.796 15.657 44.394C15.924 44.106 16.254 43.947 16.686 44.121C17.016 44.256 17.043 44.487 17.025 44.883Z" fill="#1D1D1D"/>
<path d="M18.378 30.498C18.939 29.808 19.359 29.391 20.154 29.547C20.91 29.697 21.696 29.673 22.455 29.814C23.163 29.946 23.709 29.85 24.063 29.166C24.138 29.022 24.216 28.764 24.441 28.869C24.633 28.959 24.54 29.199 24.501 29.364C24.453 29.559 24.408 29.802 24.27 29.919C23.769 30.354 23.775 30.756 24.096 31.326C24.366 31.809 24.462 32.43 24.216 32.973C24.018 33.414 24.342 33.555 24.555 33.738C24.846 33.987 24.99 33.672 25.149 33.501C25.38 33.252 25.584 32.976 25.893 32.808C26.073 32.709 26.262 32.685 26.382 32.859C26.532 33.075 26.28 33.099 26.172 33.183C25.878 33.414 25.71 33.741 25.512 34.041C25.023 34.782 24.633 34.83 23.991 34.194C23.73 33.936 23.484 33.675 22.917 33.645C23.832 32.997 23.805 32.223 23.547 31.401C23.406 30.954 23.163 30.675 22.65 30.609C21.288 30.447 19.941 30.069 18.378 30.498Z" fill="#1A1A1A"/>
<path d="M25.506 28.71C25.671 28.719 25.752 28.854 25.767 28.968C25.884 29.799 26.466 29.955 27.177 30.048C28.2 30.183 29.217 30.195 30.24 30.114C30.408 30.102 30.594 29.985 30.786 30.213C29.733 30.678 28.695 31.05 27.531 30.885C28.719 31.854 29.865 31.332 31.044 30.696C30.354 31.956 29.538 32.247 28.263 31.8C27.705 31.602 27.009 31.65 26.904 30.819C26.892 30.732 26.592 30.684 26.427 30.618C25.596 30.279 25.287 29.637 25.506 28.71Z" fill="#1B1B1B"/>
<path d="M23.442 34.614C23.697 34.641 23.781 34.626 23.829 34.659C24.804 35.343 25.758 34.704 26.718 34.602C26.877 34.584 27.012 34.497 27.12 34.683C27.174 34.779 27.27 34.878 27.207 34.989C27.12 35.139 26.949 35.226 26.799 35.169C26.241 34.95 25.788 35.265 25.314 35.442C24.912 35.592 24.537 35.676 24.156 35.394C23.853 35.169 23.526 35.175 23.193 35.34C23.0923 35.3923 22.9881 35.4375 22.881 35.475C22.527 35.598 22.005 35.697 21.912 35.352C21.825 35.028 22.314 34.944 22.674 34.95C23.016 34.947 23.259 34.587 23.442 34.614Z" fill="#1C1C1C"/>
<path d="M26.61 36.597C25.827 36.342 25.176 36.213 24.423 36.477C23.613 36.762 23.352 37.35 23.181 38.115C22.713 37.551 22.761 36.645 23.274 36.345C24.075 35.877 24.966 35.691 25.89 35.895C26.196 35.964 26.478 36.141 26.61 36.597Z" fill="#1B1B1B"/>
<path d="M23.073 31.371C22.3861 31.4349 21.7153 31.6165 21.09 31.908C20.9619 31.9592 20.8223 31.9748 20.686 31.9531C20.5498 31.9315 20.4219 31.8734 20.316 31.785C20.1724 31.656 19.9998 31.5635 19.8128 31.5155C19.6258 31.4674 19.43 31.4652 19.242 31.509C19.11 31.539 18.942 31.527 18.924 31.353C18.906 31.185 19.08 31.164 19.197 31.107C19.2176 31.0968 19.24 31.0907 19.263 31.089C20.427 31.077 21.594 31.062 22.758 31.059C22.893 31.062 23.016 31.143 23.073 31.371Z" fill="#201F1F"/>
<path d="M16.926 32.298C16.7587 31.9546 16.4922 31.6693 16.161 31.479C16.063 31.4201 15.9792 31.3404 15.9154 31.2456C15.8517 31.1507 15.8095 31.043 15.792 30.93C15.753 30.708 15.705 30.417 15.963 30.336C16.206 30.258 16.323 30.531 16.338 30.717C16.377 31.272 17.13 31.509 16.926 32.298Z" fill="#262524"/>
<path d="M19.548 38.385C19.566 38.562 19.584 38.697 19.593 38.832C19.611 39.099 19.53 39.27 19.215 39.255C18.9 39.237 18.699 39.054 18.801 38.778C18.993 38.274 19.086 37.983 18.372 38.289C18.213 38.358 18.003 38.31 17.952 38.067C17.922 37.92 17.787 37.776 17.922 37.623C18.06 37.464 18.24 37.461 18.42 37.527C18.525 37.566 18.654 37.695 18.714 37.665C19.698 37.173 19.623 37.794 19.548 38.385Z" fill="#654E32"/>
<path d="M16.722 36.171C16.626 36.393 16.656 36.648 16.716 36.918C16.773 37.167 16.686 37.362 16.365 37.35C16.08 37.341 16.014 37.161 16.056 36.942C16.117 36.6827 16.118 36.4128 16.059 36.153C15.996 35.904 16.086 35.712 16.41 35.721C16.698 35.727 16.737 35.904 16.722 36.171Z" fill="#644E32"/>
<path d="M11.64 31.908C11.874 31.905 12.066 31.923 12.084 32.211C12.102 32.52 11.931 32.592 11.664 32.589C11.427 32.586 11.274 32.523 11.274 32.25C11.271 31.98 11.415 31.893 11.64 31.908ZM12.609 33.534C12.387 33.549 12.231 33.477 12.228 33.201C12.225 32.934 12.369 32.853 12.609 32.853C12.87 32.85 13.05 32.907 13.038 33.222C13.026 33.513 12.843 33.54 12.609 33.534ZM11.667 32.859C11.916 32.847 12.078 32.907 12.084 33.186C12.09 33.51 11.886 33.54 11.637 33.54C11.385 33.54 11.265 33.435 11.271 33.177C11.28 32.892 11.457 32.85 11.667 32.859ZM12.48 32.583C12.297 32.589 12.216 32.445 12.225 32.202C12.237 31.914 12.432 31.893 12.645 31.911C12.873 31.926 13.041 32.034 13.011 32.286C12.981 32.532 12.78 32.583 12.48 32.583Z" fill="#654E32"/>
<path d="M15.414 33.816C15.624 33.807 15.759 33.882 15.768 34.116C15.777 34.368 15.678 34.494 15.414 34.488C15.183 34.482 15.093 34.368 15.093 34.149C15.093 33.933 15.183 33.807 15.414 33.816Z" fill="#634C31"/>
<path d="M40.884 15.831C40.842 16.122 40.713 16.383 40.362 16.41C40.032 16.434 39.843 16.212 39.843 15.915C39.84 15.582 40.071 15.375 40.404 15.351C40.701 15.333 40.851 15.522 40.884 15.831Z" fill="#242424"/>
<path d="M37.674 22.869C37.449 23.007 37.407 23.193 37.461 23.445C37.566 23.937 37.479 24.27 36.846 24.105C36.723 24.075 36.579 24.138 36.447 24.132C36.219 24.12 35.913 24.258 35.859 23.868C35.829 23.655 35.865 23.448 36.096 23.361C36.504 23.208 36.495 23.589 36.663 23.874C37.113 23.226 36.723 22.581 36.801 21.981C36.828 21.777 36.786 21.54 37.035 21.477C37.14 21.45 37.317 21.528 37.392 21.615C37.467 21.702 37.515 21.891 37.473 21.99C37.227 22.548 37.512 22.62 37.947 22.506C38.406 22.386 38.532 22.587 38.427 22.977C38.352 23.256 38.46 23.514 38.445 23.781C38.433 23.991 38.37 24.126 38.133 24.135C37.872 24.144 37.77 24.03 37.758 23.775C37.746 23.478 37.938 23.157 37.674 22.869Z" fill="#644E32"/>
<path d="M39.852 24.126C39.648 24.015 39.414 24.078 39.168 24.129C38.865 24.189 38.712 24.057 38.712 23.724C38.712 23.376 38.898 23.271 39.183 23.343C39.4209 23.399 39.6686 23.3979 39.906 23.34C40.209 23.274 40.359 23.415 40.359 23.745C40.359 24.09 40.185 24.171 39.852 24.126Z" fill="#665034"/>
<path d="M38.445 20.736V21.012C38.427 21.261 38.247 21.324 38.061 21.273C37.788 21.195 37.545 21.141 37.26 21.264C37.083 21.339 36.843 21.309 36.813 21.006C36.786 20.712 36.939 20.523 37.203 20.616C37.617 20.757 38.061 20.418 38.445 20.736Z" fill="#644E32"/>
<path d="M36.66 24.651C36.663 24.921 36.537 25.068 36.264 25.089C35.994 25.11 35.841 25.014 35.847 24.717C35.85 24.468 35.883 24.273 36.201 24.279C36.459 24.285 36.63 24.378 36.66 24.651Z" fill="#654E32"/>
<path d="M36.66 22.749C36.651 23.043 36.507 23.169 36.24 23.184C35.949 23.202 35.847 23.064 35.847 22.785C35.847 22.518 35.922 22.359 36.225 22.371C36.489 22.386 36.642 22.503 36.66 22.749Z" fill="#644D31"/>
<path d="M35.346 25.092C35.133 25.08 34.905 25.032 34.953 24.765C34.989 24.573 34.989 24.282 35.319 24.291C35.601 24.3 35.7 24.474 35.709 24.732C35.718 24.987 35.604 25.107 35.346 25.092Z" fill="#654E32"/>
<path d="M36.642 21.996C36.621 22.155 36.435 22.236 36.177 22.23C35.949 22.227 35.856 22.113 35.853 21.891C35.85 21.558 36.072 21.546 36.315 21.552C36.522 21.558 36.672 21.624 36.642 21.996ZM35.451 23.373C35.673 23.43 35.718 23.595 35.703 23.781C35.688 23.982 35.577 24.129 35.367 24.111C35.154 24.093 35.172 23.907 35.175 23.751C35.178 23.565 35.229 23.403 35.451 23.373Z" fill="#644E32"/>
<path d="M8.96699 18.891C8.94899 19.383 8.75699 19.725 8.29799 19.71C7.83599 19.698 7.65599 19.326 7.66499 18.906C7.67399 18.492 7.82099 18.15 8.33099 18.159C8.86199 18.168 8.90999 18.558 8.96699 18.891Z" fill="#1D1D1D"/>
<path d="M9.261 24.342C9.42 24.249 9.414 24.171 9.396 24.078C9.342 23.784 9.252 23.475 9.735 23.457C10.248 23.439 10.191 23.751 10.14 24.087C10.119 24.216 10.164 24.351 10.164 24.483C10.164 24.678 10.257 24.924 10.044 25.038C9.94521 25.0974 9.82852 25.1198 9.71476 25.1011C9.60101 25.0824 9.4976 25.0239 9.423 24.936C9.393 24.903 9.369 24.843 9.336 24.84C9.162 24.825 9.006 25.323 8.877 24.954C8.742 24.57 8.829 24.111 8.823 23.685C8.82125 23.6392 8.83703 23.5944 8.86714 23.5599C8.89724 23.5253 8.93939 23.5035 8.985 23.499C9.123 23.481 9.192 23.571 9.207 23.694C9.231 23.901 9.243 24.108 9.261 24.342ZM11.31 26.952C11.16 26.859 11.013 26.946 10.86 26.976C10.581 27.033 10.353 26.961 10.323 26.634C10.293 26.322 10.491 26.127 10.773 26.196C11.322 26.328 11.358 26.088 11.274 25.659C11.241 25.491 11.25 25.281 11.499 25.242C11.679 25.215 11.871 25.212 11.994 25.377C12.111 25.533 12.132 25.725 12.009 25.878C11.883 26.034 11.793 26.058 12 26.295C12.276 26.613 11.844 27.018 11.31 26.952Z" fill="#654E32"/>
<path d="M10.293 25.995C10.08 26.013 9.924 26.043 9.768 26.04C9.492 26.037 9.351 25.881 9.366 25.608C9.378 25.362 9.528 25.248 9.765 25.236C10.029 25.224 10.29 25.302 10.566 25.245C10.875 25.179 11.151 25.224 11.136 25.674C11.121 26.1 10.839 26.052 10.569 26.043C10.458 26.037 10.347 26.004 10.293 25.995ZM10.113 27.039C10.134 27.195 10.167 27.33 10.17 27.465C10.182 27.759 10.065 27.954 9.741 27.942C9.453 27.933 9.357 27.744 9.354 27.486C9.354 27.264 9.429 27.051 9.375 26.817C9.306 26.508 9.357 26.211 9.78 26.19C10.272 26.163 10.167 26.517 10.161 26.799C10.161 26.886 10.128 26.973 10.113 27.039ZM11.331 24.207C11.313 24.126 11.286 24.039 11.28 23.949C11.259 23.724 11.235 23.487 11.493 23.37C11.643 23.301 11.808 23.304 11.937 23.418C12.132 23.589 12.141 23.832 12.03 24.03C11.943 24.186 11.904 24.282 12.009 24.441C12.129 24.624 12.123 24.831 11.952 24.99C11.805 25.128 11.616 25.125 11.445 25.062C11.184 24.969 11.28 24.729 11.274 24.54C11.271 24.432 11.31 24.321 11.331 24.207ZM9.777 23.184C9.504 23.172 9.249 22.941 9.384 22.776C9.729 22.353 8.937 21.729 9.663 21.45C9.837 21.384 10.098 21.513 10.113 21.666C10.161 22.122 10.152 22.59 10.125 23.052C10.116 23.205 9.912 23.178 9.777 23.184Z" fill="#654E32"/>
<path d="M10.17 29.43C10.194 29.706 10.107 29.874 9.795 29.859C9.525 29.844 9.37799 29.718 9.35699 29.445C9.33599 29.151 9.47099 29.04 9.75899 29.04C10.035 29.043 10.197 29.133 10.17 29.43Z" fill="#644E32"/>
<path d="M11.127 23.82C11.151 24.078 10.968 24.144 10.707 24.144C10.476 24.141 10.314 24.084 10.314 23.814C10.314 23.529 10.416 23.331 10.734 23.337C11.013 23.34 11.121 23.511 11.127 23.82Z" fill="#654E32"/>
<path d="M10.806 28.092C11.067 28.068 11.136 28.248 11.13 28.512C11.127 28.74 11.073 28.905 10.8 28.905C10.512 28.905 10.317 28.806 10.323 28.485C10.326 28.209 10.5 28.098 10.806 28.092Z" fill="#644D31"/>
<path d="M12.555 23.19C12.33 23.211 12.219 23.076 12.219 22.794C12.222 22.533 12.288 22.362 12.594 22.374C12.855 22.386 13.023 22.491 13.032 22.767C13.038 23.043 12.885 23.172 12.555 23.19ZM13.035 24.627C13.032 24.936 12.894 25.077 12.624 25.089C12.39 25.101 12.225 25.044 12.225 24.768C12.225 24.516 12.297 24.318 12.582 24.291C12.849 24.264 13.002 24.396 13.035 24.627ZM11.124 27.519C11.112 27.807 10.974 27.954 10.701 27.942C10.419 27.933 10.32 27.756 10.311 27.495C10.305 27.237 10.425 27.132 10.68 27.138C10.944 27.147 11.103 27.261 11.124 27.519ZM12.081 27.504C12.078 27.786 11.952 27.945 11.673 27.942C11.397 27.939 11.28 27.777 11.271 27.513C11.262 27.264 11.355 27.132 11.619 27.138C11.88 27.144 12.048 27.243 12.081 27.504Z" fill="#654E32"/>
<path d="M12.597 24.138C12.339 24.156 12.219 24.042 12.225 23.784C12.231 23.523 12.33 23.346 12.612 23.334C12.885 23.325 13.035 23.466 13.032 23.742C13.032 24.027 12.852 24.129 12.597 24.138Z" fill="#644E32"/>
<path d="M11.667 22.38C11.931 22.386 12.081 22.518 12.075 22.794C12.069 23.076 11.895 23.178 11.634 23.187C11.382 23.193 11.262 23.088 11.268 22.83C11.277 22.569 11.379 22.401 11.667 22.38ZM11.133 24.774C11.148 24.942 11.067 25.095 10.797 25.095C10.542 25.095 10.347 25.017 10.326 24.732C10.302 24.462 10.428 24.297 10.707 24.288C10.983 24.279 11.115 24.435 11.133 24.774Z" fill="#654E32"/>
<path d="M10.17 28.476C10.149 28.788 9.99299 28.917 9.72299 28.896C9.47999 28.878 9.35999 28.728 9.36599 28.491C9.37499 28.212 9.53699 28.086 9.80699 28.101C10.056 28.116 10.158 28.275 10.17 28.476ZM9.86699 30.771C9.66599 30.675 9.35999 30.72 9.35699 30.357C9.35699 30.102 9.468 29.994 9.717 29.994C9.95699 29.994 10.176 30.006 10.17 30.33C10.17 30.546 10.134 30.735 9.86699 30.771Z" fill="#644E32"/>
<path d="M10.71 29.853C10.44 29.838 10.305 29.685 10.323 29.415C10.338 29.172 10.485 29.052 10.725 29.055C11.007 29.061 11.136 29.22 11.118 29.49C11.106 29.733 10.956 29.847 10.71 29.853Z" fill="#654E32"/>
<path d="M36.144 34.764C36.441 34.77 36.633 34.842 36.642 35.091C36.651 35.34 36.474 35.43 36.246 35.442C36.015 35.454 35.853 35.391 35.853 35.118C35.85 34.863 35.961 34.743 36.144 34.764ZM35.427 34.485C35.175 34.497 35.043 34.422 35.034 34.185C35.025 33.933 35.124 33.807 35.388 33.813C35.619 33.819 35.712 33.933 35.709 34.152C35.706 34.365 35.628 34.5 35.427 34.485ZM35.334 34.767C35.532 34.758 35.694 34.8 35.706 35.043C35.715 35.232 35.709 35.415 35.454 35.43C35.187 35.448 35.112 35.244 35.064 35.049C35.016 34.848 35.148 34.77 35.334 34.767ZM36.954 34.74C37.089 35.028 37.14 35.205 36.921 35.409C36.771 35.193 36.762 35.019 36.954 34.74Z" fill="#654F33"/>
<path d="M32.841 37.974C32.859 38.202 32.73 38.313 32.475 38.304C32.208 38.295 32.031 38.184 32.04 37.899C32.049 37.605 32.283 37.518 32.511 37.515C32.76 37.509 32.841 37.71 32.841 37.974ZM38.442 28.524C38.412 28.638 38.496 28.896 38.244 28.827C38.046 28.773 37.806 28.656 37.779 28.392C37.755 28.149 37.917 28.092 38.127 28.092C38.415 28.095 38.448 28.281 38.442 28.524Z" fill="#654E32"/>
</svg>
