<svg width="48" height="48" viewBox="0 0 48 48" fill="none" xmlns="http://www.w3.org/2000/svg">
<path d="M13.2309 31.818C12.2048 31.818 11.2743 30.979 11.2743 29.9615C11.2743 28.9439 12.1148 28.1005 13.2321 28.1005C14.3538 28.1005 15.1977 28.9395 15.1977 29.9604C15.1977 30.9813 14.265 31.8169 13.2399 31.8169L13.2309 31.818ZM37.2519 21.6909C37.0493 20.205 36.1267 18.9954 34.9115 18.0666L34.439 17.6926L34.0575 18.1565C33.3161 18.9954 33.0224 20.4824 33.1124 21.5932C33.2024 22.4344 33.4725 23.27 33.9439 23.9203C33.5625 24.1146 33.0922 24.2943 32.7287 24.4852C31.8736 24.7648 31.0421 24.8592 30.2084 24.8592H6.14472L6.0547 25.4129C5.86863 27.223 6.15912 29.0503 6.89744 30.714L7.26312 31.3654V31.4552C9.51343 35.1738 13.519 36.8462 17.8812 36.8462C26.2737 36.8462 33.1563 33.2219 36.4192 25.4163C38.557 25.5095 40.7162 24.9524 41.73 22.9061L42 22.4423L41.5499 22.1626C40.3348 21.4225 38.6695 21.3236 37.2744 21.6988L37.2473 21.7021L37.2519 21.6909ZM25.2386 20.205H21.5965V23.8293H25.242V20.2028L25.2386 20.2073V20.205ZM25.2386 15.6486H21.5965V19.2728H25.242V15.653L25.2386 15.6486ZM25.2386 11H21.5965V14.6243H25.242V11H25.2386ZM29.6942 20.205H26.0723V23.8293H29.7032V20.2028L29.6931 20.2073L29.6942 20.205ZM16.1946 20.205H12.575V23.8293H16.2081V20.2028L16.1935 20.2073L16.1946 20.205ZM20.7402 20.205H17.1397V23.8293H20.7616V20.2028L20.7391 20.2073L20.7402 20.205ZM11.694 20.205H8.09911V23.8293H11.7412V20.2028L11.6962 20.2073L11.694 20.205ZM20.7402 15.6486H17.1397V19.2728H20.7616V15.653L20.7391 15.6486H20.7402ZM16.1721 15.6486H12.5806V19.2728H16.2002V15.653L16.1766 15.6486H16.1721Z" fill="#1488C6"/>
</svg>
