<svg width="48" height="48" viewBox="0 0 48 48" fill="none" xmlns="http://www.w3.org/2000/svg">
<path d="M39.6068 39.5365H8.39325C7.51477 39.5365 6.00385 38.0537 6.00385 37.2118V13.2465C6.00385 12.4085 6.71311 11.7276 7.58742 11.7276H40.4164C41.2949 11.7276 42 12.4047 42 13.2465V37.2156C42 38.0497 40.4811 39.5365 39.6068 39.5365Z" fill="#3377E5"/>
<path d="M40.1568 17.9799H7.8381C6.81862 17.9799 6 17.7731 6 17.5159V11.2314C6 10.9754 6.82324 10.7674 7.8381 10.7674H40.1614C41.1814 10.7674 42 10.9743 42 11.2314V17.5159C42.0044 17.7706 41.1763 17.9799 40.1568 17.9799Z" fill="#E4FDFF" fill-opacity="0.2"/>
<path d="M25.8553 18.2507H6V10.5189C6 9.68083 6.70909 9 7.58358 9H21.7539C22.4548 9 23.0713 9.43516 23.2728 10.0799L25.8553 18.2507Z" fill="#68A1FF"/>
<path d="M37.9187 37.6549H10.0815C9.20339 37.6549 8.49829 36.9779 8.49829 36.136V15.5632C8.49829 14.7252 9.20738 14.0443 10.0815 14.0443H37.9226C38.8011 14.0443 39.5062 14.7214 39.5062 15.5632V36.136C39.51 36.9699 38.7968 37.6549 37.9187 37.6549Z" fill="white"/>
<path d="M39.6068 39.5365H8.39325C7.51477 39.5365 6.00385 38.7185 6.00385 37.2118V18.4117C6.00385 17.5737 6.71311 16.8928 7.58742 16.8928H40.4164C41.2949 16.8928 42 17.5699 42 18.4117V37.2155C42 39.0691 40.4811 39.5365 39.6068 39.5365Z" fill="#3A84FF"/>
<path opacity="0.304863" d="M32.3141 39.5365L19.6225 22.2677L9.38855 22.7069L13.2927 27.6909L9.38855 27.8601L18.5226 39.5284L32.3141 39.5365L32.3141 39.5365Z" fill="#3377E5"/>
<path d="M18.8286 23.1622H10.1138C9.6786 23.1622 9.32007 22.8196 9.32007 22.4047C9.32007 21.9857 9.67461 21.6472 10.1138 21.6472H18.8286C19.2637 21.6472 19.6224 21.9898 19.6224 22.4047C19.6224 22.8237 19.2637 23.1622 18.8286 23.1622ZM18.8286 28.3154H10.1138C9.6786 28.3154 9.32007 27.9728 9.32007 27.558C9.32007 27.1389 9.67461 26.8005 10.1138 26.8005H18.8286C19.2637 26.8005 19.6224 27.1429 19.6224 27.558C19.6224 27.977 19.2637 28.3154 18.8286 28.3154Z" fill="#68A1FF"/>
</svg>
