<svg width="48" height="48" viewBox="0 0 48 48" fill="none" xmlns="http://www.w3.org/2000/svg">
<path d="M6.11429 22.1413L16.9856 11.252L20.1628 14.4491C19.7115 16.0486 20.4443 17.7959 21.9121 18.6426V29.0627C20.7838 29.7017 20.031 30.9238 20.031 32.3157C20.031 34.3925 21.7144 36.0779 23.7932 36.0779C25.87 36.0779 27.5554 34.3945 27.5554 32.3157C27.5554 30.9238 26.8026 29.7017 25.6743 29.0627V19.9227L29.5684 23.8527C29.4346 24.1342 29.4346 24.4537 29.4346 24.7932C29.4346 26.87 31.118 28.5554 33.1968 28.5554C35.2736 28.5554 36.959 26.872 36.959 24.7932C36.959 22.7164 35.2756 21.031 33.1968 21.031C32.8573 21.031 32.5378 21.031 32.2562 21.1628L27.4237 16.3302C27.9069 14.5289 26.9823 12.6478 25.261 11.9289C24.4522 11.6274 23.6055 11.5535 22.8527 11.7592L19.6556 8.58204L21.1413 7.11429C22.609 5.62857 24.9774 5.62857 26.4452 7.11429L41.4721 22.1413C42.9579 23.609 42.9579 25.9774 41.4721 27.4452L26.4452 42.4721C24.9774 43.9579 22.609 43.9579 21.1413 42.4721L6.11429 27.4452C4.62857 25.9774 4.62857 23.609 6.11429 22.1413Z" fill="#E64A19"/>
</svg>
