<svg width="48" height="48" viewBox="0 0 48 48" fill="none" xmlns="http://www.w3.org/2000/svg">
<path d="M23.6529 47.8292C23.3064 47.5892 22.8967 46.7925 22.6633 45.9063C22.4557 45.1174 22.3769 43.0389 22.516 42.0191C22.5677 41.6399 22.5972 41.3169 22.5813 41.301C22.5656 41.2853 22.2433 41.235 21.8652 41.1893C19.6872 40.9268 17.3622 40.1865 15.5924 39.1917C15.217 38.9807 14.8653 38.8081 14.811 38.8081C14.7566 38.8081 14.5655 39.0906 14.3861 39.436C13.5522 41.0415 12.0958 42.6355 10.9888 43.1546C10.5846 43.3439 10.0462 43.3902 9.79702 43.2565C9.42144 43.0553 9.3101 42.2582 9.53453 41.3757C9.68811 40.7713 10.3054 39.4999 10.8059 38.7568C11.027 38.4287 11.4635 37.8723 11.7763 37.5203L12.3447 36.8803L12.0484 36.5972C11.2675 35.8512 9.8012 34.1257 9.8012 33.9529C9.8012 33.8909 11.8019 32.5012 11.9477 32.4618C12.0218 32.4417 12.2011 32.6192 12.4436 32.9525C12.9695 33.6754 14.3753 35.0655 15.2023 35.6803C21.5082 40.3681 30.3962 39.1906 35.1816 33.0337C35.4359 32.7064 35.6836 32.4389 35.7319 32.4389C35.8279 32.4389 37.8079 33.7813 37.8768 33.893C37.9386 33.993 37.0731 35.1147 36.3338 35.8929C35.9831 36.2622 35.6961 36.5944 35.6967 36.6311C35.697 36.6677 35.9728 36.988 36.3092 37.3428C37.3773 38.469 38.4286 40.2271 38.7206 41.3758C38.9449 42.2582 38.8335 43.0553 38.458 43.2567C38.377 43.3001 38.1618 43.3352 37.9799 43.3349C36.8291 43.3322 34.9204 41.4839 33.7874 39.2751C33.5692 38.8493 33.3582 38.5011 33.3188 38.5011C33.2794 38.5011 33.057 38.6229 32.8249 38.7716C31.1792 39.8263 28.7219 40.736 26.5962 41.0778C26.1442 41.1504 25.7372 41.2385 25.6916 41.2737C25.6328 41.3191 25.6405 41.532 25.7178 42.0104C25.8559 42.8638 25.8026 44.8905 25.6206 45.7101C25.4327 46.556 25.1442 47.2117 24.7881 47.6009C24.3792 48.0484 24.0613 48.1121 23.6529 47.8292ZM1.02674 30.5794C1.00632 30.5258 0.998467 27.7193 1.00929 24.343L1.02918 18.204H4.24703L4.26727 20.464C4.28263 22.1546 4.31143 22.7389 4.38228 22.784C4.43429 22.8171 5.23971 22.8447 6.17201 22.8454C7.49262 22.8463 7.88599 22.8239 7.95214 22.7442C8.00868 22.6759 8.04359 21.9035 8.0572 20.423L8.07762 18.204H11.2951V30.6354H8.07745L8.05703 28.2631C8.04341 26.6688 8.00903 25.8571 7.95196 25.7884C7.88582 25.7084 7.49035 25.6857 6.16206 25.6857C4.83377 25.6857 4.4383 25.7084 4.37216 25.7882C4.31527 25.8571 4.28071 26.6688 4.2671 28.2629L4.24685 30.6354L2.65521 30.6561C1.42378 30.6722 1.05536 30.6548 1.02674 30.5794ZM14.0503 30.5785C14.0301 30.5254 14.0224 27.7193 14.0332 24.3428L14.0531 18.2038H22.0207L22.0417 19.5647L22.0626 20.9258L19.705 20.9461L17.3476 20.9663L17.3257 21.8812C17.3097 22.5613 17.3292 22.8119 17.4025 22.8585C17.4565 22.8927 18.372 22.9213 19.4369 22.922L21.3731 22.9232L21.3521 24.2852L21.3312 25.6474L19.3394 25.6857L17.3476 25.7241V27.8727L19.7991 27.9111L22.2506 27.9495V30.6354L18.1689 30.6551C14.9444 30.6708 14.0794 30.6549 14.0503 30.5785ZM24.7759 30.5785C24.7557 30.5254 24.748 27.7193 24.7588 24.3428L24.7787 18.2038H27.996L28.0344 23.0382L28.0728 27.8727L30.4093 27.9111L32.746 27.9495V30.6354L28.7795 30.6551C25.6468 30.6708 24.8047 30.6549 24.7759 30.5785ZM34.9645 30.5778C34.9446 30.5251 34.937 27.7193 34.948 24.343L34.9677 18.204L36.6532 18.1851C37.5801 18.1747 38.3766 18.1921 38.4232 18.2235C38.5367 18.3003 40.2383 22.9348 40.6135 24.1894C41.0041 25.4948 40.9737 25.4175 41.062 25.329C41.1035 25.2875 41.2847 24.7723 41.4648 24.1842C41.8613 22.8883 43.4301 18.3959 43.5336 18.2602C43.5903 18.1855 44.0034 18.1677 45.3015 18.1834L46.9956 18.204V30.6356L45.561 30.6565L44.1264 30.6773L44.0757 30.4743C43.9699 30.0525 44.1118 25.6114 44.2715 24.343C44.5228 22.3468 44.4844 22.3159 43.8922 24.0358C43.2517 25.896 41.9781 29.3162 41.8564 29.5036C41.7521 29.6642 41.6894 29.6762 40.951 29.6762C40.4074 29.6762 40.1342 29.646 40.0829 29.5802C39.988 29.4587 38.4241 25.2023 37.9967 23.9025C37.6951 22.9855 37.5311 22.6552 37.5365 22.9763C37.5379 23.0526 37.6082 23.6848 37.693 24.3812C37.8517 25.6856 37.9918 30.0584 37.8881 30.472L37.8377 30.6736H36.4194C35.3555 30.6736 34.9919 30.6497 34.9645 30.5778ZM35.9782 16.4045C35.6762 15.8926 34.9171 14.9373 34.2747 14.2613C32.2057 12.0836 29.714 10.7074 26.6554 10.0522C25.7796 9.86459 25.5471 9.84679 23.9356 9.84313C22.0384 9.83911 21.6206 9.88623 20.1511 10.2711C18.1619 10.792 16.3482 11.7165 14.7423 13.0278C13.9702 13.6584 12.7405 14.9552 12.2152 15.6929C11.8915 16.1474 11.7286 16.3156 11.6435 16.2832C11.3642 16.1771 9.49457 14.9202 9.49562 14.8394C9.49823 14.6577 10.7576 13.0781 11.6122 12.1849L12.4962 11.2606L11.9115 10.6267C10.8435 9.46843 9.81935 7.74223 9.53401 6.61952C9.30975 5.73696 9.42109 4.93992 9.79667 4.73852C9.87764 4.69507 10.0928 4.65999 10.2747 4.66034C11.4255 4.66295 13.3344 6.51132 14.4672 8.72008C14.6854 9.14591 14.8911 9.49408 14.9243 9.49408C14.9575 9.49408 15.2568 9.33858 15.5896 9.14853C17.3006 8.1719 20.0476 7.30156 21.9178 7.14379C22.2406 7.11656 22.5452 7.06927 22.5946 7.03855C22.6625 6.99667 22.6525 6.79073 22.5537 6.19945C22.3719 5.10973 22.4282 2.97567 22.6625 2.0891C23.0335 0.684016 23.6293 -0.10308 24.236 0.010883C24.8016 0.117342 25.3503 1.04057 25.6358 2.36659C25.822 3.23204 25.8269 5.66593 25.644 6.46315C25.5761 6.75862 25.5433 7.02407 25.5709 7.05304C25.5984 7.08218 25.9658 7.16019 26.3871 7.22651C28.8287 7.61064 30.6804 8.29197 32.9497 9.64173C33.104 9.73335 33.2493 9.77768 33.2725 9.73998C33.2958 9.70229 33.505 9.29076 33.7377 8.82549C34.6356 7.02895 36.081 5.39647 37.2658 4.84079C37.67 4.65143 38.2084 4.60519 38.4576 4.73887C38.8332 4.94009 38.9445 5.73714 38.7201 6.6197C38.5564 7.26404 37.9264 8.53648 37.362 9.36319C37.0984 9.74906 36.5632 10.3878 36.1726 10.7826L35.4626 11.5004L36.1612 12.243C36.8674 12.9938 38.1147 14.5861 38.3431 15.0284C38.4464 15.2285 38.4499 15.2844 38.3644 15.3633C38.1892 15.5247 36.3054 16.6308 36.2056 16.6308C36.1537 16.6308 36.0515 16.5289 35.9782 16.4045Z" fill="#00ACC1"/>
</svg>
