<svg width="48" height="48" viewBox="0 0 48 48" xmlns="http://www.w3.org/2000/svg">
<path d="M21.0998 11.0951C21.0455 9.9545 21.9556 9 23.0975 9H24.9025C26.0444 9 26.9545 9.9545 26.9002 11.0951L26.0907 28.0951C26.0399 29.1615 25.1606 30 24.093 30H23.907C22.8394 30 21.9601 29.1615 21.9093 28.0951L21.0998 11.0951Z"/>
<path d="M24 38C25.6569 38 27 36.6569 27 35C27 33.3431 25.6569 32 24 32C22.3431 32 21 33.3431 21 35C21 36.6569 22.3431 38 24 38Z"/>
<path fill-rule="evenodd" clip-rule="evenodd" d="M24 48C37.2548 48 48 37.2548 48 24C48 10.7452 37.2548 0 24 0C10.7452 0 0 10.7452 0 24C0 37.2548 10.7452 48 24 48ZM24 43C34.4934 43 43 34.4934 43 24C43 13.5066 34.4934 5 24 5C13.5066 5 5 13.5066 5 24C5 34.4934 13.5066 43 24 43Z"/>
</svg>
