<svg width="48" height="48" viewBox="0 0 48 48" fill="none" xmlns="http://www.w3.org/2000/svg">
<path fill-rule="evenodd" clip-rule="evenodd" d="M4.44226 20.6935V19.0689C4.44226 19.0052 4.33729 18.819 4.20661 18.5872C3.8613 17.9747 3.33645 17.0438 4.09412 17.2121C5.13854 17.4442 5.0225 20.4614 5.0225 20.4614L5.37064 20.2293C5.37064 20.2293 6.64715 19.8812 6.87925 20.2293C7.22739 21.2738 10.4767 21.1577 10.4767 20.9256C10.4767 20.8424 10.417 20.5203 10.3457 20.136L10.3457 20.136C10.2184 19.4489 10.0541 18.5631 10.1286 18.4886C11.8693 16.7479 12.6816 12.8023 12.4495 13.0344C12.2508 13.4409 9.20019 14.7751 8.96809 14.7751C8.94106 14.7751 8.91087 14.7767 8.87864 14.7784L8.87861 14.7784C8.63413 14.7912 8.27181 14.8101 8.27181 14.1949C8.5039 7.92838 6.87925 7 6.87925 7C5.25459 8.39256 3.39784 13.6147 3.39784 13.6147C3.14097 13.6904 2.85228 13.5673 2.52409 13.4273C2.396 13.3727 2.2619 13.3155 2.12132 13.2665C0.844809 12.6863 -0.199613 13.6147 0.0324812 13.6147C0.204816 13.6147 0.308218 14.0362 0.401225 14.4153C0.433476 14.5468 0.464477 14.6732 0.496669 14.7751C0.96554 16.2599 1.90801 17.2184 2.40276 17.7216C2.64272 17.9657 2.77736 18.1026 2.70156 18.1405C2.46947 18.1405 2.00528 18.2565 1.88923 18.6047C1.65714 18.9528 1.77318 19.8812 2.58551 20.4614C3.16575 21.1577 4.44226 20.6935 4.44226 20.6935ZM4.7904 23.7108C4.90645 23.4787 5.0225 23.3626 5.13854 23.2466L5.83483 22.6663L5.37064 22.0861H2.81761V26.3798L4.09412 28.1205H4.32622V26.2638V26.1477L4.67436 25.7996L5.0225 25.5675L4.90645 25.3354H4.7904L4.67436 25.2194L4.55831 25.1033V24.1749C4.7904 24.0589 4.7904 23.7108 4.7904 23.7108ZM3.28179 29.9773L3.74598 29.7452L4.21017 29.5131L4.44226 29.0489V28.4687H4.09412C3.97808 28.4687 2.81761 27.4243 2.81761 27.4243V29.8612L3.28179 29.9773ZM3.51389 34.9673V31.3698L3.74598 31.1378L4.55831 30.7896V29.8612L2.81761 30.5575V36.1278H3.86203V35.1994L3.51389 34.9673ZM6.18299 30.6735C6.18299 30.6735 7.45951 31.4859 7.57556 32.1821C7.57556 32.2143 7.58222 32.273 7.59125 32.3526C7.64746 32.8483 7.79523 34.1513 6.99532 34.8512C6.64718 35.0833 4.79043 35.1994 4.44229 32.9945C4.44229 32.5303 4.55834 31.4859 4.79043 31.1377L3.86206 31.718V34.8512L4.09415 35.0833V36.1277H8.96812V30.5575L7.6916 29.1649C7.6916 29.281 7.45951 30.4414 6.18299 30.6735ZM9.08416 28.1205C8.61998 28.7007 8.03974 28.8168 8.03974 28.8168C8.27184 28.8168 9.08416 29.7452 9.08416 29.7452V28.1205ZM47.5044 24.3519C47.5919 24.3707 47.6683 24.3872 47.7278 24.407C48.2768 24.59 47.8936 24.7832 47.4708 24.9964C47.2576 25.1039 47.0343 25.2165 46.9154 25.3354C46.7031 25.5477 46.7822 25.8572 46.886 26.2638C46.8957 26.3016 46.9056 26.3403 46.9154 26.3798C47.2636 27.8884 46.9154 28.8168 46.9154 28.8168C45.983 27.6771 45.143 27.2774 44.6433 27.0397C44.5833 27.0111 44.5282 26.9849 44.4785 26.96C42.844 26.3062 42.9751 27.5468 43.057 28.3222C43.0727 28.4711 43.0866 28.6029 43.0859 28.7007C43.0863 28.7217 43.0867 28.7447 43.087 28.7691C43.0907 29.0119 43.0965 29.397 43.2019 29.397C43.2793 29.397 43.3825 29.2939 43.5157 29.1606C43.7822 28.8941 44.169 28.5073 44.7106 28.5847C45.5229 28.7007 45.6389 29.0489 45.755 29.397C45.8147 29.5762 46.3664 30.0629 46.872 30.5089C47.3485 30.9293 47.7841 31.3135 47.7278 31.3698C47.6117 31.4859 46.2192 31.834 45.6389 31.834C45.0587 31.834 44.8266 31.9501 44.7106 32.0661C44.4785 32.1821 43.7822 34.9673 43.7822 34.9673C43.7822 35.0833 43.6661 35.4315 43.5501 35.4315C43.434 35.4315 43.318 35.1994 43.318 35.1994C43.318 35.1994 42.6217 32.7624 42.3896 32.1821C42.1575 31.6019 41.8094 31.834 41.8094 31.834C41.8094 31.834 40.3008 32.1821 39.8366 32.2982C39.3724 32.4142 39.4884 31.9501 39.4884 31.9501L40.881 30.0933C40.765 29.397 41.1131 28.7007 41.6933 28.7007C42.3896 28.7007 42.9698 29.5131 42.9698 29.5131V29.397C42.8538 28.7007 42.5057 27.8884 42.3896 27.7724C41.9254 26.96 40.9971 26.96 40.9971 26.96L39.8366 29.6291C39.8366 29.6291 36.3552 37.8684 35.3108 39.4931C34.3651 40.9642 32.8485 41.2935 32.2256 41.4288C32.1606 41.4429 32.1053 41.4549 32.0614 41.4659C31.5973 41.5819 30.0888 41.5819 29.2764 41.5819H29.2763C28.464 41.5819 25.5628 41.4659 25.5628 41.4659L24.9826 37.7524C25.3307 37.8684 26.2591 37.9845 26.2591 37.9845H29.0442C30.6689 37.1722 30.901 36.1277 30.901 36.1277L25.5628 25.2193L20.2247 36.1277H14.7705L8.96811 24.291V27.7724H8.61997C8.50392 27.7724 6.41508 29.1649 6.41508 29.1649C6.12976 29.0698 6.15622 28.8968 6.17506 28.7735C6.1792 28.7464 6.18298 28.7217 6.18298 28.7007C6.18298 28.5847 6.76322 28.2366 6.76322 28.2366C6.76322 28.2366 7.69159 27.5403 7.80764 27.3082C7.8911 27.1413 7.85451 26.9743 7.82738 26.8506C7.81679 26.8023 7.80764 26.7605 7.80764 26.7279H7.4595C7.34345 26.7279 6.41508 27.8884 6.41508 27.8884L6.29903 28.0045L6.18298 27.8884L6.64717 27.3082V26.3798L6.41508 26.2638V26.1477C7.08533 26.1477 7.51857 25.5157 7.7148 25.2294C7.7564 25.1687 7.78734 25.1236 7.80764 25.1033C8.15578 24.6391 8.03973 23.7107 8.03973 23.7107H8.38788C8.4596 23.7824 8.53132 23.8098 8.63043 23.8477C8.69169 23.8711 8.76341 23.8985 8.85206 23.9428C8.96811 23.9428 9.08416 23.9718 9.2002 24.0008C9.31625 24.0299 9.4323 24.0589 9.54834 24.0589H10.5928C10.7088 23.9428 10.9409 23.8268 11.173 23.7107L11.173 23.7107C11.4051 23.4786 11.6372 23.3626 11.7532 23.3626C11.8113 23.3626 11.9853 23.3336 12.1594 23.3046C12.3335 23.2755 12.5075 23.2465 12.5656 23.2465H13.3779C13.4939 23.2465 13.61 23.2465 13.8421 23.1305C14.0742 23.0144 14.0742 22.7823 13.8421 22.6663C13.6775 22.584 13.338 22.6184 13.0716 22.6454C12.9622 22.6565 12.8652 22.6663 12.7977 22.6663C12.6617 22.6663 12.5656 22.7061 12.4859 22.7391C12.4296 22.7624 12.3815 22.7823 12.3335 22.7823C12.2754 22.7823 12.1594 22.8404 12.0434 22.8984C11.9273 22.9564 11.8113 23.0144 11.7532 23.0144C11.6952 23.0725 11.4921 23.1595 11.289 23.2465C11.086 23.3336 10.8829 23.4206 10.8249 23.4786C10.5928 23.5947 10.3607 23.7107 10.1286 23.7107H9.31625C9.25823 23.7107 9.17119 23.6527 9.08416 23.5947C8.99712 23.5367 8.91009 23.4786 8.85206 23.4786C8.73602 23.4786 8.38788 23.4786 8.27183 23.3626C7.69159 22.5503 7.4595 22.4342 7.22741 22.4342H6.18298C5.95089 22.4342 5.95089 22.0861 5.95089 22.0861H14.4223L17.5556 30.9056L20.8049 22.0861H30.4368L33.5701 31.1377H33.9182L36.8194 22.0861H41.5773C41.9254 20.9256 42.7378 21.1577 42.7378 21.1577V20.9256C42.7378 20.1133 43.434 20.3454 43.434 20.3454C43.6661 19.533 44.3624 19.1849 44.3624 19.1849L44.4785 20.1133H46.5673C46.5673 20.2293 45.755 20.8096 45.5229 20.9256C45.2908 21.0416 44.8266 21.2737 44.8266 21.3898C44.8266 21.5058 45.6389 22.0861 45.6389 22.0861H43.8982L43.7822 22.4342H43.5501L43.434 21.3898H42.3896C42.0415 21.5058 42.0415 22.0861 42.0415 22.0861H42.9698L42.7378 22.6663C42.7378 22.6663 43.0859 22.6663 43.318 22.7823C43.6661 22.8984 44.0143 23.1305 44.1303 23.3626C44.5945 24.291 44.5945 24.6391 44.5945 24.6391C44.5945 24.6391 44.1303 23.5947 43.6661 23.2465C43.2019 22.8984 42.6217 23.1305 42.6217 23.1305L41.2291 26.4959C42.1575 26.844 42.6217 27.6563 42.6217 27.6563L42.7378 27.5403C42.8538 27.4242 43.0859 26.3798 43.0859 25.9156C43.0859 25.4514 42.7378 25.3354 42.7378 25.3354C42.6432 24.9573 42.8567 24.8102 43.19 24.5805C43.2659 24.5282 43.3479 24.4716 43.434 24.407C43.8982 24.1749 44.7106 24.7551 44.7106 24.7551V24.291C44.7106 24.1749 44.7106 24.0589 44.8266 23.9428C45.1747 23.3626 45.9871 22.8984 46.1031 23.2465C46.3918 24.1125 47.0794 24.2605 47.5044 24.3519Z" fill="#649337"/>
</svg>
