<svg t="1665640495576" class="icon" viewBox="0 0 1024 1024" version="1.1" xmlns="http://www.w3.org/2000/svg" p-id="1037" width="200" height="200"><path d="M512 0c282.703267 0 511.882349 229.179082 511.882349 511.882349S794.703267 1023.764698 512 1023.764698h5.631879a73.278428 73.278428 0 0 1-11.733081-0.021332C226.01147 1020.458103 0.117651 792.558993 0.117651 511.882349 0.117651 229.179082 229.296733 0 512 0z m-102.184474 618.141402c6.399863 75.625044 19.58358 145.874203 38.676503 204.176952 12.202405 37.247201 26.55943 68.563862 41.577775 90.600723 9.557128 14.058365 17.364961 21.268877 21.716867 24.383477 4.330574-3.1146 12.138406-10.346445 21.695535-24.383477 15.018344-22.03686 29.396703-53.353522 41.577774-90.600723 19.092924-58.281416 32.276641-128.530575 38.676504-204.155619a1608.818811 1608.818811 0 0 1-101.736484 3.199932 1614.685352 1614.685352 0 0 1-102.184474-3.199932z m527.348684-71.465133l-6.399863 3.327929c-22.548849 11.306424-49.534937 21.503539-80.702268 30.527345-44.009722 12.75706-94.888631 22.719512-150.098112 29.631364-9.279801 127.570596-36.265888 238.202889-73.875748 312.910619a425.441537 425.441537 0 0 0 187.537309-109.565649 425.078879 425.078879 0 0 0 123.560015-266.831608z m-850.32842 0l1.002645 10.879767a421.814949 421.814949 0 0 0 31.082 120.317418 425.441537 425.441537 0 0 0 91.454037 135.634423 425.078879 425.078879 0 0 0 187.067986 109.437651c-37.588527-74.771729-64.553281-185.382689-73.811749-312.84662-55.038819-6.911852-105.768397-16.852972-149.671455-29.567365-34.175267-9.919787-63.35864-21.268877-87.123464-33.876607zM511.786671 86.888802c-4.351907 3.1146-12.159739 10.325112-21.716867 24.362144-15.018344 22.03686-29.37537 53.374855-41.577775 90.622055-27.775404 84.862179-43.092409 195.046481-43.092408 310.201344 0 6.783854 0.085332 13.525043 0.170663 20.266232 34.452594 2.431948 70.142495 3.690587 106.429716 3.690587 36.137891 0 71.678462-1.25864 105.981726-3.647921 0.106664-6.741189 0.14933-13.525043 0.14933-20.308898 0-115.176195-15.295672-225.339165-43.092409-310.201344-12.159739-37.247201-26.538097-68.585195-41.556441-90.622055-9.557128-14.037032-17.364961-21.268877-21.695535-24.362144z m114.045553 13.717039l1.791962 3.583923c46.079011 93.480661 75.838373 241.40282 75.838372 407.884581 0 3.86125 0 7.722501-0.042666 11.562419 40.617795-5.546548 78.355652-12.927723 111.826934-21.972862 89.811406-24.234147 113.917556-51.2629 115.43219-57.172107l-0.042666 0.554655h2.773274a425.441537 425.441537 0 0 0-119.784096-234.810961 425.249542 425.249542 0 0 0-187.793304-109.629648z m-228.155104 0.14933l-8.981141 2.602611a425.441537 425.441537 0 0 0-178.321507 106.877707 425.249542 425.249542 0 0 0-119.762763 234.789628h2.773274c0-0.277327-0.042666-0.490656-0.042666-0.533322h-0.021333l0.170663 0.469324c2.559945 6.613191 26.452766 31.721986 108.669668 54.868155l6.613192 1.834628c33.343285 9.002473 70.910478 16.340983 111.378943 21.908863a1375.330488 1375.330488 0 0 1-0.042666-11.49842c0-168.529717 30.506012-318.051842 77.566336-411.297841z" p-id="1038"></path></svg>
