<svg width="48" height="48" viewBox="0 0 48 48" fill="none" xmlns="http://www.w3.org/2000/svg">
<path d="M32.5053 38.9366C30.9159 38.9366 29.3917 38.3053 28.2678 37.1814C27.144 36.0576 26.5126 34.5333 26.5126 32.9439C26.5126 31.3546 27.144 29.8303 28.2678 28.7065C29.3917 27.5826 30.9159 26.9513 32.5053 26.9513C34.0947 26.9513 35.6189 27.5826 36.7428 28.7065C37.8666 29.8303 38.498 31.3546 38.498 32.9439C38.498 34.5333 37.8666 36.0576 36.7428 37.1814C35.6189 38.3053 34.0947 38.9366 32.5053 38.9366ZM20.5525 25.2019C19.5752 25.178 18.6459 24.7729 17.9632 24.0732C17.2804 23.3735 16.8982 22.4346 16.8982 21.4569C16.8982 20.4793 17.2804 19.5404 17.9632 18.8407C18.6459 18.141 19.5752 17.7359 20.5525 17.7119C21.5299 17.7359 22.4591 18.141 23.1419 18.8407C23.8247 19.5404 24.2069 20.4793 24.2069 21.4569C24.2069 22.4346 23.8247 23.3735 23.1419 24.0732C22.4591 24.7729 21.5299 25.178 20.5525 25.2019ZM32.7697 13.509H22.7699C20.3216 13.5096 17.9738 14.4826 16.2429 16.214C14.5119 17.9454 13.5395 20.2934 13.5395 22.7416V32.7414C13.5395 35.1895 14.512 37.5373 16.243 39.2683C17.974 40.9993 20.3218 41.9718 22.7699 41.9718H32.7697C35.2177 41.9718 37.5655 40.9993 39.2965 39.2683C41.0275 37.5373 42 35.1895 42 32.7414V22.7416C42 20.2934 41.0276 17.9454 39.2966 16.214C37.5657 14.4826 35.2179 13.5096 32.7697 13.509ZM11.9938 9.99691C11.9938 10.7917 11.6781 11.554 11.116 12.116C10.554 12.6781 9.79174 12.9938 8.99691 12.9938C8.20208 12.9938 7.4398 12.6781 6.87777 12.116C6.31574 11.554 6 10.7917 6 9.99691C6 9.20208 6.31574 8.4398 6.87777 7.87777C7.4398 7.31574 8.20208 7 8.99691 7C9.79174 7 10.554 7.31574 11.116 7.87777C11.6781 8.4398 11.9938 9.20208 11.9938 9.99691Z" fill="#004880"/>
</svg>
