<?xml version="1.0" standalone="no"?><!DOCTYPE svg PUBLIC "-//W3C//DTD SVG 1.1//EN" "http://www.w3.org/Graphics/SVG/1.1/DTD/svg11.dtd"><svg t="1692150899276" class="icon" viewBox="0 0 1024 1024" version="1.1" xmlns="http://www.w3.org/2000/svg" p-id="11346" xmlns:xlink="http://www.w3.org/1999/xlink" width="200" height="200"><path d="M512.747 205.393A102.057 102.057 0 0 0 615.059 103.08 102.057 102.057 0 0 0 512.747 0.768 102.057 102.057 0 0 0 410.434 103.08a102.057 102.057 0 0 0 102.313 102.313z m0 204.646a102.057 102.057 0 0 0-102.313 102.313 102.057 102.057 0 0 0 102.313 102.312 102.057 102.057 0 0 0 102.312-102.312 102.057 102.057 0 0 0-102.312-102.313z m0 409.23A102.057 102.057 0 0 0 410.434 921.58a102.057 102.057 0 0 0 102.313 102.333 102.057 102.057 0 0 0 102.29-102.333 102.42 102.42 0 0 0-102.312-102.313z" p-id="11347"></path></svg>