<svg width="48" height="48" viewBox="0 0 48 48" fill="none" xmlns="http://www.w3.org/2000/svg">
<path d="M16.9614 7.1514C18.5345 6.35678 20.3323 6.13266 22.0688 6.05116C23.3354 5.92891 24.6021 6.05116 25.8483 6.15304C27.4418 6.35678 29.0966 6.72353 30.4041 7.70152C31.2213 8.33313 31.875 9.27037 31.875 10.3299C31.8546 13.0397 31.875 15.7495 31.8546 18.4594C31.8546 19.6411 31.4051 20.8432 30.5062 21.6378C29.6277 22.3917 28.4837 22.7584 27.3396 22.8196H18.6366C17.4925 22.8399 16.3076 23.1659 15.4496 23.9809C14.4077 24.9589 13.9582 26.4259 13.9991 27.8317C13.9991 29.1765 14.0195 30.5212 13.9991 31.8659C12.9572 31.8659 11.9153 31.8863 10.8733 31.8659C9.48413 31.8048 8.27879 30.9287 7.52289 29.8081C6.41969 28.0966 6.11325 26.0388 6.03153 24.042C6.03153 23.7161 5.92938 23.3493 6.09282 23.0233C5.97024 22.7992 6.05196 22.5139 6.05196 22.2694C6.1541 20.3746 6.52184 18.3779 7.72719 16.8498C8.66695 15.6069 10.2605 14.8938 11.8335 14.9753C15.6947 14.9957 19.5559 14.9753 23.3967 14.9753V13.8954H15.0001C15.0001 12.4896 14.9797 11.0837 14.9797 9.67786C15.0819 8.5165 16.0012 7.66077 16.9614 7.1514ZM18.1463 8.88325C17.1044 9.25 16.9001 10.8188 17.8194 11.4301C18.6979 12.1025 20.128 11.4301 20.1484 10.3299C20.271 9.31112 19.0861 8.45538 18.1463 8.88325Z" fill="#3774A7"/>
<path d="M34.0716 16.1364H36.6734C37.9436 16.0343 39.2138 16.6267 40.0537 17.5665C41.3649 19.0578 41.7542 21.0599 42 22.9598V26.3715C41.7746 28.251 41.3034 30.2531 39.9308 31.6423C39.0089 32.5412 37.7182 33.0928 36.4276 33.0315C32.4941 33.0111 28.5606 33.0315 24.6066 33.0315V34.1143H33.0267C33.0267 35.483 33.0267 36.8314 33.0472 38.2001C33.0882 39.2829 32.2892 40.1614 31.4083 40.6925C29.7488 41.6731 27.7616 41.8366 25.8973 42H23.6847C21.7589 41.8366 19.7307 41.6323 18.0303 40.5904C16.9855 39.9775 16.166 38.8743 16.125 37.6485C16.1455 34.9314 16.1045 32.2143 16.1455 29.4972C16.166 28.3736 16.5552 27.2296 17.3952 26.4532C18.3171 25.5952 19.5873 25.2071 20.837 25.1458H29.4415C30.6298 25.1458 31.859 24.7576 32.6784 23.8996C33.6004 22.9802 34.0101 21.6728 34.0511 20.3857C34.0716 18.9965 34.0511 17.5665 34.0716 16.1364ZM28.9498 36.4023C28.5811 36.5249 28.2328 36.7701 28.0484 37.1174C27.6387 37.8733 28.0279 38.9356 28.8679 39.1807C29.7488 39.5485 30.8551 38.7722 30.7936 37.812C30.8961 36.8927 29.8308 36.0959 28.9498 36.4023Z" fill="#FFD140"/>
</svg>
