<?xml version="1.0" encoding="UTF-8"?>
<svg class="icon" width="48px" height="48px" viewBox="0 0 48 48" version="1.1" xmlns="http://www.w3.org/2000/svg" xmlns:xlink="http://www.w3.org/1999/xlink">
    <g id="4px线性" stroke="none" stroke-width="1" fill-rule="evenodd">
        <g id="仓库列表" fill-rule="nonzero">
            <g id="编组">
                <path d="M16,27 C17.1045695,27 18,27.8954305 18,29 L18,43 C18,44.1045695 17.1045695,45 16,45 L2,45 C0.8954305,45 0,44.1045695 0,43 L0,29 C0,27.8954305 0.8954305,27 2,27 L16,27 Z M46,40 C47.1045695,40 48,40.8954305 48,42 C48,43.1045695 47.1045695,44 46,44 L26,44 C24.8954305,44 24,43.1045695 24,42 C24,40.8954305 24.8954305,40 26,40 L46,40 Z M14,31 L4,31 L4,41 L14,41 L14,31 Z M46,28 C47.1045695,28 48,28.8954305 48,30 C48,31.1045695 47.1045695,32 46,32 L26,32 C24.8954305,32 24,31.1045695 24,30 C24,28.8954305 24.8954305,28 26,28 L46,28 Z M16,3 C17.1045695,3 18,3.8954305 18,5 L18,19 C18,20.1045695 17.1045695,21 16,21 L2,21 C0.8954305,21 0,20.1045695 0,19 L0,5 C0,3.8954305 0.8954305,3 2,3 L16,3 Z M46,16 C47.1045695,16 48,16.8954305 48,18 C48,19.1045695 47.1045695,20 46,20 L26,20 C24.8954305,20 24,19.1045695 24,18 C24,16.8954305 24.8954305,16 26,16 L46,16 Z M14,7 L4,7 L4,17 L14,17 L14,7 Z M46,4 C47.1045695,4 48,4.8954305 48,6 C48,7.1045695 47.1045695,8 46,8 L26,8 C24.8954305,8 24,7.1045695 24,6 C24,4.8954305 24.8954305,4 26,4 L46,4 Z" id="形状结合"></path>
            </g>
        </g>
    </g>
</svg>
