<svg width="48" height="48" viewBox="0 0 48 48" fill="none" xmlns="http://www.w3.org/2000/svg">
<path d="M17.7811 10.5866C18.7596 10.4362 19.7465 10.3263 20.7358 10.2742C20.9115 10.2323 21.0933 10.2409 21.2729 10.2345C22.6765 10.1897 24.0821 10.1917 25.4851 10.2549C28.0175 10.434 30.537 10.8547 32.9799 11.556L32.9696 11.5697C32.6114 12.0541 32.2522 12.5377 31.901 13.027C31.7958 13.0465 31.7037 12.9799 31.61 12.9464C29.7566 12.1816 27.7837 11.7376 25.7979 11.4974C22.5317 11.1629 19.1878 11.4316 16.0544 12.4367C13.7474 13.1829 11.5196 14.3334 9.79923 16.0684C8.58009 17.3152 7.64406 18.928 7.51701 20.6952C7.39879 21.5373 7.60043 22.378 7.77879 23.1953L0.0417481 24.5592C0.0230489 23.194 0.379295 21.8434 0.946234 20.6084C2.07388 18.2038 4.02932 16.2825 6.20815 14.8115C7.68143 13.8223 9.27398 13.0153 10.9281 12.3755C13.1317 11.5139 15.4406 10.9253 17.7811 10.5866Z" fill="black"/>
<path d="M31.901 13.027C32.2522 12.5377 32.6114 12.0541 32.9696 11.5697C36.2496 12.5304 39.4171 14.0474 42.0044 16.3077C43.0624 17.2551 44.0193 18.3269 44.7542 19.5462C45.6244 20.9812 46.1759 22.6246 46.2349 24.3082C43.6623 23.8586 41.0905 23.4051 38.5183 22.954C38.8349 21.9471 38.8376 20.8508 38.6208 19.8233C38.219 18.0475 37.0806 16.5228 35.7073 15.3654C34.5625 14.4022 33.2565 13.6302 31.8728 13.0653L31.901 13.027Z" fill="#D72123"/>
<path d="M22.4172 20.1198C22.5687 19.8732 22.8353 19.6765 23.1385 19.713C23.4813 19.7218 23.7455 20.005 23.8165 20.3256L48 24.6275L47.9193 25.0326L23.741 20.7928C23.5481 21.1284 23.1007 21.3017 22.7492 21.1035C22.5055 20.997 22.4223 20.7362 22.3123 20.5174L20.8236 20.2789L20.8919 19.8601L22.4172 20.1198Z" fill="black"/>
<path d="M0 25.7751C1.42123 25.7656 2.84258 25.7734 4.26387 25.7712C4.26528 25.8238 4.26809 25.9292 4.2695 25.9818C5.30221 25.7569 6.36359 25.6613 7.41982 25.7196C8.18891 25.79 8.89505 26.1196 9.58284 26.4468C8.8075 26.9263 8.01853 27.3881 7.2619 27.8955C6.41875 27.2444 5.27281 27.2438 4.28954 27.5287C4.27727 27.6339 4.26573 27.7394 4.26468 27.846C4.26518 30.2927 4.26587 32.7395 4.2644 35.1862C2.84368 35.1857 1.42298 35.1875 0.00226667 35.1853C-0.000752707 32.0486 0.0037655 28.9119 0 25.7751Z" fill="black"/>
<path d="M12.9361 25.7704C12.3104 25.7699 11.6847 25.7702 11.059 25.7756L11.0584 37.7962L15.3271 37.2107L15.3305 35.2705C17.2938 35.1876 19.2227 34.6938 20.9583 33.7652C21.9051 33.2323 22.8353 32.5193 23.2697 31.491C23.6397 30.6338 23.4749 29.628 23.0035 28.8447C22.3829 27.8362 21.3473 27.1663 20.2768 26.713C18.5531 25.9996 16.668 25.7606 14.8133 25.7711C14.1876 25.7724 13.5619 25.7709 12.9361 25.7704ZM15.3334 26.8099C16.4266 26.9196 17.4149 27.5373 18.1616 28.3189C18.8055 28.9962 19.2607 29.9412 19.1034 30.893C18.9315 31.8465 18.2681 32.6212 17.522 33.1978C16.874 33.6735 16.1412 34.0842 15.3333 34.1918C15.3305 31.7312 15.3301 29.2705 15.3334 26.8099Z" fill="black"/>
<path d="M26.2332 25.7773C31.1172 25.7624 36.0014 25.7755 40.8855 25.7707C42.3144 25.7766 43.7671 25.7857 45.157 26.1553C45.5571 26.2871 46.0905 26.4438 46.1958 26.9088C46.2062 29.6678 46.1997 32.4274 46.199 35.1866C44.7774 35.1863 43.356 35.1857 41.9346 35.1869C41.9343 32.4491 41.9287 29.7113 41.9373 26.9737C41.6791 26.7496 41.311 26.7592 40.9903 26.7201C40.1136 26.6972 39.2362 26.7135 38.3594 26.7111C38.3595 29.5363 38.3626 32.3615 38.3579 35.1867C36.9344 35.1854 35.5109 35.1872 34.0875 35.1859C34.0832 32.9228 34.0868 30.6598 34.0857 28.3968C34.0743 27.9023 34.1105 27.406 34.0641 26.9131C33.6636 26.7447 33.2249 26.7118 32.7955 26.7097C32.033 26.7085 31.2706 26.7103 30.5082 26.7089C30.5045 29.5351 30.5128 32.3613 30.504 35.1875C29.1637 35.1858 27.8233 35.1848 26.483 35.188L26.2248 35.187C26.2469 32.0682 26.2301 28.8964 26.2332 25.7773Z" fill="black"/>
</svg>
