<?xml version="1.0" standalone="no"?><!DOCTYPE svg PUBLIC "-//W3C//DTD SVG 1.1//EN" "http://www.w3.org/Graphics/SVG/1.1/DTD/svg11.dtd"><svg t="1651640665494" class="icon" viewBox="0 0 1024 1024" version="1.1" xmlns="http://www.w3.org/2000/svg" p-id="19240" xmlns:xlink="http://www.w3.org/1999/xlink" width="600" height="600"><defs><style type="text/css"></style></defs><path d="M359.970133 715.15136c-26.88 0-45.91616-25.67168-45.91616-52.462933v-1.11616c0-26.78784 19.039573-46.882133 45.91616-46.882134h559.957334c5.03808-16.7424 8.96-39.069013 11.199146-61.392213h-470.391466c-26.88 0-48.718507-20.650667-48.718507-47.438507s21.838507-47.438507 48.718507-47.438506h468.6848c-2.798933-22.3232-6.720853-44.649813-12.878507-61.392214h-355.0208c-26.88 0-48.718507-20.650667-48.718507-47.438506s21.838507-47.438507 48.718507-47.438507h313.582933c-72.79616-128.365227-207.74912-209.288533-362.2912-209.288533-231.826773 0-419.976533 185.849173-419.976533 417.450666 0 231.615147 188.14976 420.795733 419.976533 420.795734 159.0272 0 297.342293-87.063893 368.469334-215.42912h-521.3184z" fill="#0277BD" p-id="19241"></path></svg>