<svg width="48" height="48" viewBox="0 0 48 48" fill="none" xmlns="http://www.w3.org/2000/svg">
<path fill-rule="evenodd" clip-rule="evenodd" d="M17 2C14.7909 2 13 3.79086 13 6V9C13 11.2091 14.7909 13 17 13H31C33.2091 13 35 11.2091 35 9V6C35 3.79086 33.2091 2 31 2H17ZM36.5 11.5C36.2239 11.5 36 11.2761 36 11V9C36 8.72386 36.2239 8.5 36.5 8.5H40.5C42.6566 8.5 44.4196 9.49599 45.6171 10.8323C46.7935 12.1451 47.5 13.8678 47.5 15.5C47.5 17.1322 46.7935 18.8549 45.6171 20.1677C44.4196 21.504 42.6566 22.5 40.5 22.5H36.5C36.2239 22.5 36 22.2761 36 22V20C36 19.7239 36.2239 19.5 36.5 19.5H40.5C41.6767 19.5 42.6637 18.9682 43.3829 18.1656C44.1232 17.3395 44.5 16.3122 44.5 15.5C44.5 14.6878 44.1232 13.6605 43.3829 12.8344C42.6637 12.0318 41.6767 11.5 40.5 11.5H36.5ZM11.5 27.5C11.7761 27.5 12 27.2761 12 27V25C12 24.7239 11.7761 24.5 11.5 24.5H7.5C5.34337 24.5 3.58036 25.496 2.3829 26.8323C1.2065 28.1451 0.5 29.8678 0.5 31.5C0.5 33.1322 1.2065 34.8549 2.3829 36.1677C3.58036 37.504 5.34337 38.5 7.5 38.5H11.5C11.7761 38.5 12 38.2761 12 38V36C12 35.7239 11.7761 35.5 11.5 35.5H7.5C6.32329 35.5 5.3363 34.9682 4.6171 34.1656C3.87683 33.3395 3.5 32.3122 3.5 31.5C3.5 30.6878 3.87683 29.6605 4.6171 28.8344C5.3363 28.0318 6.32329 27.5 7.5 27.5H11.5ZM13 22C13 19.7909 14.7909 18 17 18H31C33.2091 18 35 19.7909 35 22V25C35 27.2091 33.2091 29 31 29H17C14.7909 29 13 27.2091 13 25V22ZM17 34C14.7909 34 13 35.7909 13 38V41C13 43.2091 14.7909 45 17 45H31C33.2091 45 35 43.2091 35 41V38C35 35.7909 33.2091 34 31 34H17Z" fill="#3A84FF"/>
</svg>
