<?xml version="1.0" standalone="no"?><!DOCTYPE svg PUBLIC "-//W3C//DTD SVG 1.1//EN" "http://www.w3.org/Graphics/SVG/1.1/DTD/svg11.dtd"><svg t="1630035783052" class="icon" viewBox="0 0 3097 1024" version="1.1" xmlns="http://www.w3.org/2000/svg" p-id="1767" xmlns:xlink="http://www.w3.org/1999/xlink" width="604.8828125" height="200"><defs><style type="text/css"></style></defs><path d="M240.298667 701.917867l221.320533-367.752534h155.8528l-335.121067 534.596267H124.3136L15.906133 334.165333H176.128z" fill="#081E40" p-id="1768"></path><path d="M765.405867 614.263467l-50.039467 254.498133H560.264533l121.514667-618.359467a136.533333 136.533333 0 0 1 134.007467-110.1824h251.426133c66.218667 0 112.64 4.778667 139.264 14.199467 44.8512 16.042667 76.1856 49.152 94.0032 99.396267 12.970667 37.888 15.018667 79.0528 6.3488 123.426133a323.584 323.584 0 0 1-40.96 105.403733 282.282667 282.282667 0 0 1-72.226133 81.373867c-25.6 18.978133-51.268267 32.085333-77.141334 39.3216-25.8048 7.304533-59.8016 10.922667-102.058666 10.922667h-249.0368z m25.531733-129.979734h210.807467c37.888 0 65.604267-5.802667 83.217066-17.476266 26.146133-18.158933 43.690667-49.834667 52.565334-95.0272 9.557333-48.7424-1.365333-80.0768-32.904534-93.934934-11.400533-5.051733-30.5152-7.645867-57.480533-7.645866h-214.084267l-42.120533 214.084266z m944.810667 61.166934c7.304533-37.137067 4.778667-62.2592-7.509334-75.3664-12.424533-13.1072-40.7552-19.6608-85.1968-19.6608h-246.852266l22.3232-113.595734h246.852266c44.373333 0 74.820267 0.955733 91.204267 2.730667 16.384 1.8432 32.836267 5.3248 49.288533 10.376533 74.820267 30.583467 98.7136 103.765333 71.543467 219.5456l-58.845867 299.281067h-308.0192c-55.296 0-93.252267-1.6384-113.732266-4.9152a118.306133 118.306133 0 0 1-51.677867-20.206933c-37.2736-29.0816-50.107733-73.181867-38.5024-132.164267 7.031467-35.6352 21.845333-67.584 44.4416-95.573333 22.664533-27.989333 49.152-47.104 79.598933-57.344 26.4192-8.738133 68.471467-13.1072 125.952-13.1072h179.131734z m-41.233067 209.7152l18.909867-96.119467h-193.3312a68.266667 68.266667 0 0 0-42.461867 13.1072 57.344 57.344 0 0 0-21.845333 36.0448c-3.2768 16.7936 0.4096 28.808533 10.922666 36.0448 10.6496 7.304533 30.5152 10.922667 59.5968 10.922667h168.209067z m809.710933-418.338134l-22.3232 113.595734h-174.762666c-58.9824 0-102.4 13.1072-130.048 39.3216-26.760533 24.7808-45.056 62.6688-55.0912 113.595733-11.195733 56.797867-1.501867 98.304 29.013333 124.5184 12.561067 10.24 27.0336 17.339733 43.349333 21.2992 16.315733 4.027733 39.7312 6.007467 70.314667 6.007467h157.2864l-22.3232 113.595733h-199.8848c-53.8624 0-95.368533-5.461333-124.586667-16.384a150.391467 150.391467 0 0 1-71.816533-56.797867c-35.84-50.926933-46.08-115.780267-30.583467-194.423466 18.6368-94.6176 59.8016-165.2736 123.562667-211.899734a242.346667 242.346667 0 0 1 86.562133-40.413866c32.221867-7.9872 72.635733-12.014933 121.514667-12.014934h199.816533zM2801.937067 136.533333l-79.189334 404.548267 0.546134 0.546133 209.169066-172.714666h164.6592l-306.244266 249.787733 219.5456 250.0608h-164.6592l-153.258667-169.7792-0.682667 0.546133-33.109333 169.301334h-147.114667L2654.890667 136.533333h147.114666z" fill="#3A84FF" p-id="1769"></path></svg>