<?xml version="1.0" standalone="no"?><!DOCTYPE svg PUBLIC "-//W3C//DTD SVG 1.1//EN" "http://www.w3.org/Graphics/SVG/1.1/DTD/svg11.dtd"><svg t="1635989013347" class="icon" viewBox="0 0 2205 1024" version="1.1" xmlns="http://www.w3.org/2000/svg" p-id="1611" xmlns:xlink="http://www.w3.org/1999/xlink" width="430.6640625" height="200"><defs><style type="text/css"></style></defs><path d="M391.010462 644.962462l-14.020924 74.988307H230.163692c-27.726769 0-48.679385-1.457231-62.818461-4.411077-49.782154-10.082462-81.171692-38.872615-94.129231-86.331077-8.270769-31.901538-8.073846-71.404308 0.787692-118.468923 10.515692-56.32 30.011077-102.084923 58.44677-137.373538a184.477538 184.477538 0 0 1 74.436923-56.083692c28.908308-11.776 64.354462-17.644308 106.338461-17.644308h142.414769l-14.020923 74.988308h-132.332307c-39.896615 0-71.128615 10.712615-93.617231 32.137846-18.825846 17.644308-32.571077 49.585231-41.235692 95.783384-11.657846 62.188308-7.286154 102.912 13.036307 122.249846 14.296615 13.430154 39.266462 20.164923 74.988308 20.164924h128.551385z" fill="#081E40" p-id="1612"></path><path d="M534.606769 576.393846l-28.868923 146.825846H416.295385l70.104615-356.745846a78.769231 78.769231 0 0 1 77.312-63.566769h145.053538c38.203077 0 64.984615 2.756923 80.344616 8.192 25.875692 9.255385 43.953231 28.356923 54.232615 57.344 7.483077 21.858462 8.664615 45.568 3.623385 71.207385a186.683077 186.683077 0 0 1-23.630769 60.809846 162.855385 162.855385 0 0 1-41.629539 46.946461c-14.769231 10.909538-29.577846 18.510769-44.504615 22.685539-14.887385 4.214154-34.500923 6.301538-58.88 6.301538h-143.675077z m14.729846-74.988308h121.619693c21.858462 0 37.848615-3.347692 48.009846-10.082461 15.084308-10.515692 25.206154-28.750769 30.326154-54.823385 5.513846-28.16-0.787692-46.198154-18.983385-54.19323-6.577231-2.953846-17.644308-4.411077-33.161846-4.411077h-123.510154l-24.300308 123.510153z m545.083077 35.288616c4.214154-21.425231 2.756923-35.918769-4.332307-43.480616-7.168-7.561846-23.552-11.342769-49.152-11.342769h-142.41477l12.87877-65.536h142.414769c25.6 0 43.165538 0.512 52.617846 1.575385 9.452308 1.063385 18.904615 3.032615 28.435692 5.986461 43.165538 17.644308 56.910769 59.864615 41.275077 126.660923L1142.153846 723.219692H964.529231c-31.901538 0-53.799385-0.945231-65.614769-2.835692a68.253538 68.253538 0 0 1-29.853539-11.657846c-21.464615-16.817231-28.868923-42.220308-22.173538-76.248616 4.056615-20.598154 12.603077-38.990769 25.639384-55.138461 13.075692-16.147692 28.356923-27.175385 45.883077-33.083077 15.281231-5.041231 39.502769-7.561846 72.704-7.561846h103.345231z m-23.788307 120.989538l10.909538-55.453538h-111.537231a39.384615 39.384615 0 0 0-24.49723 7.561846 33.083077 33.083077 0 0 0-12.603077 20.795077c-1.890462 9.649231 0.236308 16.580923 6.301538 20.795077 6.144 4.214154 17.604923 6.301538 34.382769 6.301538h97.043693z m467.101538-241.348923l-12.839385 65.536h-100.824615c-34.028308 0-59.076923 7.561846-75.067077 22.685539-15.36 14.296615-25.993846 36.115692-31.783384 65.536-6.419692 32.768-0.827077 56.713846 16.777846 71.837538 7.246769 5.907692 15.556923 9.964308 24.969846 12.288 9.452308 2.323692 22.961231 3.465846 40.605538 3.465846h90.742154l-12.878769 65.536h-115.318154c-31.113846 0-55.059692-3.150769-71.876923-9.452307a86.764308 86.764308 0 0 1-41.432615-32.768c-20.676923-29.420308-26.584615-66.796308-17.644308-112.167385 10.712615-54.626462 34.500923-95.350154 71.286154-122.249846a139.815385 139.815385 0 0 1 49.939692-23.315692c18.550154-4.608 41.905231-6.931692 70.065231-6.931693h115.318154z m171.795692-115.554461l-45.686153 233.39323 0.275692 0.315077 120.713846-99.682461h94.995692l-176.679384 144.147692 126.660923 144.265846h-94.995693l-88.457846-97.949538-0.393846 0.315077-19.062154 97.673846h-84.873846L1624.615385 300.740923h84.873846z" fill="#3A84FF" p-id="1613"></path></svg>