<?xml version="1.0" standalone="no"?><!DOCTYPE svg PUBLIC "-//W3C//DTD SVG 1.1//EN" "http://www.w3.org/Graphics/SVG/1.1/DTD/svg11.dtd"><svg t="1623137854618" class="icon" viewBox="0 0 1024 1024" version="1.1" xmlns="http://www.w3.org/2000/svg" p-id="10086" xmlns:xlink="http://www.w3.org/1999/xlink" width="32" height="32"><defs><style type="text/css"></style></defs><path d="M476.672 415.232c-93.696-5.632-302.08-125.44-99.328-241.664C544.256 77.824 698.88 144.896 793.6 247.296c0 0-54.784 33.792-118.272 64 45.056-100.352-122.368-156.672-218.624-104.448-96.256 52.224-105.472 159.232 131.072 153.088l-111.104 55.296z m515.072 293.376V239.104L501.76 0.512 31.232 226.816v453.12l484.864 343.552 475.648-314.88zM501.76 24.576L962.048 256 502.272 518.144 56.32 242.176l445.44-217.6zM962.048 284.16v404.992L778.752 808.448v-417.28L962.048 284.16zM748.544 410.624v418.304L516.608 975.36V542.72l231.936-132.096z" fill="#6194CA" p-id="10087"></path></svg>