<?xml version="1.0" standalone="no"?><!DOCTYPE svg PUBLIC "-//W3C//DTD SVG 1.1//EN" "http://www.w3.org/Graphics/SVG/1.1/DTD/svg11.dtd"><svg t="1623137847279" class="icon" viewBox="0 0 1024 1024" version="1.1" xmlns="http://www.w3.org/2000/svg" p-id="9822" xmlns:xlink="http://www.w3.org/1999/xlink" width="32" height="32"><defs><style type="text/css"></style></defs><path d="M505.221 978.097c-6.775-4.693-14.79-20.275-19.353-37.608-4.062-15.428-5.602-56.08-2.881-76.025 1.01-7.417 1.587-13.735 1.276-14.046-0.307-0.307-6.611-1.29-14.005-2.184-42.598-5.134-88.07-19.613-122.685-39.07-7.342-4.126-14.22-7.502-15.282-7.502-1.065 0-4.802 5.526-8.311 12.281-16.309 31.4-44.793 62.577-66.444 72.728-7.905 3.704-18.435 4.608-23.31 1.994-7.345-3.936-9.523-19.525-5.133-36.786 3.003-11.82 15.076-36.686 24.866-51.22 4.325-6.417 12.861-17.299 18.978-24.184l11.117-12.516-5.796-5.537c-15.27-14.592-43.95-48.34-43.95-51.719 0-1.211 39.13-28.392 41.98-29.163 1.452-0.393 4.957 3.079 9.702 9.598 10.284 14.138 37.778 41.325 53.954 53.35 123.33 91.686 297.165 68.656 390.758-51.763 4.974-6.4 9.817-11.632 10.763-11.632 1.877 0 40.601 26.255 41.95 28.44 1.208 1.955-15.719 23.893-30.178 39.113-6.86 7.223-12.472 13.722-12.462 14.438 0.007 0.717 5.4 6.98 11.981 13.92 20.89 22.026 41.452 56.412 47.162 78.879 4.386 17.257 2.208 32.846-5.137 36.785-1.584 0.85-5.792 1.536-9.35 1.53-22.507-0.052-59.838-36.203-81.998-79.402-4.266-8.328-8.393-15.138-9.164-15.138s-5.12 2.383-9.66 5.29c-32.188 20.628-80.248 38.421-121.822 45.105-8.84 1.42-16.8 3.143-17.691 3.833-1.15 0.887-1 5.052 0.512 14.408 2.7 16.69 1.659 56.33-1.902 72.359-3.676 16.544-9.318 29.368-16.281 36.98-7.998 8.752-14.22 10-22.207 4.468zM62.696 640.724c-0.4-1.048-0.553-55.938-0.341-121.972l0.389-120.068h62.935l0.396 44.203c0.3 33.065 0.863 44.493 2.25 45.373 1.016 0.649 16.769 1.188 35.003 1.202 25.829 0.017 33.522-0.42 34.816-1.98 1.106-1.335 1.789-16.442 2.055-45.397l0.4-43.4h62.927v243.134h-62.931l-0.4-46.397c-0.266-31.181-0.938-47.056-2.054-48.401-1.294-1.564-9.029-2.007-35.008-2.007s-33.713 0.443-35.007 2.003c-1.112 1.349-1.788 17.224-2.055 48.401l-0.395 46.401-31.13 0.406c-24.085 0.314-31.29-0.027-31.85-1.501z m254.717-0.017c-0.396-1.038-0.546-55.921-0.335-121.959l0.39-120.067H473.3l0.41 26.617 0.409 26.62-46.11 0.396-46.108 0.396-0.427 17.893c-0.314 13.302 0.068 18.203 1.502 19.115 1.055 0.669 18.961 1.229 39.79 1.242l37.867 0.024-0.41 26.638-0.41 26.64-38.956 0.752-38.956 0.75v42.022l47.947 0.751 47.947 0.751v52.531l-79.831 0.386c-63.065 0.307-79.978-0.007-80.548-1.502z m209.773 0c-0.396-1.038-0.546-55.921-0.335-121.959l0.39-120.067h62.924l0.751 94.552 0.751 94.553 45.698 0.751 45.701 0.751v52.531l-77.578 0.386c-61.27 0.307-77.739-0.007-78.302-1.502z m199.27-0.014c-0.389-1.03-0.539-55.907-0.324-121.941l0.386-120.068 32.966-0.368c18.128-0.205 33.706 0.136 34.618 0.75 2.218 1.502 35.498 92.143 42.837 116.682 7.64 25.532 7.045 24.02 8.772 22.289 0.813-0.812 4.356-10.889 7.878-22.392 7.755-25.344 38.438-113.206 40.462-115.862 1.11-1.46 9.189-1.809 34.577-1.502l33.133 0.403v243.139l-28.057 0.41-28.058 0.405-0.993-3.97c-2.069-8.25 0.706-95.108 3.83-119.916 4.915-39.042 4.164-39.646-7.418-6.008-12.527 36.383-37.437 103.274-39.816 106.94-2.041 3.14-3.267 3.376-17.709 3.376-10.632 0-15.974-0.59-16.977-1.878-1.857-2.375-32.444-85.623-40.803-111.046-5.899-17.933-9.107-24.395-9.001-18.114 0.027 1.491 1.402 13.858 3.061 27.477 3.103 25.511 5.844 111.036 3.816 119.125l-0.986 3.943h-27.74c-20.808 0-27.914-0.471-28.45-1.878z m19.825-277.204c-5.905-10.011-20.753-28.696-33.318-41.915-40.465-42.592-89.197-69.51-149.019-82.323-17.128-3.67-21.675-4.018-53.193-4.09-37.107-0.078-45.278 0.844-74.018 8.37-38.906 10.189-74.377 28.27-105.786 53.917-15.101 12.332-39.151 37.697-49.425 52.125-6.332 8.888-9.517 12.179-11.183 11.544-5.46-2.075-42.028-26.658-42.007-28.239 0.05-3.553 24.681-34.447 41.396-51.916l17.289-18.077-11.435-12.398c-20.89-22.654-40.919-56.415-46.5-78.373-4.386-17.261-2.208-32.85 5.138-36.789 1.583-0.85 5.792-1.536 9.349-1.53 22.507 0.052 59.842 36.203 81.998 79.402 4.267 8.328 8.291 15.138 8.94 15.138 0.648 0 6.502-3.041 13.011-6.758 33.465-19.101 87.19-36.124 123.768-39.21 6.314-0.532 12.27-1.457 13.237-2.058 1.327-0.819 1.133-4.847-0.8-16.411-3.556-21.313-2.453-63.051 2.127-80.39 7.257-27.482 18.91-42.876 30.775-40.647C527.688 44.943 538.42 63 544.003 88.934c3.642 16.927 3.738 64.53 0.16 80.122-1.327 5.778-1.969 10.97-1.43 11.537 0.54 0.57 7.725 2.095 15.965 3.392 47.752 7.513 83.968 20.839 128.351 47.238 3.018 1.792 5.861 2.659 6.315 1.921s4.547-8.786 9.097-17.886c17.561-35.136 45.83-67.065 69.004-77.933 7.905-3.703 18.435-4.608 23.31-1.993 7.345 3.935 9.522 19.524 5.133 36.785-3.202 12.602-15.524 37.489-26.563 53.658-5.154 7.547-15.623 20.04-23.262 27.76l-13.885 14.04 13.664 14.523c13.81 14.684 38.205 45.828 42.673 54.477 2.02 3.915 2.089 5.007 0.416 6.55-3.427 3.158-40.27 24.791-42.222 24.791-1.014 0-3.018-1.993-4.451-4.427z" fill="#00ACC1" p-id="9823"></path></svg>