<?xml version="1.0" standalone="no"?><!DOCTYPE svg PUBLIC "-//W3C//DTD SVG 1.1//EN" "http://www.w3.org/Graphics/SVG/1.1/DTD/svg11.dtd"><svg t="1623137840375" class="icon" viewBox="0 0 1024 1024" version="1.1" xmlns="http://www.w3.org/2000/svg" p-id="9555" xmlns:xlink="http://www.w3.org/1999/xlink" width="32" height="32"><defs><style type="text/css"></style></defs><path d="M380.928 228.864c20.48-3.072 41.472-5.632 62.464-6.656 3.584-1.024 7.68-0.512 11.264-1.024 29.696-1.024 59.392-1.024 89.088 0.512 53.76 3.584 106.496 12.8 158.208 27.648v0.512c-7.68 10.24-15.36 20.48-22.528 30.72-2.56 0.512-4.096-1.024-6.144-1.536-39.424-15.872-80.384-26.112-122.88-30.72-69.12-7.68-139.264-1.024-205.824 19.968-48.64 15.872-95.744 39.936-132.096 76.8-25.6 26.112-45.568 60.416-48.128 97.792-2.56 17.92 2.048 35.328 5.632 52.736L6.656 524.288c0-28.672 6.656-57.344 18.944-83.456 23.552-50.688 65.024-91.648 111.104-122.368 31.232-20.992 64.512-37.888 99.84-51.712 46.08-18.432 94.72-31.232 144.384-37.888zM478.72 430.08c3.072-5.12 8.704-9.216 15.36-8.704 7.168 0 12.8 6.144 14.336 12.8l510.976 90.624-1.536 8.704-511.488-89.088c-4.096 7.168-13.312 10.752-20.992 6.656-5.12-2.048-6.656-7.68-9.216-12.288l-31.232-5.12 1.536-8.704 32.256 5.12zM5.12 549.376h90.112v4.608c22.016-4.608 44.032-6.656 66.56-5.632 16.384 1.536 31.232 8.192 45.568 15.36-16.384 10.24-33.28 19.968-49.152 30.72-17.92-13.824-41.984-13.824-62.464-7.68-0.512 2.048-0.512 4.608-0.512 6.656v155.136H5.12V549.376z m233.472 0h79.36c38.912 0 78.848 4.608 115.2 19.968 22.528 9.728 44.544 23.552 57.856 45.056 10.24 16.896 13.312 37.888 5.632 55.808-9.216 21.504-28.672 36.864-48.64 48.128-36.864 19.456-77.312 30.208-118.784 31.744v40.96l-90.112 12.288V549.376h-0.512z m320.512 0c103.424-0.512 206.336 0 309.248 0 30.208 0 60.928 0 90.112 8.192 8.704 3.072 19.968 6.144 22.016 15.872v174.592h-89.6V574.464c-5.632-4.608-13.312-4.608-19.968-5.632-18.432-0.512-36.864 0-55.296 0v179.2h-90.112v-143.36c-0.512-10.24 0.512-20.992-0.512-31.232-8.704-3.072-17.92-4.608-26.624-4.096H650.24v179.2h-90.624c0-66.048-0.512-133.12-0.512-199.168z" p-id="9556"></path><path d="M678.912 280.064l22.528-30.72c69.12 20.48 136.192 52.224 190.976 100.352 22.528 19.968 42.496 42.496 57.856 68.096 18.432 30.208 30.208 65.024 31.232 100.352l-162.816-28.672c6.144-21.504 7.168-44.032 2.048-66.048-8.704-37.376-32.256-69.632-61.44-94.208-24.064-20.48-51.712-36.864-80.896-48.64 0 0.512 0.512-0.512 0.512-0.512z" fill="#D72123" p-id="9557"></path><path d="M329.216 571.392c23.04 2.56 44.032 15.36 59.904 31.744 13.824 14.336 23.552 34.304 19.968 54.272-3.584 19.968-17.92 36.352-33.28 48.64-13.824 10.24-29.184 18.944-46.08 20.992-0.512 0-0.512-155.648-0.512-155.648z" fill="#FFFFFF" p-id="9558"></path></svg>