<?xml version="1.0" standalone="no"?><!DOCTYPE svg PUBLIC "-//W3C//DTD SVG 1.1//EN" "http://www.w3.org/Graphics/SVG/1.1/DTD/svg11.dtd"><svg t="1624254477506" class="icon" viewBox="0 0 1024 1024" version="1.1" xmlns="http://www.w3.org/2000/svg" p-id="21087" xmlns:xlink="http://www.w3.org/1999/xlink" width="32" height="32"><defs><style type="text/css"></style></defs><path d="M641.28 512c67.008-44.672 117.312-117.312 117.312-206.656-5.568-134.016-111.68-240.192-245.76-240.192S272.64 171.328 272.64 305.344c0 89.344 44.672 161.984 117.312 206.656a439.232 439.232 0 0 0-307.2 418.88c0 16.768 11.2 27.904 27.904 27.904s27.904-11.2 27.904-27.904c0-201.088 156.416-363.008 346.304-379.776-16.768 39.104-55.872 145.216-55.872 228.992 0 117.312 72.576 150.784 78.208 150.784h22.336c5.568 0 78.208-33.536 78.208-150.784 0-83.776-39.104-189.888-55.872-228.992 195.456 16.768 346.304 178.752 346.304 379.776 0 16.768 11.2 27.904 27.904 27.904s27.904-11.2 27.904-27.904C948.48 735.424 820.032 567.872 641.28 512zM328.512 305.344c0-100.544 83.776-184.32 184.32-184.32s184.32 83.776 184.32 184.32-83.776 189.888-184.32 189.888-184.32-83.776-184.32-189.888z m184.32 569.664c-11.2-11.2-33.536-39.104-33.536-89.344s16.768-111.68 33.536-156.416c16.768 44.672 33.536 106.112 33.536 156.416-0.064 50.304-22.4 78.208-33.536 89.344z" p-id="21088"></path></svg>