<?xml version="1.0" standalone="no"?><!DOCTYPE svg PUBLIC "-//W3C//DTD SVG 1.1//EN" "http://www.w3.org/Graphics/SVG/1.1/DTD/svg11.dtd"><svg t="1624254472096" class="icon" viewBox="0 0 1024 1024" version="1.1" xmlns="http://www.w3.org/2000/svg" p-id="20954" xmlns:xlink="http://www.w3.org/1999/xlink" width="32" height="32"><defs><style type="text/css"></style></defs><path d="M474.56 96.896l8.704 4.608 233.408 134.784c37.312 21.504 61.44 60.16 64.512 103.104l0.32 9.216v35.904a25.92 25.92 0 0 1-51.52 4.672l-0.384-4.672v-35.904c0-25.088-12.16-48.704-32.576-63.296l-6.336-4.096-233.344-134.784a78.016 78.016 0 0 0-70.464-3.776l-7.36 3.776-233.408 134.784c-21.76 12.544-36.16 34.88-38.592 59.904l-0.32 7.488v269.504c0 25.28 12.224 48.768 32.576 63.296l6.336 4.096 233.408 134.784c24.064 13.888 53.76 13.888 77.824 0a25.92 25.92 0 0 1 25.984 44.928 129.536 129.536 0 0 1-120.96 4.608l-8.704-4.608-233.408-134.784A129.664 129.664 0 0 1 55.744 627.264l-0.448-9.088V348.608c0-43.072 21.376-83.264 57.088-107.392l7.808-4.928 233.408-134.784a129.728 129.728 0 0 1 120.96-4.608z m149.568 270.528a25.92 25.92 0 0 1-7.808 32.32l-4.032 2.368-168 82.048 0.064 180.032a25.92 25.92 0 0 1-51.52 4.672l-0.384-4.672V483.648l-167.04-81.536a25.984 25.984 0 0 1 18.496-48.256l4.416 1.728 170.432 83.328 170.624-83.328 4.352-1.728a26.048 26.048 0 0 1 30.4 13.568z" p-id="20955"></path><path d="M962.368 897.408l-108.288-107.136a16.768 16.768 0 0 0-7.872-4.48 205.248 205.248 0 0 0-157.184-337.536c-113.536 0-205.376 91.84-205.376 205.376s91.84 205.376 205.376 205.376a206.08 206.08 0 0 0 131.456-47.424 23.872 23.872 0 0 0 4.864 7.488l108.288 107.136a20.928 20.928 0 0 0 29.12 0 19.968 19.968 0 0 0-0.384-28.8z m-273.344-75.776c-92.992 0-168-75.072-168-168s75.072-168 168-168 168 75.072 168 168-75.008 168-168 168z" p-id="20956"></path></svg>