<?xml version="1.0" standalone="no"?><!DOCTYPE svg PUBLIC "-//W3C//DTD SVG 1.1//EN" "http://www.w3.org/Graphics/SVG/1.1/DTD/svg11.dtd"><svg t="1624254436753" class="icon" viewBox="0 0 1052 1024" version="1.1" xmlns="http://www.w3.org/2000/svg" p-id="20682" xmlns:xlink="http://www.w3.org/1999/xlink" width="32.875" height="32"><defs><style type="text/css"></style></defs><path d="M144.832 142.72h663.296v403.328h65.536V128.192a51.008 51.008 0 0 0-49.536-51.008H130.304a51.008 51.008 0 0 0-51.008 51.008v764.992c0 28.16 22.848 51.008 51.008 51.008H430.08v-65.536H144.832V142.72z" p-id="20683"></path><path d="M257.664 295.808h437.248v69.248H257.664V295.808z m0 184h353.408v69.248H257.664V479.808z m0 180.608h189.568v69.248H257.664v-69.248z m706.112 101.312c-71.488-87.872-150.336-131.84-236.48-131.84s-165.632 43.968-238.336 131.84a42.048 42.048 0 0 0 0 53.248c71.488 87.872 150.336 131.84 236.48 131.84s164.992-43.968 236.48-131.84a41.984 41.984 0 0 0 1.856-53.248z m-236.48 133.696c-67.008 0-129.216-34.624-188.096-107.264 58.816-72.64 121.408-107.264 188.096-107.264s129.216 34.624 188.096 107.264c-59.2 72.64-121.408 107.264-188.096 107.264z" p-id="20684"></path><path d="M727.296 706.624a81.92 81.92 0 1 0 0 163.84 81.92 81.92 0 0 0 0-163.84z m0 104.64a23.104 23.104 0 1 1 23.104-23.104 23.104 23.104 0 0 1-23.104 21.632v1.472z" p-id="20685"></path></svg>