<?xml version="1.0" standalone="no"?>
<!DOCTYPE svg PUBLIC "-//W3C//DTD SVG 1.1//EN" "http://www.w3.org/Graphics/SVG/1.1/DTD/svg11.dtd" >
<svg xmlns="http://www.w3.org/2000/svg">
  <metadata>Created by iconfont</metadata>
  <defs>
  <font id="bk-iconfont" horiz-adv-x="1024">
    <font-face
      font-family="bk-iconfont"
      font-weight="400"
      font-stretch="normal"
      units-per-em="1024"
      ascent="896"
      descent="-128"
    />
      <missing-glyph />
      
      <glyph glyph-name="tag" unicode="&#59006;" d="M502.976 861.610667l9.045333-8.213334L981.461333 384a126.165333 126.165333 0 0 0 8.149334-169.258667l-8.170667-9.002666-291.072-291.157334a125.696 125.696 0 0 0-89.109333-36.992 125.546667 125.546667 0 0 0-80 28.586667l-9.173334 8.384L42.581333 383.978667a125.568 125.568 0 0 0-36.906666 86.570666l0.341333 12.224 20.757333 270.4c4.352 56.661333 49.92 105.301333 105.429334 114.752l10.56 1.28L413.12 890.005333a125.525333 125.525333 0 0 0 89.856-28.373333z m-79.786667-56.576l-3.52-0.128-268.48-20.608-5.653333-0.704-2.069333-0.469334c-15.232-4.053333-28.586667-18.474667-31.210667-33.493333L111.893333 746.666667l-20.608-268.010667-0.234666-7.509333 0.170666-2.368c0.853333-8.042667 4.053333-15.616 9.322667-21.845334l2.389333-2.56 468.053334-468.010666 5.376-4.906667 1.92-1.450667c5.717333-3.904 12.437333-6.293333 19.584-6.890666l3.626666-0.149334c9.28 0 18.538667 3.392 25.877334 9.557334l2.645333 2.432 289.706667 289.813333 4.608 5.077333 1.621333 2.133334a40.874667 40.874667 0 0 1-2.346667 49.002666l-2.474666 2.709334L452.906667 791.786667l-5.226667 4.757333-1.834667 1.365333a40.213333 40.213333 0 0 1-19.2 6.954667l-3.477333 0.170667zM206.656 689.493333a150.997333 150.997333 0 0 0 213.354667-0.042666c58.88-58.88 58.88-154.410667 0-213.418667-58.88-58.88-154.410667-58.88-213.461334 0.042667A150.997333 150.997333 0 0 0 206.656 689.493333z m164.650667-42.026666a86.997333 86.997333 0 0 1-119.424-3.242667 86.976 86.976 0 0 1-0.085334-122.88 86.997333 86.997333 0 0 1 122.944-0.085333 86.997333 86.997333 0 0 1 0 122.922666z"  horiz-adv-x="1024" />
      
      <glyph glyph-name="security" unicode="&#59007;" d="M510.293333 885.525333l382.72-121.408c18.069333-5.269333 30.698667-21.674667 32.106667-40.490666l0.128-3.541334-2.346667-479.616-0.234666-2.261333-1.621334-7.168c-2.816-11.413333-7.594667-25.813333-15.616-43.904-15.978667-35.925333-39.210667-71.722667-71.04-105.088-2.837333-2.986667-5.76-5.930667-8.704-8.832-12.437333-12.224-28.586667-25.429333-48-39.466667l-13.44-9.450666c-9.28-6.4-19.157333-12.949333-29.632-19.626667l-16.128-10.154667-16.981333-10.325333-8.789333-5.248-18.176-10.624-18.432-10.517333-18.261334-10.176-18.176-9.941334-17.877333-9.578666-17.365333-9.130667-16.618667-8.576-15.637333-7.936-14.464-7.168-16.405334-8.064c-7.317333-4.565333-16.128-4.864-24.533333-1.578667l-3.114667 1.386667-7.04 4.096-13.589333 7.210667-7.445333 3.904-57.429334 30.826666-24.448 13.44-13.44 7.530667-23.36 13.418667-14.784 8.661333a1413.525333 1413.525333 0 0 0-64.810666 40.490667c-31.146667 20.757333-55.744 39.68-73.024 56.597333-35.157333 34.624-60.714667 72.213333-78.186667 110.293333-10.005333 21.802667-16.042667 40.917333-18.410667 52.885334l-0.512 2.837333-0.682666 6.592L94.72 720.1493330000001c0 18.773333 11.306667 35.413333 28.650667 42.645334l3.328 1.237333L510.272 885.546667z m-1.194666-90.154666l-2.666667-0.384-2.645333-0.768L182.613333 692.117333a2.624 2.624 0 0 1-1.792-1.792l-0.149333-0.96 1.770667-438.976 0.682666-2.56c2.645333-9.386667 6.912-20.928 13.226667-34.005333l2.816-5.717333a291.626667 291.626667 0 0 1 56.234667-75.946667c11.328-11.2 27.690667-24.128 48.469333-38.528l12.992-8.810667 14.016-9.152 9.344-5.909333 19.733333-12.16 10.368-6.229333 24.32-14.229334 19.925334-11.349333 20.16-11.2 28.992-15.744 42.986666-22.805333c1.408-0.704 3.413333-0.704 4.736-0.042667l30.869334 15.936 29.568 15.573333 18.922666 10.197334 18.24 10.026666 17.557334 9.834667 16.832 9.664 16.085333 9.472 15.274667 9.258667c39.701333 24.448 70.72 46.72 90.453333 66.24a291.541333 291.541333 0 0 1 56.192 75.904c7.893333 15.466667 13.013333 28.970667 16.042667 39.701333l0.682666 2.624 1.770667 439.466667a2.773333 2.773333 0 0 1-1.344 2.496l-1.066667 0.448-320.298666 101.44a20.629333 20.629333 0 0 1-8.106667 1.088z m-16.64-223.146667l1.045333-2.816 76.074667-239.744 61.717333 106.624a32 32 0 0 0 24.618667 15.829333l3.093333 0.149334h97.984a32 32 0 0 0 3.093333-63.850667l-3.093333-0.149333-79.552 0.021333-88.746667-153.386667c-13.397333-23.168-47.146667-20.394667-57.152 3.498667l-1.045333 2.858667-78.464 247.232-60.842667-86.613334a32 32 0 0 0-22.741333-13.44l-3.456-0.170666h-97.984a32 32 0 0 0-3.093333 63.850666l3.093333 0.149334 81.365333 0.021333 88.448 125.866667c14.634667 20.821333 46.122667 16.853333 55.637334-5.909334z"  horiz-adv-x="1024" />
      
      <glyph glyph-name="department" unicode="&#59008;" d="M624.618667 885.333333c39.424 0 72.725333-29.312 74.88-70.698666l0.128-4.309334v-241.322666c0-39.424-29.312-72.725333-70.698667-74.901334l-4.309333-0.106666H546.773333v-67.136h198.464c38.08 0 70.442667-27.349333 74.581334-66.474667l0.341333-4.245333 0.106667-4.309334-0.021334-77.802666h101.973334c38.058667 0 70.4-27.349333 74.56-66.474667l0.341333-4.224 0.106667-4.330667v-241.322666c0-39.424-29.312-72.725333-70.698667-74.88l-4.309333-0.128H680.917333c-39.424 0-72.725333 29.312-74.901333 70.698666l-0.106667 4.309334V198.99733300000003c0 39.424 29.312 72.725333 70.677334 74.901334l4.330666 0.106666 53.674667 0.021334v67.136H273.301333v-67.136h53.696c38.08 0 70.421333-27.349333 74.56-66.474667l0.341334-4.224 0.106666-4.330667v-241.322666c0-39.424-29.312-72.725333-70.677333-74.88l-4.330667-0.128H85.674667c-39.424 0-72.725333 29.312-74.88 70.698666L10.666667-42.325333V198.99733300000003c0 39.424 29.312 72.725333 70.698666 74.901334l4.309334 0.106666 109.994666 0.021334v77.802666c0 36.608 25.877333 70.144 59.52 74.538667l3.754667 0.362667 3.690667 0.106666 198.464 0.021334v67.136h-77.802667c-38.058667 0-70.4 27.306667-74.56 66.453333l-0.341333 4.224-0.106667 4.330667V810.325333c0 39.424 29.312 72.725333 70.698667 74.88L383.296 885.333333H624.64zM316.309333 196.373333H96.341333v-219.968h219.968V196.373333z m603.285334 0H699.626667v-219.968h219.968V196.373333zM613.930667 799.658667H393.962667v-219.968h219.968V799.658667z"  horiz-adv-x="1024" />
      
      <glyph glyph-name="success" unicode="&#59009;" d="M29.226667 412.714667a42.666667 42.666667 0 0 0 58.026666 2.176l2.325334-2.176 271.594666-271.573334L934.4 714.3679999999999a42.666667 42.666667 0 0 0 58.005333 2.154667l2.346667-2.154667a42.666667 42.666667 0 0 0 2.133333-58.026667l-2.133333-2.325333-603.413333-603.370667a42.666667 42.666667 0 0 0-58.005334-2.176l-2.346666 2.154667L29.269333 352.384a42.666667 42.666667 0 0 0 0 60.330667z"  horiz-adv-x="1024" />
      
      <glyph glyph-name="equal" unicode="&#59010;" d="M960 170.66666699999996a42.666667 42.666667 0 0 0 3.2-85.226667L960 85.33333300000004H64a42.666667 42.666667 0 0 0-3.2 85.226667L64 170.66666699999996h896z m0 512a42.666667 42.666667 0 0 0 3.2-85.226667L960 597.333333H64a42.666667 42.666667 0 0 0-3.2 85.226667L64 682.666667h896z"  horiz-adv-x="1024" />
      
      <glyph glyph-name="list" unicode="&#59011;" d="M341.333333 320a42.666667 42.666667 0 0 0 42.666667-42.666667v-298.666666a42.666667 42.666667 0 0 0-42.666667-42.666667H42.666667a42.666667 42.666667 0 0 0-42.666667 42.666667V277.33333300000004a42.666667 42.666667 0 0 0 42.666667 42.666667h298.666666z m640-277.333333a42.666667 42.666667 0 1 0 0-85.333334H554.666667a42.666667 42.666667 0 1 0 0 85.333334h426.666666z m-682.666666 192H85.333333v-213.333334h213.333334V234.66666699999996z m682.666666 64a42.666667 42.666667 0 1 0 0-85.333334H554.666667a42.666667 42.666667 0 1 0 0 85.333334h426.666666zM341.333333 832a42.666667 42.666667 0 0 0 42.666667-42.666667v-298.666666a42.666667 42.666667 0 0 0-42.666667-42.666667H42.666667a42.666667 42.666667 0 0 0-42.666667 42.666667V789.333333a42.666667 42.666667 0 0 0 42.666667 42.666667h298.666666z m640-277.333333a42.666667 42.666667 0 1 0 0-85.333334H554.666667a42.666667 42.666667 0 1 0 0 85.333334h426.666666zM298.666667 746.666667H85.333333v-213.333334h213.333334V746.666667z m682.666666 64a42.666667 42.666667 0 1 0 0-85.333334H554.666667a42.666667 42.666667 0 1 0 0 85.333334h426.666666z"  horiz-adv-x="1024" />
      
      <glyph glyph-name="product" unicode="&#59012;" d="M64.032664 533.348043c0 31.5497 32.850938 51.793557 60.71024 38.653182l2.87979-1.471893 341.308446-191.986001a42.663556 42.663556 0 0 0 21.58776-33.640214L490.668222 341.362042v-426.635557c0-31.5497-32.850938-51.793557-60.71024-38.653182l-2.87979 1.471893-341.308446 191.986001a42.663556 42.663556 0 0 0-21.587759 33.640213L64.032664 106.71248600000001V533.348043z m832.365974 37.181289c27.47533 15.465539 61.222203-3.221098 63.462039-33.96019L959.967336 533.348043v-426.635557a42.663556 42.663556 0 0 0-18.729301-35.325425l-3.007781-1.855864-341.308446-191.986001c-27.517993-15.465539-61.264866 3.221098-63.483371 33.96019L533.331778-85.27351499999997V341.362042a42.663556 42.663556 0 0 0 18.729301 35.325425l3.007781 1.855864 341.308446 191.986001zM149.359776 460.393363v-328.722697l255.981335-143.989501V316.403862L149.359776 460.393363z m725.280448 0.021332l-255.981335-143.989501v-328.722697l255.981335 143.9895v328.722698zM492.929391 891.487262a42.663556 42.663556 0 0 0 34.493484 1.621216l3.647734-1.621216 383.972002-191.986001c29.629839-14.825586 31.528368-55.825263 4.628996-73.637297l-2.986449-1.813201-383.972002-213.317779a42.663556 42.663556 0 0 0-38.16255-1.642547l-3.263762 1.642547-383.972002 213.317779c-28.947223 16.084161-29.075213 57.147833-1.429229 73.765288l3.071776 1.68521 383.972002 191.986001zM512 805.648188l-292.544002-146.293333L512 496.849371l292.52267 162.505484L512 805.648188z"  horiz-adv-x="1024" />
      
      <glyph glyph-name="code" unicode="&#59013;" d="M642.837333 884.8c8.789333 0 17.301333-2.688 24.704-7.893333l3.093334-2.346667 2.773333-2.581333 261.696-266.496c5.994667-6.122667 10.026667-13.866667 11.584-22.549334l0.512-3.776 0.170667-3.690666v-649.429334c0-21.098667-15.317333-38.826667-36.074667-42.261333l-3.328-0.426667-3.434667-0.149333H119.466667a42.88 42.88 0 0 0-42.282667 36.096l-0.426667 3.306667-0.128 3.434666V841.962667c0 21.098667 15.317333 38.826667 36.074667 42.261333l3.328 0.426667L119.466667 884.8h523.370666zM578.176 799.146667l-415.872-0.021334v-830.229333h699.370667V515.648l-240.64-0.042667a42.88 42.88 0 0 0-42.24 35.904l-0.426667 3.328-0.170667 3.626667-0.021333 240.682667z m85.674667-39.722667l0.021333-158.101333h155.242667l-155.264 158.101333zM444.224 463.488a42.666667 42.666667 0 0 0 64.426667-55.850667l-2.410667-2.773333-113.493333-120.021333 105.216-119.168a42.666667 42.666667 0 0 0-1.066667-57.664l-2.666667-2.56a42.666667 42.666667 0 0 0-57.664 1.088l-2.56 2.645333-130.986666 148.373333a42.666667 42.666667 0 0 0-1.429334 54.805334l2.389334 2.752 140.245333 148.373333zM634.752 436.992a42.666667 42.666667 0 0 0 83.157333-18.922667l-0.704-3.114666-77.12-288.533334a42.666667 42.666667 0 0 0-83.157333 18.922667l0.704 3.114667 77.12 288.533333z"  horiz-adv-x="1024" />
      
      <glyph glyph-name="menu" unicode="&#59014;" d="M394.624 360.53333299999997a90.517333 90.517333 0 0 0 89.92-81.408l0.341333-4.48 0.106667-4.522666v-303.146667a90.517333 90.517333 0 0 0-81.386667-89.92l-4.48-0.341333-4.522666-0.128H91.456A90.517333 90.517333 0 0 0 1.536-42.026666999999975l-0.341333 4.48-0.128 4.522667v303.146667a90.517333 90.517333 0 0 0 81.408 89.92l4.48 0.362666 4.522666 0.106667h303.146667z m515.370667 0a90.517333 90.517333 0 0 0 89.92-81.408l0.341333-4.48 0.128-4.522666v-303.146667a90.517333 90.517333 0 0 0-81.408-89.92l-4.48-0.341333-4.522667-0.128h-303.146666a90.517333 90.517333 0 0 0-89.92 81.386666l-0.341334 4.48-0.106666 4.522667v303.146667a90.517333 90.517333 0 0 0 81.386666 89.92l4.48 0.362666 4.522667 0.106667h303.146667z m-515.413334-85.12l-303.082666-0.042666a5.546667 5.546667 0 0 1-4.906667-2.922667l-0.277333-0.938667-0.128-1.429333v-303.082667a5.546667 5.546667 0 0 1 2.922666-4.885333l0.917334-0.277333 1.450666-0.128h303.104a5.546667 5.546667 0 0 1 4.906667 2.901333l0.277333 0.938667 0.128 1.429333V270.10133299999995a5.312 5.312 0 0 1-5.312 5.290667z m515.392 0l-303.104-0.042666a5.546667 5.546667 0 0 1-4.885333-2.922667l-0.298667-0.938667-0.128-1.429333v-303.082667a5.546667 5.546667 0 0 1 2.922667-4.885333l0.938667-0.277333 1.429333-0.128h303.104a5.546667 5.546667 0 0 1 4.906667 2.901333l0.277333 0.938667 0.128 1.429333v303.146667a5.290667 5.290667 0 0 1-5.290667 5.269333zM699.690667 867.072a83.072 83.072 0 0 0 110.336 6.357333l3.797333-3.221333 3.328-3.136 181.482667-181.482667a83.178667 83.178667 0 0 0 6.058666-110.677333l-2.922666-3.456-3.157334-3.328-181.44-181.44a82.56 82.56 0 0 0-43.328-22.912l-5.034666-0.810667-5.504-0.512-4.821334-0.128a82.624 82.624 0 0 0-51.136 17.493334l-3.946666 3.264-3.733334 3.498666-181.482666 181.546667a83.2 83.2 0 0 0-6.037334 110.656l2.922667 3.477333 3.136 3.328 181.482667 181.482667z m-305.066667-6.037333a90.517333 90.517333 0 0 0 89.92-81.386667l0.341333-4.48 0.106667-4.522667v-303.104a90.517333 90.517333 0 0 0-81.386667-89.92l-4.48-0.341333-4.522666-0.128H91.456a90.517333 90.517333 0 0 0-89.92 81.386667l-0.341333 4.48-0.128 4.522666V770.688A90.517333 90.517333 0 0 0 82.474667 860.586667l4.48 0.362666 4.522666 0.106667h303.146667z m363.818667-55.616l-178.602667-178.56 178.56-178.56 178.581333 178.581333-178.538666 178.538667zM394.581333 775.9573330000001H91.52a5.546667 5.546667 0 0 1-4.906667-2.922666l-0.277333-0.938667-0.128-1.429333v-303.082667a5.546667 5.546667 0 0 1 2.922667-4.885333l0.917333-0.298667 1.450667-0.106667h303.104a5.546667 5.546667 0 0 1 4.906666 2.901334l0.277334 0.938666 0.128 1.429334V770.6453329999999a5.312 5.312 0 0 1-5.312 5.312z"  horiz-adv-x="1024" />
      
      <glyph glyph-name="merge" unicode="&#59015;" d="M661.333333 896a42.666667 42.666667 0 0 0 42.666667-42.666667v-277.333333h277.333333a42.666667 42.666667 0 0 0 42.666667-42.666667v-618.666666a42.666667 42.666667 0 0 0-42.666667-42.666667H362.666667a42.666667 42.666667 0 0 0-42.666667 42.666667V192H42.666667a42.666667 42.666667 0 0 0-42.666667 42.666667V853.333333a42.666667 42.666667 0 0 0 42.666667 42.666667h618.666666z m277.333334-405.333333H704v-256a42.666667 42.666667 0 0 0-42.666667-42.666667H405.333333v-234.666667h533.333334V490.666667zM618.666667 810.666667H85.333333v-533.333334h234.666667V533.333333a42.666667 42.666667 0 0 0 42.666667 42.666667h256V810.666667z m0-320H405.333333v-213.333334h213.333334V490.666667z"  horiz-adv-x="1024" />
      
      <glyph glyph-name="copy" unicode="&#59016;" d="M704 682.666667a42.666667 42.666667 0 0 0 42.666667-42.666667v-725.333333a42.666667 42.666667 0 0 0-42.666667-42.666667H106.666667a42.666667 42.666667 0 0 0-42.666667 42.666667V640a42.666667 42.666667 0 0 0 42.666667 42.666667h597.333333z m-42.666667-85.333334H149.333333v-640h512V597.333333zM874.666667 896a85.333333 85.333333 0 0 0 85.226666-81.066667L960 810.666667v-640a85.333333 85.333333 0 0 0-81.066667-85.226667L874.666667 85.33333300000004h-64a42.666667 42.666667 0 0 0-3.2 85.226667L810.666667 170.66666699999996h64V810.666667H362.666667v-64a42.666667 42.666667 0 0 0-85.226667-3.2L277.333333 746.666667V810.666667A85.333333 85.333333 0 0 0 358.4 895.893333L362.666667 896h512z"  horiz-adv-x="1024" />
      
      <glyph glyph-name="codebase" unicode="&#59017;" d="M479.957333 866.474667a43.989333 43.989333 0 0 0 55.402667 5.12l2.922667-2.154667 3.178666-2.858667L992.512 428.8c16.832-16.853333 16.832-43.818667 0-60.650667-14.784-14.762667-37.845333-16.64-55.466667-4.949333l-3.029333 2.197333-3.242667 2.88 0.021334-355.114666c0.512-68.757333-53.205333-126.186667-122.368-133.546667l-4.970667-0.426667-4.906667-0.256-4.906666-0.085333H229.866667c-72.490667 0-132.010667 54.293333-137.28 124.352l-0.277334 4.906667-0.085333 4.949333-0.021333 356.202667-1.088-1.109334c-13.909333-13.909333-35.178667-16.384-52.330667-6.848l-3.157333 1.92-3.050667 2.218667-3.093333 2.709333a42.730667 42.730667 0 0 0-4.757334 54.890667l2.24 2.986667 2.688 2.922666L476.48 862.528c1.066667 1.386667 2.24 2.688 3.477333 3.946667z m31.018667-90.752l-331.882667-322.133334v-440.533333c0-24.469333 18.922667-44.906667 43.562667-47.914667l3.413333-0.32 3.306667-0.085333h563.776c25.642667 0 46.762667 18.346667 49.877333 41.898667l0.298667 3.242666 0.106667 3.178667-0.021334 439.978667L510.976 775.722667z m-66.752-312.234667a42.666667 42.666667 0 0 0 64.426667-55.850667l-2.410667-2.773333-113.493333-120.021333 105.216-119.168a42.666667 42.666667 0 0 0-1.066667-57.664l-2.666667-2.56a42.666667 42.666667 0 0 0-57.664 1.088l-2.56 2.645333-130.986666 148.373333a42.666667 42.666667 0 0 0-1.429334 54.805334l2.389334 2.752 140.245333 148.373333z m190.528-26.496a42.666667 42.666667 0 0 0 83.157333-18.922667l-0.704-3.114666-77.12-288.533334a42.666667 42.666667 0 0 0-83.157333 18.922667l0.704 3.114667 77.12 288.533333z"  horiz-adv-x="1024" />
      
      <glyph glyph-name="open" unicode="&#59018;" d="M277.333333 896c152.170667 0 273.92-133.930667 277.269334-298.453333l0.064-6.954667V490.666667h426.666666a42.666667 42.666667 0 0 0 42.666667-42.666667v-533.333333a42.666667 42.666667 0 0 0-42.666667-42.666667H256a42.666667 42.666667 0 0 0-42.666667 42.666667V448a42.666667 42.666667 0 0 0 42.666667 42.666667h213.333333v99.925333C469.333333 713.173333 382.229333 810.666667 277.333333 810.666667 174.250667 810.666667 88.341333 716.48 85.418667 596.906667L85.333333 590.592V469.333333a42.666667 42.666667 0 0 0-85.226666-3.2L0 469.333333v121.258667C0 758.2719999999999 123.029333 896 277.333333 896z m661.333334-490.666667H298.666667v-448h640V405.333333z m-320-90.325333a85.333333 85.333333 0 0 0 41.173333-160.106667c0.96-3.562667 1.493333-7.338667 1.493333-11.242666v-53.333334a42.666667 42.666667 0 1 0-85.333333 0v53.333334c0 3.904 0.533333 7.68 1.493333 11.285333A85.333333 85.333333 0 0 0 618.666667 315.00800000000004z"  horiz-adv-x="1024" />
      
      <glyph glyph-name="Administrator" unicode="&#59019;" d="M512 892.245333c167.616 0 303.616-136 303.616-303.616 0-100.266667-49.194667-192.704-129.770667-248.96A303.082667 303.082667 0 0 0 520.533333 285.013333l-8.554666-0.128h-3.968c-216.661333-2.090667-395.264-163.136-414.378667-371.221333-1.813333-20.096-16.832-35.669333-35.925333-37.248l-3.2-0.128H46.293333C23.04-123.73333300000002 5.162667-103.38133300000004 7.317333-79.78666699999997 24.533333 111.74400000000003 154.88 275.349333 338.176 339.626667a303.445333 303.445333 0 0 0-129.792 248.981333C208.384 756.266667 344.384 892.245333 512 892.245333z m0-85.397333c-120.362667 0-218.218667-97.941333-218.218667-218.346667 0-120.384 97.834667-218.218667 218.218667-218.218666 120.362667 0 218.218667 97.941333 218.218667 218.346666 0 120.384-97.834667 218.218667-218.218667 218.218667zM757.546667 317.589333c59.669333 59.648 156.778667 59.690667 216.469333 0 59.626667-59.626667 59.626667-156.864 0-216.469333a152.64 152.64 0 0 0-108.224-44.778667 147.989333 147.989333 0 0 0-66.752 16.32l-6.272 3.349334-50.346667-49.706667 62.229334-62.506667a42.773333 42.773333 0 0 0 0-60.437333 42.474667 42.474667 0 0 0-57.514667-2.56l-2.794667 2.56-61.866666 62.485333-77.290667-77.418666a42.090667 42.090667 0 0 0-30.165333-12.544 42.773333 42.773333 0 0 0-32.64 70.272l2.474666 2.709333 187.52 186.965333c-32.597333 59.392-23.018667 133.568 25.173334 181.76z m108.373333-40.618666c-17.898667 0-35.157333-6.954667-47.914667-19.690667a67.754667 67.754667 0 0 1 0-95.722667 67.754667 67.754667 0 0 1 95.701334 0 68.117333 68.117333 0 0 1 0.128 95.701334 67.882667 67.882667 0 0 1-47.914667 19.712z"  horiz-adv-x="1024" />
      
      <glyph glyph-name="close" unicode="&#59020;" d="M14.186667 881.8133330000001a42.666667 42.666667 0 0 0 60.352 0L512 444.352 949.461333 881.8133330000001a42.666667 42.666667 0 1 0 60.352-60.352L572.330667 384l437.482666-437.461333a42.666667 42.666667 0 0 0 2.474667-57.621334l-2.474667-2.730666a42.666667 42.666667 0 0 0-60.352 0L512 323.66933300000005 74.538667-113.81333299999994a42.666667 42.666667 0 1 0-60.352 60.352L451.648 384 14.186667 821.461333A42.666667 42.666667 0 0 0 11.733333 879.082667z"  horiz-adv-x="1024" />
      
      <glyph glyph-name="display" unicode="&#59021;" d="M512.042667 742.144c215.573333 0 407.232-132.010667 493.504-331.477333l7.786666-18.901334v-15.296c-82.005333-210.133333-278.933333-350.613333-501.290666-350.613333-215.68 0-407.317333 132.053333-493.589334 331.690667L10.666667 376.448v15.317333C92.693333 601.749333 289.621333 742.144 512.042667 742.144z m0-85.333333c-174.165333 0-331.712-103.317333-408.128-264.234667l-3.925334-8.448 0.298667-0.682667c74.026667-163.264 230.08-268.864 403.349333-272.170666l8.405334-0.085334c174.08 0 331.605333 103.381333 408.042666 264.426667l3.904 8.490667-0.277333 0.64c-74.026667 163.136-230.08 268.672-403.285333 272l-8.384 0.064z m0.042666-134.186667a138.624 138.624 0 0 0 0-277.248 138.666667 138.666667 0 0 0 0 277.248z m0-64a74.666667 74.666667 0 0 1-74.752-74.581333 74.666667 74.666667 0 0 1 149.333334 0 74.624 74.624 0 0 1-74.581334 74.581333z"  horiz-adv-x="1024" />
      
      <glyph glyph-name="Security2" unicode="&#59022;" d="M126.698667 764.032L510.272 885.546667 893.013333 764.117333c18.069333-5.269333 30.698667-21.674667 32.106667-40.490666l0.128-3.541334-2.346667-479.616-0.234666-2.261333-1.621334-7.168c-2.816-11.413333-7.594667-25.813333-15.616-43.904-15.978667-35.925333-39.210667-71.722667-71.04-105.088-2.837333-2.986667-5.76-5.930667-8.704-8.832-12.437333-12.224-28.586667-25.429333-48-39.466667l-13.44-9.450666c-9.28-6.4-19.157333-12.949333-29.632-19.626667l-16.128-10.154667-16.981333-10.325333-8.789333-5.248-18.176-10.624-18.432-10.517333-18.261334-10.176-18.176-9.941334-17.877333-9.578666-17.365333-9.130667-16.618667-8.576-15.637333-7.936-14.464-7.168-16.405334-8.064c-7.317333-4.565333-16.128-4.864-24.533333-1.578667l-3.114667 1.386667-7.04 4.096-13.589333 7.210667-7.445333 3.904-57.429334 30.826666-24.448 13.44-13.44 7.530667-23.36 13.418667-14.784 8.661333a1413.525333 1413.525333 0 0 0-64.810666 40.490667c-31.146667 20.757333-55.744 39.68-73.024 56.597333-35.157333 34.624-60.714667 72.213333-78.186667 110.293333-10.005333 21.802667-16.042667 40.917333-18.410667 52.885334l-0.512 2.837333-0.682666 6.592L94.72 720.1493330000001c0 18.773333 11.306667 35.413333 28.650667 42.645334l3.328 1.237333z m379.733333 30.954667l-2.645333-0.768L182.613333 692.117333a2.624 2.624 0 0 1-1.792-1.792l-0.149333-0.96 1.770667-438.976 0.682666-2.56c2.645333-9.386667 6.912-20.928 13.226667-34.005333l2.816-5.717333a291.626667 291.626667 0 0 1 56.234667-75.946667c11.328-11.2 27.690667-24.128 48.469333-38.528l12.992-8.810667 14.016-9.152 9.344-5.909333 19.733333-12.16 10.368-6.229333 24.32-14.229334 19.925334-11.349333 20.16-11.2 28.992-15.744 42.986666-22.805333c1.408-0.704 3.413333-0.704 4.736-0.042667l30.869334 15.936 29.568 15.573333 18.922666 10.197334 18.24 10.026666 17.557334 9.834667 16.832 9.664 16.085333 9.472 15.274667 9.258667c39.701333 24.448 70.72 46.72 90.453333 66.24a291.541333 291.541333 0 0 1 56.192 75.904c7.893333 15.466667 13.013333 28.970667 16.042667 39.701333l0.682666 2.624 1.770667 439.466667a2.773333 2.773333 0 0 1-1.344 2.496l-1.066667 0.448-320.298666 101.44a20.629333 20.629333 0 0 1-8.106667 1.088l-2.666667-0.384zM444.224 570.154667a42.666667 42.666667 0 0 0 64.426667-55.850667l-2.410667-2.773333-113.493333-120.021334 105.216-119.168a42.666667 42.666667 0 0 0-1.066667-57.664l-2.666667-2.56a42.666667 42.666667 0 0 0-57.664 1.088l-2.56 2.645334-130.986666 148.373333a42.666667 42.666667 0 0 0-1.429334 54.805333l2.389334 2.752 140.245333 148.373334zM634.752 543.6586669999999a42.666667 42.666667 0 0 0 83.157333-18.922667l-0.704-3.114667-77.12-288.533333a42.666667 42.666667 0 0 0-83.157333 18.922667l0.704 3.114666 77.12 288.533334z"  horiz-adv-x="1024" />
      
      <glyph glyph-name="token" unicode="&#59024;" d="M126.698667 764.032L510.272 885.546667 893.013333 764.117333c18.069333-5.269333 30.698667-21.674667 32.106667-40.490666l0.128-3.541334-2.346667-479.616-0.234666-2.261333-1.621334-7.168c-2.816-11.413333-7.594667-25.813333-15.616-43.904-15.978667-35.925333-39.210667-71.722667-71.04-105.088-2.837333-2.986667-5.76-5.930667-8.704-8.832-12.437333-12.224-28.586667-25.429333-48-39.466667l-13.44-9.450666c-9.28-6.4-19.157333-12.949333-29.632-19.626667l-16.128-10.154667-16.981333-10.325333-8.789333-5.248-18.176-10.624-18.432-10.517333-18.261334-10.176-18.176-9.941334-17.877333-9.578666-17.365333-9.130667-16.618667-8.576-15.637333-7.936-14.464-7.168-16.405334-8.064c-7.317333-4.565333-16.128-4.864-24.533333-1.578667l-3.114667 1.386667-7.04 4.096-13.589333 7.210667-7.445333 3.904-57.429334 30.826666-24.448 13.44-13.44 7.530667-23.36 13.418667-14.784 8.661333a1413.525333 1413.525333 0 0 0-64.810666 40.490667c-31.146667 20.757333-55.744 39.68-73.024 56.597333-35.157333 34.624-60.714667 72.213333-78.186667 110.293333-10.005333 21.802667-16.042667 40.917333-18.410667 52.885334l-0.512 2.837333-0.682666 6.592L94.72 720.1493330000001c0 18.773333 11.306667 35.413333 28.650667 42.645334l3.328 1.237333z m379.733333 30.954667l-2.645333-0.768L182.613333 692.117333a2.624 2.624 0 0 1-1.792-1.792l-0.149333-0.96 1.770667-438.976 0.682666-2.56c2.645333-9.386667 6.912-20.928 13.226667-34.005333l2.816-5.717333a291.626667 291.626667 0 0 1 56.234667-75.946667c11.328-11.2 27.690667-24.128 48.469333-38.528l12.992-8.810667 14.016-9.152 9.344-5.909333 19.733333-12.16 10.368-6.229333 24.32-14.229334 19.925334-11.349333 20.16-11.2 28.992-15.744 42.986666-22.805333c1.408-0.704 3.413333-0.704 4.736-0.042667l30.869334 15.936 29.568 15.573333 18.922666 10.197334 18.24 10.026666 17.557334 9.834667 16.832 9.664 16.085333 9.472 15.274667 9.258667c39.701333 24.448 70.72 46.72 90.453333 66.24a291.541333 291.541333 0 0 1 56.192 75.904c7.893333 15.466667 13.013333 28.970667 16.042667 39.701333l0.682666 2.624 1.770667 439.466667a2.773333 2.773333 0 0 1-1.344 2.496l-1.066667 0.448-320.298666 101.44a20.629333 20.629333 0 0 1-8.106667 1.088l-2.666667-0.384z m9.856-138.88l6.357333-0.149334c38.506667-1.557333 74.453333-17.130667 100.842667-44.16 57.344-56.064 59.221333-147.2 5.141333-206.037333l-3.84-4.053333-1.92-1.92a154.986667 154.986667 0 0 0-49.685333-32.128l-6.954667-2.602667-3.882666-1.258667-0.384-37.312h46.144a46.933333 46.933333 0 0 0 46.336-39.701333l0.362666-3.242667 0.106667-3.285333c0-12.864-4.992-24.32-14.122667-32.682667a46.506667 46.506667 0 0 0-29.098666-13.376l-4.181334-0.170666-46.272 0.021333v-84.821333c0-10.282667-3.2-19.669333-9.152-27.306667l-2.346666-2.773333-2.624-2.581334c-8.746667-8.746667-20.650667-13.546667-33.28-13.546666-24.448 0-44.949333 18.986667-46.698667 42.944l-0.106667 3.306666 0.554667 214.528-3.776 1.194667a151.530667 151.530667 0 0 0-45.866667 25.322667l-5.802666 4.906666-4.992 4.629334c-57.237333 55.957333-59.306667 147.050667-5.696 206.037333l3.84 4.053333 1.941333 1.962667c28.736 27.52 64.938667 43.136 102.826667 44.16l6.229333 0.042667z m-44.928-96.789334l-3.178667-2.944a68.096 68.096 0 0 1-3.968-93.930666l2.858667-3.072 1.194667-1.194667c13.056-13.056 30.741333-20.245333 49.557333-20.245333 37.717333 0.512 70.741333 32.874667 70.741333 69.376 0 18.453333-7.253333 36.117333-20.181333 49.066666a71.125333 71.125333 0 0 1-93.717333 5.653334l-3.306667-2.709334z"  horiz-adv-x="1024" />
      
      <glyph glyph-name="location" unicode="&#59025;" d="M511.978667 882.133333c229.973333 0 416.554667-178.346667 416.554666-398.421333 0-147.626667-77.589333-291.093333-206.634666-424.96a1272.597333 1272.597333 0 0 0-180.928-154.837333l-10.24-7.082667-7.808-5.269333-10.709334-6.912-7.36 4.138666-9.813333 5.845334-4.565333 2.816a1078.890667 1078.890667 0 0 0-188.288 149.546666c-129.109333 129.002667-206.72 275.477333-206.72 436.693334C95.466667 703.829333 282.026667 882.133333 511.978667 882.133333z m0-85.034666c-183.317333 0-331.434667-140.650667-331.434667-313.386667 0-124.885333 57.237333-246.357333 166.293333-360.725333l7.893334-8.149334 7.616-7.701333a994.688 994.688 0 0 1 130.432-109.226667l10.624-7.36 6.4-4.309333 7.445333 5.461333 11.434667 8.746667a1188.437333 1188.437333 0 0 1 118.186666 103.36l13.781334 13.994667c119.488 123.946667 182.826667 248.362667 182.826666 365.930666 0 172.714667-148.181333 313.386667-331.52 313.386667z m-4.906667-125.226667a188.586667 188.586667 0 0 0 187.989333-177.493333l0.256-5.546667 0.085334-5.546667a188.672 188.672 0 0 0-183.210667-188.501333l-5.546667-0.064-5.568 0.085333a188.586667 188.586667 0 0 0 0.426667 376.96l5.546667 0.085334z m-0.896-85.077333a103.530667 103.530667 0 0 1-4.224-206.954667l4.629333-0.106667a103.530667 103.530667 0 1 1-0.405333 207.061334z"  horiz-adv-x="1024" />
      
      <glyph glyph-name="milestone" unicode="&#59026;" d="M906.251373 896a42.66328 42.66328 0 0 0 42.66328-42.66328v-938.592166c0-32.893389-35.666502-53.414427-64.101578-36.882406L512 94.71960200000001 139.186925-122.13785199999995c-27.517816-15.99873-61.819093 2.687787-63.99492 33.746655L75.085347-85.255446V853.33672a42.66328 42.66328 0 0 0 42.66328 42.66328z m-42.66328-85.326561H160.390576v-821.758772l330.149794 192.027424a42.66328 42.66328 0 0 0 39.527529 1.770526l3.391731-1.770526 330.128463-192.027424V810.673439zM512 704.03657l68.965193-139.743574 154.227758-22.398222-111.607141-108.791365 26.344575-153.587809L512 352.043177l-137.930385-72.527577 26.344575 153.587809-111.607141 108.791365 154.227758 22.398222L512 704.03657z"  horiz-adv-x="1024" />
      
      <glyph glyph-name="merge2" unicode="&#59027;" d="M245.333333 896a149.333333 149.333333 0 0 0 42.688-292.48v-439.04a149.333333 149.333333 0 1 0-85.354666 0V603.52A149.333333 149.333333 0 0 0 245.333333 896z m533.333334-725.333333a149.333333 149.333333 0 1 0 0-298.666667 149.333333 149.333333 0 0 0 0 298.666667z m-533.333334-85.333334a64 64 0 1 1 0-128 64 64 0 0 1 0 128z m533.333334 0a64 64 0 1 1 0-128 64 64 0 0 1 0 128z m-533.333334 725.333334a64 64 0 1 1 0-128 64 64 0 0 1 0 128zM640.938667 597.333333l-213.333334 149.333334 213.333334 149.333333v-128h9.728a170.666667 170.666667 0 0 0 170.581333-165.333333l0.085333-5.333334v-448a42.666667 42.666667 0 0 0-85.226666-3.2L736 149.33333300000004V597.333333a85.333333 85.333333 0 0 1-81.066667 85.226667L650.666667 682.666667h-9.728v-85.333334z"  horiz-adv-x="1024" />
      
      <glyph glyph-name="hide" unicode="&#59028;" d="M1001.97568 665.408a43.733333 43.733333 0 0 0 12.522667-60.586667c-42.389333-64.426667-88.234667-118.912-137.429334-163.285333l134.122667-134.122667a43.733333 43.733333 0 1 0-61.866667-61.866666L807.693013 387.2a531.776 531.776 0 0 0-122.666666-61.653333l46.890666-175.061334a43.733333 43.733333 0 1 0-84.48-22.656l-47.232 176.256c-28.672-4.693333-58.069333-7.04-88.192-7.04-30.122667 0-59.52 2.346667-88.192 7.04l-47.210666-176.256a43.733333 43.733333 0 1 0-84.501334 22.656l46.890667 175.082667a531.776 531.776 0 0 0-122.666667 61.632L74.67968 245.56799999999998a43.733333 43.733333 0 1 0-61.866667 61.866667l134.144 134.101333c-49.194667 44.373333-95.04 98.858667-137.429333 163.306667a43.733333 43.733333 0 0 0 73.109333 48.064C201.357013 472.426667 343.54368 384.490667 512.013013 384.490667c168.490667 0 310.656 87.914667 429.376 268.416a43.733333 43.733333 0 0 0 60.586667 12.501333z"  horiz-adv-x="1024" />
      
      <glyph glyph-name="top" unicode="&#59029;" d="M533.397333 631.253333l2.816-2.346666 281.813334-256a42.666667 42.666667 0 0 0-54.549334-65.514667l-2.837333 2.346667L554.666667 496.896V-85.33333300000004a42.666667 42.666667 0 1 0-85.333334 0V503.04l-205.482666-192.832a42.666667 42.666667 0 0 0-57.664-0.64l-2.645334 2.56a42.666667 42.666667 0 0 0-0.64 57.685333l2.56 2.645334 272.874667 256a42.666667 42.666667 0 0 0 55.061333 2.816zM874.666667 896a42.666667 42.666667 0 1 0 0-85.333333H149.333333a42.666667 42.666667 0 1 0 0 85.333333h725.333334z"  horiz-adv-x="1024" />
      
      <glyph glyph-name="unfold" unicode="&#59030;" d="M539.237547 545.9839999999999l2.965333-2.453333 467.925333-426.666667a42.666667 42.666667 0 0 0-54.677333-65.429333l-2.837333 2.368-439.253334 400.554666-442.005333-400.64a42.666667 42.666667 0 0 0-57.685333 0.341334l-2.56 2.624a42.666667 42.666667 0 0 0 0.32 57.685333l2.624 2.56 470.741333 426.666667a42.666667 42.666667 0 0 0 54.442667 2.389333zM981.37088 725.333333a42.666667 42.666667 0 1 0 0-85.333333H42.704213a42.666667 42.666667 0 1 0 0 85.333333h938.666667z"  horiz-adv-x="1024" />
      
      <glyph glyph-name="compare" unicode="&#59031;" d="M981.610027 341.33333300000004a42.666667 42.666667 0 0 0 3.2-85.205333l-3.2-0.128H176.70336l311.445333-221.226667a42.666667 42.666667 0 0 0 11.989334-56.533333l-1.92-2.944a42.666667 42.666667 0 0 0-56.533334-11.989333l-2.944 1.92-420.501333 298.666666C-14.741973 287.29600000000005 0.490027 338.47466699999995 39.61536 341.226667L42.94336 341.33333300000004h938.666667zM582.804693 804.6933329999999l2.922667-1.92 420.501333-298.666666c32.981333-23.402667 17.749333-74.581333-21.397333-77.333334L981.524693 426.666667H42.858027a42.666667 42.666667 0 0 0-3.2 85.226666L42.858027 512h804.906666L536.298027 733.226667a42.666667 42.666667 0 0 0-11.968 56.533333l1.92 2.944a42.666667 42.666667 0 0 0 56.533333 11.989333z"  horiz-adv-x="1024" />
      
      <glyph glyph-name="environment" unicode="&#59032;" d="M512 896c282.703267 0 511.882349-229.179082 511.882349-511.882349S794.703267-127.76469799999995 512-127.76469799999995h5.631879a73.278428 73.278428 0 0 0-11.733081 0.021332C226.01147-124.45810300000005 0.117651 103.44100700000001 0.117651 384.117651 0.117651 666.820918 229.296733 896 512 896z m-102.184474-618.141402c6.399863-75.625044 19.58358-145.874203 38.676503-204.176952 12.202405-37.247201 26.55943-68.563862 41.577775-90.600723 9.557128-14.058365 17.364961-21.268877 21.716867-24.383477 4.330574 3.1146 12.138406 10.346445 21.695535 24.383477 15.018344 22.03686 29.396703 53.353522 41.577774 90.600723 19.092924 58.281416 32.276641 128.530575 38.676504 204.155619a1608.818811 1608.818811 0 0 0-101.736484-3.199932 1614.685352 1614.685352 0 0 0-102.184474 3.199932z m527.348684 71.465133l-6.399863-3.327929c-22.548849-11.306424-49.534937-21.503539-80.702268-30.527345-44.009722-12.75706-94.888631-22.719512-150.098112-29.631364-9.279801-127.570596-36.265888-238.202889-73.875748-312.910619a425.441537 425.441537 0 0 1 187.537309 109.565649 425.078879 425.078879 0 0 1 123.560015 266.831608z m-850.32842 0l1.002645-10.879767a421.814949 421.814949 0 0 1 31.082-120.317418 425.441537 425.441537 0 0 1 91.454037-135.634423 425.078879 425.078879 0 0 1 187.067986-109.437651c-37.588527 74.771729-64.553281 185.382689-73.811749 312.84662-55.038819 6.911852-105.768397 16.852972-149.671455 29.567365-34.175267 9.919787-63.35864 21.268877-87.123464 33.876607zM511.786671 809.1111980000001c-4.351907-3.1146-12.159739-10.325112-21.716867-24.362144-15.018344-22.03686-29.37537-53.374855-41.577775-90.622055-27.775404-84.862179-43.092409-195.046481-43.092408-310.201344 0-6.783854 0.085332-13.525043 0.170663-20.266232 34.452594-2.431948 70.142495-3.690587 106.429716-3.690587 36.137891 0 71.678462 1.25864 105.981726 3.647921 0.106664 6.741189 0.14933 13.525043 0.14933 20.308898 0 115.176195-15.295672 225.339165-43.092409 310.201344-12.159739 37.247201-26.538097 68.585195-41.556441 90.622055-9.557128 14.037032-17.364961 21.268877-21.695535 24.362144z m114.045553-13.717039l1.791962-3.583923c46.079011-93.480661 75.838373-241.40282 75.838372-407.884581 0-3.86125 0-7.722501-0.042666-11.562419 40.617795 5.546548 78.355652 12.927723 111.826934 21.972862 89.811406 24.234147 113.917556 51.2629 115.43219 57.172107l-0.042666-0.554655h2.773274a425.441537 425.441537 0 0 1-119.784096 234.810961 425.249542 425.249542 0 0 1-187.793304 109.629648z m-228.155104-0.14933l-8.981141-2.602611a425.441537 425.441537 0 0 1-178.321507-106.877707 425.249542 425.249542 0 0 1-119.762763-234.789628h2.773274c0 0.277327-0.042666 0.490656-0.042666 0.533322h-0.021333l0.170663-0.469324c2.559945-6.613191 26.452766-31.721986 108.669668-54.868155l6.613192-1.834628c33.343285-9.002473 70.910478-16.340983 111.378943-21.908863a1375.330488 1375.330488 0 0 0-0.042666 11.49842c0 168.529717 30.506012 318.051842 77.566336 411.297841z"  horiz-adv-x="1024" />
      
      <glyph glyph-name="uploading" unicode="&#59033;" d="M960 256a42.666667 42.666667 0 0 0 42.56-39.466667L1002.666667 213.33333300000004v-256a85.333333 85.333333 0 0 0-81.066667-85.226666L917.333333-128H106.666667a85.333333 85.333333 0 0 0-85.226667 81.066667L21.333333-42.66666699999996V213.33333300000004a42.666667 42.666667 0 0 0 85.226667 3.2L106.666667 213.33333300000004v-256h810.666666V213.33333300000004a42.666667 42.666667 0 0 0 42.666667 42.666667zM484.16 882.581333a42.666667 42.666667 0 0 0 58.026667-2.176l271.509333-271.530666 2.176-2.325334a42.666667 42.666667 0 0 0-2.176-58.005333l-2.346667-2.176a42.666667 42.666667 0 0 0-57.984 2.176l-200.085333 200.106667 1.322667-459.008a42.666667 42.666667 0 0 0-85.205334-3.434667l-0.128 3.2-1.322666 456.448-197.312-197.312-2.346667-2.176a42.666667 42.666667 0 0 0-57.984 62.506667L481.834667 880.426667z"  horiz-adv-x="1024" />
      
      <glyph glyph-name="store" unicode="&#59034;" d="M479.957333 866.474667a43.989333 43.989333 0 0 0 55.402667 5.12l2.922667-2.154667 3.178666-2.858667L992.512 428.8c16.832-16.853333 16.832-43.818667 0-60.650667-14.784-14.762667-37.845333-16.64-55.466667-4.949333l-3.029333 2.197333-3.242667 2.88 0.021334-355.114666c0.512-68.757333-53.205333-126.186667-122.368-133.546667l-4.970667-0.426667-4.906667-0.256-4.906666-0.085333H229.866667c-72.490667 0-132.010667 54.293333-137.28 124.352l-0.277334 4.906667-0.085333 4.949333-0.021333 356.202667-1.088-1.109334c-13.909333-13.909333-35.178667-16.384-52.330667-6.848l-3.157333 1.92-3.050667 2.218667-3.093333 2.709333a42.730667 42.730667 0 0 0-4.757334 54.890667l2.24 2.986667 2.688 2.922666L476.48 862.528c1.066667 1.386667 2.24 2.688 3.477333 3.946667z m31.018667-90.752l-331.882667-322.133334v-440.533333c0-24.469333 18.922667-44.906667 43.562667-47.914667l3.413333-0.32 3.306667-0.085333h563.776c25.642667 0 46.762667 18.346667 49.877333 41.898667l0.298667 3.242666 0.106667 3.178667-0.021334 439.978667L510.976 775.722667zM512 559.274667a167.765333 167.765333 0 0 0 119.125333-285.909334l-4.074666-3.968-0.896-0.789333 2.176-1.258667a229.290667 229.290667 0 0 0 112.725333-185.386666l0.234667-6.314667 0.085333-6.016a37.632 37.632 0 0 0-75.264 0 154.112 154.112 0 1 1-308.224 0 37.632 37.632 0 0 0-75.264 0c0 80.384 41.728 153.28 107.904 194.602667l5.12 3.114666 2.176 1.258667-0.853333 0.789333a167.296 167.296 0 0 0-52.352 110.656l-0.298667 5.845334-0.085333 5.610666A167.765333 167.765333 0 0 0 512 559.274667z m0-75.242667a92.522667 92.522667 0 1 1 0-185.024 92.522667 92.522667 0 0 1 0 185.024z"  horiz-adv-x="1024" />
      
      <glyph glyph-name="privacy" unicode="&#59035;" d="M512 896c152.170667 0 273.92-133.930667 277.269333-298.453333l0.064-6.954667V490.666667h85.333334a42.666667 42.666667 0 0 0 42.666666-42.666667v-533.333333a42.666667 42.666667 0 0 0-42.666666-42.666667H149.333333a42.666667 42.666667 0 0 0-42.666666 42.666667V448a42.666667 42.666667 0 0 0 42.666666 42.666667h85.333334v99.925333C234.666667 758.2719999999999 357.696 896 512 896z m320-490.666667H192v-448h640V405.333333z m-320-90.325333a85.333333 85.333333 0 0 0 41.173333-160.106667c0.96-3.562667 1.493333-7.338667 1.493334-11.242666v-53.333334a42.666667 42.666667 0 1 0-85.333334 0v53.333334c0 3.904 0.533333 7.68 1.493334 11.285333A85.333333 85.333333 0 0 0 512 315.00800000000004zM512 810.666667c-103.082667 0-188.992-94.186667-191.914667-213.76l-0.085333-6.314667V490.666667h384v99.925333C704 713.173333 616.896 810.666667 512 810.666667z"  horiz-adv-x="1024" />
      
      <glyph glyph-name="data" unicode="&#59036;" d="M970.666667-22.698667a42.666667 42.666667 0 1 0 0-85.333333h-917.333334a42.666667 42.666667 0 1 0 0 85.333333h917.333334zM963.882667 890.133333a54.250667 54.250667 0 0 0 54.144-50.688l0.106666-3.562666v-677.824a54.250667 54.250667 0 0 0-50.688-54.144l-3.562666-0.106667H60.117333A54.250667 54.250667 0 0 0 5.973333 154.49599999999998l-0.106666 3.562667V835.882667A54.250667 54.250667 0 0 0 56.554667 890.026667l3.562666 0.106666h903.765334z m-31.68-85.909333H91.776v-614.485333h840.426667V804.224z m-241.749334-136.832l2.752-2.176 3.157334-2.986667 140.416-146.88c16.384-17.130667 15.786667-44.330667-1.365334-60.736a43.008 43.008 0 0 0-54.997333-3.626666l-2.901333 2.304-2.837334 2.688-105.173333 110.016-186.816-252.714667a42.944 42.944 0 0 0-50.325333-14.378667l-3.328 1.493334-3.264 1.749333-3.050667 2.048-229.888 168.96a42.965333 42.965333 0 0 0-9.173333 60.053333 43.008 43.008 0 0 0 53.909333 12.928l3.072-1.706666 3.072-2.048 195.349333-143.552 191.722667 259.242666a42.965333 42.965333 0 0 0 59.669333 9.322667z"  horiz-adv-x="1024" />
      
      <glyph glyph-name="jurisdiction" unicode="&#59037;" d="M491.733333 892.906667c270.997333 0 490.666667-219.690667 490.666667-490.666667 0-119.104-42.432-228.288-113.002667-313.28l141.034667-141.013333a42.666667 42.666667 0 0 0-60.330667-60.352l-140.693333 140.672a488.725333 488.725333 0 0 0-317.653333-116.693334c-270.997333 0-490.666667 219.669333-490.666667 490.666667 0 270.976 219.669333 490.666667 490.666667 490.666667z m0-85.333334c-223.850667 0-405.333333-181.482667-405.333333-405.333333 0-223.872 181.482667-405.333333 405.333333-405.333333 223.872 0 405.333333 181.461333 405.333334 405.333333 0 223.850667-181.461333 405.333333-405.333334 405.333333z m106.88-249.984a42.666667 42.666667 0 0 0 61.866667 3.626667l2.986667-3.072 110.250666-126.592a42.666667 42.666667 0 0 0-4.16-60.202667 42.773333 42.773333 0 0 0-57.557333 1.408l-2.645333 2.752-77.525334 89.024-180.885333-215.061333a42.709333 42.709333 0 0 0-55.573333-8.469333l-2.965334 2.026666-2.837333 2.346667-171.754667 156.373333a42.666667 42.666667 0 0 0-2.837333 60.245334 42.773333 42.773333 0 0 0 57.322667 5.269333l2.944-2.432 138.944-126.464z"  horiz-adv-x="1024" />
      
      <glyph glyph-name="inform" unicode="&#59038;" d="M512 863.232a68.48 68.48 0 0 0 66.709333-53.12l0.768-3.84 0.192-1.557333 6.272-1.216c155.797333-31.786667 272.448-164.842667 282.56-324.906667l0.384-7.509333 0.234667-7.445334 0.085333-7.530666-0.021333-325.610667h91.093333a42.666667 42.666667 0 0 0 42.197334-36.224l0.362666-3.264 0.128-3.2c0-20.906667-15.146667-38.528-35.776-42.069333l-3.306666-0.426667-3.584-0.170667-255.104 0.021334-0.512-2.346667a197.930667 197.930667 0 0 0-181.034667-152.490667l-5.866667-0.256-5.781333-0.085333a197.930667 197.930667 0 0 0-191.296 147.2l-1.386667 5.632-0.533333 2.346667H67.008a42.666667 42.666667 0 0 0-42.176 36.202666l-0.362667 3.264-0.128 3.2c0 20.906667 15.146667 38.528 35.776 42.048l3.306667 0.448 3.584 0.149334 93.056 0.021333V456.106667c0 165.077333 113.6 306.453333 270.506667 344.533333l7.296 1.706667 6.293333 1.322666 0.362667 2.538667a68.48 68.48 0 0 0 59.605333 56.576l3.989333 0.32 3.882667 0.128z m104.085333-818.090667h-208.213333l0.128-0.298666a112.576 112.576 0 0 1 99.072-69.418667l4.928-0.106667a112.576 112.576 0 0 1 102.08 65.130667l2.005333 4.693333zM514.56 725.3546670000001l-6.549333-0.106667c-141.077333-3.413333-255.616-115.477333-262.293334-256.042667l-0.213333-6.613333-0.085333-6.485333-0.042667-325.589334h538.474667V456.106667c0 141.717333-109.76 258.602667-249.728 268.544l-6.592 0.384-6.4 0.213333-6.570667 0.106667z"  horiz-adv-x="1024" />
      
      <glyph glyph-name="begin" unicode="&#59039;" d="M512.106667 887.786667l8.213333-0.064C794.816 883.242667 1015.786667 658.901333 1015.786667 384c0-277.994667-225.792-503.786667-503.786667-503.786667C234.005333-119.78666699999997 8.213333 106.00533299999995 8.213333 384 8.213333 659.2 229.504 883.264 503.68 887.722667l8.426667 0.064zM512 802.432C281.6 802.432 93.568 614.4 93.568 384S281.6-34.432000000000016 512-34.432000000000016 930.432 153.60000000000002 930.432 384 742.4 802.432 512 802.432z m-105.173333-162.069333l3.797333-1.728 387.776-223.530667c12.928-8.106667 17.941333-21.44 17.941333-38.506667 0-14.933333-6.613333-28.821333-18.048-35.968l-2.730666-1.514666-386.730667-222.912c-5.674667-3.776-13.866667-5.696-21.44-5.696-6.848 0-13.610667 1.685333-21.76 5.930666-11.093333 7.936-18.474667 19.989333-19.626667 33.216l-0.170666 3.626667V601.152c0 15.744 8.810667 30.933333 22.634666 37.845333a45.888 45.888 0 0 0 38.357334 1.386667z m24.576-112.896v-299.242667l260.181333 149.610667-260.181333 149.632z"  horiz-adv-x="1024" />
      
      <glyph glyph-name="homepage" unicode="&#59040;" d="M479.957333 866.474667a43.989333 43.989333 0 0 0 55.402667 5.12l2.922667-2.154667 3.178666-2.858667L992.512 428.8c16.832-16.853333 16.832-43.818667 0-60.650667-14.784-14.762667-37.845333-16.64-55.466667-4.949333l-3.029333 2.197333-3.242667 2.88 0.021334-355.114666c0.512-68.757333-53.205333-126.186667-122.368-133.546667l-4.970667-0.426667-4.906667-0.256-4.906666-0.085333H229.866667c-72.490667 0-132.010667 54.293333-137.28 124.352l-0.277334 4.906667-0.085333 4.949333-0.021333 356.202667-1.088-1.109334c-13.909333-13.909333-35.178667-16.384-52.330667-6.848l-3.157333 1.92-3.050667 2.218667-3.093333 2.709333a42.730667 42.730667 0 0 0-4.757334 54.890667l2.24 2.986667 2.688 2.922666L476.48 862.528c1.066667 1.386667 2.24 2.688 3.477333 3.946667z m31.018667-90.752l-331.882667-322.133334v-440.533333c0-24.469333 18.922667-44.906667 43.562667-47.914667l3.413333-0.32 3.306667-0.085333h563.776c25.642667 0 46.762667 18.346667 49.877333 41.898667l0.298667 3.242666 0.106667 3.178667-0.021334 439.978667L510.976 775.722667zM384 128h256a42.666667 42.666667 0 1 0 0-85.333333H384a42.666667 42.666667 0 1 0 0 85.333333z"  horiz-adv-x="1024" />
      
      <glyph glyph-name="task" unicode="&#59041;" d="M836.266667 874.666667c66.026667 0 121.109333-49.344 123.648-112.768L960 757.333333v-433.109333a42.666667 42.666667 0 0 0-85.226667-3.2l-0.106666 3.2V757.333333c0 15.957333-14.762667 30.4-34.986667 31.872L836.266667 789.333333H187.733333c-20.8 0-36.650667-13.589333-38.272-29.354666L149.333333 757.333333v-746.666666c0-15.957333 14.762667-30.4 34.986667-31.872L187.733333-21.33333300000004h263.466667a42.666667 42.666667 0 0 0 3.2-85.226667l-3.2-0.106667H187.733333c-66.026667 0-121.109333 49.344-123.648 112.768L64 10.666666999999961v746.666666c0 64.085333 53.546667 114.922667 119.04 117.248L187.733333 874.666667h648.533334zM732.373333 310.677333c117.824 0 213.333333-95.509333 213.333334-213.333333s-95.509333-213.333333-213.333334-213.333333-213.333333 95.509333-213.333333 213.333333 95.509333 213.333333 213.333333 213.333333z m0-64a149.333333 149.333333 0 1 1 0-298.666666 149.333333 149.333333 0 0 1 0 298.666666z m-11.605333-42.602666c14.613333 0 26.453333-11.84 26.453333-26.453334v-67.797333l67.882667-0.064c12.992 0 23.786667-9.386667 26.026667-21.717333l0.426666-4.778667c0-14.613333-11.84-26.453333-26.453333-26.453333h-94.336a26.474667 26.474667 0 0 0-26.474667 26.453333v94.336c0 14.634667 11.84 26.474667 26.453334 26.474667zM661.333333 661.333333a42.666667 42.666667 0 0 0 3.2-85.226666L661.333333 576H277.333333a42.666667 42.666667 0 0 0-3.2 85.226667L277.333333 661.333333h384zM448 405.333333a42.666667 42.666667 0 0 0 3.2-85.226666L448 320h-170.666667a42.666667 42.666667 0 0 0-3.2 85.226667L277.333333 405.333333h170.666667z"  horiz-adv-x="1024" />
      
      <glyph glyph-name="video" unicode="&#59042;" d="M356.48 882.432l2.986667-1.856L512 777.066667 664.533333 880.576l2.986667 1.856a42.666667 42.666667 0 0 0 47.786667-70.378667l-2.837334-2.069333L619.2 746.666667 938.666667 746.666667a85.333333 85.333333 0 0 0 85.333333-85.333334v-682.666666a85.333333 85.333333 0 0 0-85.333333-85.333334H85.333333a85.333333 85.333333 0 0 0-85.333333 85.333334V661.333333a85.333333 85.333333 0 0 0 85.333333 85.333334h319.445334l-93.248 63.317333A42.666667 42.666667 0 0 0 356.48 882.432zM938.666667 661.333333H85.333333v-682.666666h853.333334V661.333333z m-558.186667-99.946666a42.666667 42.666667 0 0 0 23.253333-6.890667l305.706667-198.72a42.666667 42.666667 0 0 0 0-71.552l-305.706667-198.698667a42.666667 42.666667 0 0 0-65.92 35.754667v397.44a42.666667 42.666667 0 0 0 42.666667 42.666667z m42.666667-121.28v-240.192l184.789333 120.106666-184.789333 120.106667z"  horiz-adv-x="1024" />
      
      <glyph glyph-name="item" unicode="&#59043;" d="M959.103819 225.13949100000002a42.662578 42.662578 0 0 0-7.913908-57.25318l-2.794399-2.133129L536.31767-120.36339899999996a42.662578 42.662578 0 0 0-45.691622-1.898484l-2.98638 1.919816L75.604488 165.75318200000004a42.662578 42.662578 0 0 0 45.712952 71.971769l2.96505-1.898484 387.696179-269.243531 387.738841 269.243531a42.662578 42.662578 0 0 0 59.386309-10.708307z m0 183.150448a42.662578 42.662578 0 0 0-7.913908-57.274511l-2.794399-2.111798L536.31767 62.76571799999999a42.662578 42.662578 0 0 0-45.691622-1.919816l-2.98638 1.919816L75.604488 348.90363a42.662578 42.662578 0 0 0 45.712952 71.971769l2.96505-1.877153L512 149.733384l387.71751 269.243531a42.662578 42.662578 0 0 0 59.386309-10.708307zM487.68233 888.286606a42.662578 42.662578 0 0 0 48.63534 0l412.077842-286.159243a42.662578 42.662578 0 0 0 0-70.073285L536.31767 245.89483499999994a42.662578 42.662578 0 0 0-48.678002 0L75.604488 532.054078a42.662578 42.662578 0 0 0 0 70.073285zM512 801.31894L174.730988 567.101386l337.247681-234.217554 337.24768 234.217554L512 801.31894z"  horiz-adv-x="1024" />
      
      <glyph glyph-name="folder" unicode="&#59044;" d="M349.696 871.616c53.12 0 103.594667-28.074667 131.541333-72.064l1.301334-2.133333h323.456c81.109333 0 148.053333-63.637333 153.386666-143.466667l0.256-5.12 0.085334-5.141333V616.5333330000001l2.666666-2.176c32.277333-27.392 52.8-65.557333 56.192-106.88l0.384-6.208 0.128-5.973333v-445.184c0-82.837333-66.368-150.890667-148.565333-153.642667l-5.162667-0.085333H158.634667c-82.837333 0-150.890667 66.368-153.642667 148.565333L4.906667 50.13333299999999V717.888c0 82.837333 66.368 150.890667 148.565333 153.642667l5.162667 0.085333h191.061333z m0-84.864H158.634667a69.12 69.12 0 0 1-68.757334-64.981333l-0.106666-3.882667v-667.776a69.12 69.12 0 0 1 64.981333-68.757333l3.882667-0.106667h704.853333a69.12 69.12 0 0 1 68.778667 64.981333l0.106666 3.882667V495.296a69.12 69.12 0 0 1-64.981333 68.757333l-3.882667 0.106667h-280.106666c-65.258667 0-123.477333 41.642667-144.32 102.272l-1.706667 5.248-22.314667 66.965333c-8.576 29.205333-34.282667 48.106667-65.365333 48.106667z m179.925333-620.010667c23.36 0 42.432-19.072 42.432-42.432a42.56 42.56 0 0 0-39.274666-42.304l-3.157334-0.128H232.832a42.538667 42.538667 0 0 0-42.432 42.453334c0 22.272 17.386667 40.661333 39.274667 42.304l3.157333 0.106666h296.789333zM805.994667 712.554667H509.184l5.141333-15.424c8.042667-27.328 33.152-46.4 61.504-48l3.882667-0.106667h294.912l-0.192 2.389333a69.162667 69.162667 0 0 1-64.533333 61.013334l-3.904 0.128z"  horiz-adv-x="1024" />
      
      <glyph glyph-name="audit" unicode="&#59045;" d="M854.165333 886.826667a114.197333 114.197333 0 0 0 113.066667-98.624l0.554667-4.842667 0.490666-10.666667v-474.410666a42.602667 42.602667 0 0 0-42.581333-42.581334c-19.52 0-36.288 13.226667-41.237333 32.149334l-0.746667 3.413333-0.618667 7.04V772.6933329999999c0 13.12-8.768 24.405333-20.544 27.797334l-2.56 0.597333-5.824 0.554667H169.813333c-13.098667 0-24.384-8.789333-27.776-20.544l-0.618666-2.56-0.533334-5.845334v-777.386666c0-13.12 8.768-24.405333 20.544-27.797334l2.56-0.597333 5.824-0.554667h394.069334c23.509333 0 42.581333-19.072 42.581333-42.581333 0-19.541333-13.226667-36.309333-32.149333-41.258667l-3.413334-0.746666-7.04-0.597334H169.877333a114.197333 114.197333 0 0 0-113.066666 98.624l-0.576 4.842667-0.490667 10.666667V772.6933329999999A114.197333 114.197333 0 0 0 154.325333 885.76l4.842667 0.576 10.666667 0.490667H854.186667zM577.792 276.544a178.282667 178.282667 0 0 0 281.962667-212.693333l-3.328-5.674667 68.970666-69.013333c14.890667-14.890667 16.448-38.037333 4.693334-54.656l-2.197334-2.88-2.496-2.709334a42.624 42.624 0 0 0-51.712-6.506666l-3.114666 1.962666-5.397334 4.544-68.992 69.013334-0.448-0.298667a178.368 178.368 0 0 0-208.832 18.261333l-4.672 4.224-4.437333 4.266667a178.282667 178.282667 0 0 0 0 252.16z m60.245333-60.245333a93.098667 93.098667 0 1 1 131.648-131.669334 93.098667 93.098667 0 0 1-131.648 131.669334z m-87.168 234.730666c23.509333 0 42.581333-19.072 42.581334-42.602666 0-19.52-13.226667-36.288-32.149334-41.237334l-3.413333-0.746666-7.04-0.597334H285.973333a42.602667 42.602667 0 0 0-42.581333 42.581334c0 19.52 13.226667 36.288 32.149333 41.237333l3.413334 0.746667 7.04 0.618666h264.896z m101.888 216.256c23.530667 0 42.602667-19.072 42.602667-42.602666 0-19.52-13.226667-36.288-32.149333-41.237334l-3.413334-0.746666-7.04-0.597334H285.952a42.602667 42.602667 0 0 0-42.581333 42.581334c0 19.52 13.226667 36.288 32.149333 41.237333l3.413333 0.746667 7.04 0.618666h366.784z"  horiz-adv-x="1024" />
      
      <glyph glyph-name="packup" unicode="&#59046;" d="M969.152 9.685333000000014a42.666667 42.666667 0 0 0 42.666667-42.666666 42.773333 42.773333 0 0 0-39.082667-42.517334l-3.584-0.149333H54.826667a42.666667 42.666667 0 0 0-42.666667 42.666667c0 22.037333 16.789333 40.384 39.082667 42.517333l3.584 0.149333z m27.072 533.184a21.333333 21.333333 0 0 0 5.12-13.866666V241.06666700000005a21.333333 21.333333 0 0 0-35.2-16.213334l-168.490667 143.957334a21.333333 21.333333 0 0 0 0 32.426666l168.490667 144a21.333333 21.333333 0 0 0 30.08-2.368z m-363.584-115.178666a42.666667 42.666667 0 0 0 42.666667-42.666667 42.773333 42.773333 0 0 0-39.082667-42.496l-3.584-0.170667H54.826667a42.666667 42.666667 0 0 0-42.666667 42.666667c0 22.037333 16.789333 40.405333 39.082667 42.517333l3.584 0.149334zM969.152 845.717333a42.666667 42.666667 0 0 0 42.666667-42.666666 42.773333 42.773333 0 0 0-39.082667-42.517334l-3.584-0.149333H54.826667a42.666667 42.666667 0 0 0-42.666667 42.666667c0 22.037333 16.789333 40.384 39.082667 42.496l3.584 0.170666z"  horiz-adv-x="1024" />
      
      <glyph glyph-name="drag" unicode="&#59047;" d="M279.258182 58.18278799999996a93.096727 93.096727 0 1 0 0-186.172122 93.096727 93.096727 0 0 0 0 186.172122z m465.483636 0a93.096727 93.096727 0 1 0 0-186.172122 93.096727 93.096727 0 0 0 0 186.172122zM279.258182 477.096727a93.096727 93.096727 0 1 0 0-186.193454 93.096727 93.096727 0 0 0 0 186.193454z m465.483636 0a93.096727 93.096727 0 1 0 0-186.193454 93.096727 93.096727 0 0 0 0 186.193454zM279.258182 895.989334a93.096727 93.096727 0 1 0 0-186.172122 93.096727 93.096727 0 0 0 0 186.172122z m465.483636 0a93.096727 93.096727 0 1 0 0-186.172122 93.096727 93.096727 0 0 0 0 186.172122z"  horiz-adv-x="1024" />
      
      <glyph glyph-name="download" unicode="&#59048;" d="M959.999907 255.99991999999997a42.666658 42.666658 0 0 0 42.559991-39.466658L1002.666564 213.333262v-255.999946a85.333316 85.333316 0 0 0-81.066649-85.226649L917.333249-128H106.666751a85.333316 85.333316 0 0 0-85.226649 81.06665L21.333436-42.66668400000003V213.333262a42.666658 42.666658 0 0 0 85.226648 3.2L106.666751 213.333262v-255.999946h810.666498V213.333262a42.666658 42.666658 0 0 0 42.666658 42.666658zM510.229334 895.999787a42.666658 42.666658 0 0 0 42.666657-39.359992l0.128-3.199999 1.429333-510.165228 198.911959 198.890626a42.666658 42.666658 0 0 0 58.005321 2.175999l2.346666-2.175999a42.666658 42.666658 0 0 0 2.133333-58.005322l-2.133333-2.346666-271.551943-271.509276a42.666658 42.666658 0 0 0-58.005321-2.176l-2.346666 2.176L210.325396 481.83454a42.666658 42.666658 0 0 0 58.005321 62.506653l2.346667-2.175999 198.463958-198.463959-1.429333 509.503894A42.666658 42.666658 0 0 0 510.229334 895.999787z"  horiz-adv-x="1024" />
      
      <glyph glyph-name="stop" unicode="&#59049;" d="M218.922667 788.266667c22.976 0 41.749333-18.773333 41.749333-41.770667 0-13.504-7.125333-26.133333-18.517333-35.242667-96.426667-78.72-153.088-196.629333-153.088-325.333333A419.776 419.776 0 0 1 510.08-35.072 419.776 419.776 0 0 1 931.072 385.92c0 128.533333-58.368 248.362667-157.162667 329.386667a41.28 41.28 0 0 0-12.522666 29.269333c0 22.976 18.794667 41.770667 41.237333 41.728 11.733333 1.941333 22.677333-1.493333 29.568-8.405333C948.266667 681.8133330000001 1016.533333 540.650667 1016.533333 387.84A503.530667 503.530667 0 0 0 512-116.69333300000005 503.530667 503.530667 0 0 0 7.466667 387.84c0 152.789333 68.266667 293.973333 184.469333 390.122667 9.216 6.912 17.386667 10.282667 26.986667 10.282666zM512 884.693333c21.930667 0 40.042667-17.130667 41.642667-38.677333l0.128-3.093333v-539.904c0-22.976-18.773333-41.770667-41.770667-41.770667a41.898667 41.898667 0 0 0-41.642667 38.656l-0.128 3.114667V842.922667c0 22.976 18.773333 41.749333 41.770667 41.749333z"  horiz-adv-x="1024" />
      
      <glyph glyph-name="unfold3" unicode="&#59050;" d="M969.152 9.685333000000014a42.666667 42.666667 0 0 0 42.666667-42.666666 42.773333 42.773333 0 0 0-39.082667-42.517334l-3.584-0.149333H54.826667a42.666667 42.666667 0 0 0-42.666667 42.666667c0 22.037333 16.789333 40.384 39.082667 42.517333l3.584 0.149333z m-185.386667 533.184a21.333333 21.333333 0 0 0 30.08 2.346667l168.512-143.957333a21.333333 21.333333 0 0 0 0-32.426667l-168.490666-144a21.333333 21.333333 0 0 0-35.2 16.213333V529.024a21.333333 21.333333 0 0 0 5.12 13.866667z m-151.125333-115.178666a42.666667 42.666667 0 0 0 42.666667-42.666667 42.773333 42.773333 0 0 0-39.082667-42.496l-3.584-0.170667H54.826667a42.666667 42.666667 0 0 0-42.666667 42.666667c0 22.037333 16.789333 40.405333 39.082667 42.517333l3.584 0.149334zM969.152 845.717333a42.666667 42.666667 0 0 0 42.666667-42.666666 42.773333 42.773333 0 0 0-39.082667-42.517334l-3.584-0.149333H54.826667a42.666667 42.666667 0 0 0-42.666667 42.666667c0 22.037333 16.789333 40.384 39.082667 42.496l3.584 0.170666z"  horiz-adv-x="1024" />
      
      <glyph glyph-name="role" unicode="&#59051;" d="M970.666667-22.698667a42.666667 42.666667 0 1 0 0-85.333333h-917.333334a42.666667 42.666667 0 1 0 0 85.333333h917.333334zM963.882667 890.133333a54.250667 54.250667 0 0 0 54.144-50.688l0.106666-3.562666v-677.824a54.250667 54.250667 0 0 0-50.688-54.144l-3.562666-0.106667H60.117333A54.250667 54.250667 0 0 0 5.973333 154.49599999999998l-0.106666 3.562667V835.882667A54.250667 54.250667 0 0 0 56.554667 890.026667l3.562666 0.106666h903.765334z m-31.68-85.909333H91.776v-614.485333h840.426667V804.224zM512 760.618667a167.765333 167.765333 0 0 0 119.125333-285.909334l-4.074666-3.989333-0.896-0.789333 2.176-1.258667a229.290667 229.290667 0 0 0 112.725333-185.386667l0.234667-6.314666 0.085333-6.016a37.632 37.632 0 0 0-75.264 0 154.112 154.112 0 1 1-308.224 0 37.632 37.632 0 0 0-75.264 0c0 80.384 41.728 153.28 107.904 194.624l5.12 3.114666 2.176 1.237334-0.853333 0.810666a167.296 167.296 0 0 0-52.352 110.656l-0.298667 5.824-0.085333 5.632A167.765333 167.765333 0 0 0 512 760.618667z m0-75.264a92.522667 92.522667 0 1 1 0-185.024 92.522667 92.522667 0 0 1 0 185.024z"  horiz-adv-x="1024" />
      
      <glyph glyph-name="chart" unicode="&#59052;" d="M725.333333 896a42.666667 42.666667 0 0 0 42.666667-42.666667v-85.333333h213.333333a42.666667 42.666667 0 0 0 42.666667-42.666667v-810.666666a42.666667 42.666667 0 0 0-42.666667-42.666667H42.666667a42.666667 42.666667 0 0 0-42.666667 42.666667V725.333333a42.666667 42.666667 0 0 0 42.666667 42.666667h213.333333V853.333333a42.666667 42.666667 0 1 0 85.333333 0v-85.333333h341.333334V853.333333a42.666667 42.666667 0 0 0 42.666666 42.666667z m213.333334-448H85.333333v-490.666667h853.333334V448z m-137.408-101.269333a42.666667 42.666667 0 0 0-3.882667-57.685334l-2.645333-2.304-199.317334-160.234666a42.666667 42.666667 0 0 0-53.333333-0.128l-2.816 2.474666-91.754667 87.253334-163.584-141.696a42.666667 42.666667 0 0 0-57.770666 1.770666l-2.410667 2.56a42.666667 42.666667 0 0 0 1.770667 57.770667l2.56 2.410667 192.853333 167.04a42.666667 42.666667 0 0 0 54.613333 1.045333l2.752-2.389333 92.714667-88.213334 170.24 136.853334a42.666667 42.666667 0 0 0 60.010667-6.528zM256 682.666667H85.333333v-149.333334h853.333334v149.333334h-170.666667v-42.666667a42.666667 42.666667 0 1 0-85.333333 0v42.666667H341.333333v-42.666667a42.666667 42.666667 0 1 0-85.333333 0v42.666667z"  horiz-adv-x="1024" />
      
      <glyph glyph-name="synchronization" unicode="&#59053;" d="M95.573333 419.093333a42.837333 42.837333 0 0 0 52.949334 4.693334l3.349333-2.474667 2.837333-2.496 79.082667-76.117333c17.024-16.426667 17.557333-43.52 1.130667-60.586667a42.773333 42.773333 0 0 0-48.32-9.322667l-3.2 1.6-1.834667 1.088 1.834667-6.293333a345.152 345.152 0 0 1 315.434666-245.397333l7.552-0.213334 7.445334-0.106666c149.056 0 280.96 95.701333 327.530666 236.501333a42.837333 42.837333 0 0 0 81.322667-26.901333 430.698667 430.698667 0 0 0-408.853333-295.253334c-207.424 0-383.146667 147.477333-422.4 346.666667l-1.408 7.424-0.597334 3.52-15.530666-14.72c-14.229333-13.44-35.413333-15.338667-51.84-5.312l-3.029334 2.026667-2.88 2.282666-2.816 2.709334a42.88 42.88 0 0 0-3.285333 54.848l2.304 2.901333 2.688 2.794667 80.533333 76.138666zM513.834667 798.933333c203.733333 0 377.28-142.4 420.352-336.938666l1.6-7.509334 0.768-4.010666 13.76 13.12 2.965333 2.538666c17.28 13.418667 42.026667 11.648 57.237333-4.288a42.88 42.88 0 0 0 3.413334-55.018666l-2.304-2.901334-2.517334-2.645333-80.170666-76.437333-2.837334-2.453334a42.88 42.88 0 0 0-50.069333-1.877333l-3.029333 2.176-2.837334 2.474667-80.149333 76.458666-2.666667 2.837334a42.88 42.88 0 0 0-3.2 51.306666l2.24 3.136 2.88 3.285334 2.837334 2.666666a42.88 42.88 0 0 0 51.306666 3.2l0.853334-0.576-1.493334 4.885334A345.173333 345.173333 0 0 1 528.896 712.938667l-7.573333 0.256-7.466667 0.064A344.917333 344.917333 0 0 1 200.32 512.384a42.837333 42.837333 0 1 0-77.824 35.84A430.570667 430.570667 0 0 0 513.834667 798.933333z"  horiz-adv-x="1024" />
      
      <glyph glyph-name="transmit" unicode="&#59054;" d="M473.258667 878.613333a42.666667 42.666667 0 0 0 3.2-85.248l-3.2-0.128H137.536c-16.896 0-31.146667-12.117333-34.176-28.16l-0.426667-3.072-0.170666-3.541333v-748.928c0-16.896 12.117333-31.146667 28.16-34.176l3.072-0.426667 3.541333-0.170666h748.928c16.896 0 31.146667 12.117333 34.176 28.16l0.426667 3.072 0.170666 3.541333V345.25866699999995a42.666667 42.666667 0 0 0 85.269334 3.2l0.106666-3.2v-335.722667a120.192 120.192 0 0 0-109.824-119.701333l-4.778666-0.32-5.546667-0.128H137.536a120.192 120.192 0 0 0-119.701333 109.824l-0.32 4.778666-0.128 5.546667V758.4639999999999A120.192 120.192 0 0 0 127.210667 878.165333L131.989333 878.506667l5.546667 0.128h335.722667zM917.333333 878.613333a89.28 89.28 0 0 0 89.173334-84.821333l0.106666-4.458667v-237.482666a42.666667 42.666667 0 0 0-85.248-3.178667l-0.128 3.2V732.906667L569.578667 381.205333c-14.933333-14.912-38.122667-16.469333-54.784-4.693333l-2.88 2.197333-2.709334 2.496a42.688 42.688 0 0 0-2.496 57.642667l2.496 2.730667L860.842667 793.2586670000001h-180.992A42.688 42.688 0 0 0 637.653333 829.44l-0.362666 3.285333-0.106667 3.2A42.666667 42.666667 0 0 0 676.672 878.506667l3.2 0.106666H917.333333z"  horiz-adv-x="1024" />
      
      <glyph glyph-name="role2" unicode="&#59055;" d="M620.8 714.666667m42.666667 0l317.866666 0q42.666667 0 42.666667-42.666667l0 0q0-42.666667-42.666667-42.666667l-317.866666 0q-42.666667 0-42.666667 42.666667l0 0q0 42.666667 42.666667 42.666667ZM701.44 416m42.666667 0l237.226666 0q42.666667 0 42.666667-42.666667l0 0q0-42.666667-42.666667-42.666666l-237.226666 0q-42.666667 0-42.666667 42.666666l0 0q0 42.666667 42.666667 42.666667ZM749.312 117.33333300000004m42.666667 0l189.354666 0q42.666667 0 42.666667-42.666666l0 0q0-42.666667-42.666667-42.666667l-189.354666 0q-42.666667 0-42.666667 42.666667l0 0q0 42.666667 42.666667 42.666666ZM335.210667 790.528c135.488 0 245.333333-109.824 245.333333-245.333333 0-80.981333-39.253333-152.810667-99.754667-197.482667 109.098667-59.733333 183.488-184.469333 183.488-327.573333a42.666667 42.666667 0 1 0-85.333333 0c0 155.52-110.314667 279.722667-243.733333 279.722666-133.418667 0-243.754667-124.181333-243.754667-279.722666a42.666667 42.666667 0 1 0-85.333333 0C6.122667 163.24266699999998 80.533333 288 189.653333 347.733333a244.949333 244.949333 0 0 0-99.754666 197.461334c0 135.509333 109.845333 245.333333 245.333333 245.333333z m0-85.333333a160 160 0 1 1 0-320 160 160 0 0 1 0 320z"  horiz-adv-x="1024" />
      
      <glyph glyph-name="privacy2" unicode="&#59056;" d="M672.384-108.03200000000004H53.333333a42.666667 42.666667 0 1 0 0 85.333333h560.533334a235.093333 235.093333 0 0 1 58.517333-85.333333zM963.882667 890.133333a54.250667 54.250667 0 0 0 54.144-50.688l0.106666-3.562666V206.93333299999995a235.584 235.584 0 0 1-85.930666 69.333334V804.224H91.776v-614.485333l542.08 0.021333a233.237333 233.237333 0 0 1-33.152-85.973333H60.117333A54.250667 54.250667 0 0 0 5.973333 154.517333l-0.106666 3.562667V835.882667A54.250667 54.250667 0 0 0 56.554667 890.026667l3.562666 0.106666h903.765334zM690.453333 667.392l2.752-2.176 3.157334-2.986667 140.416-146.88c16.384-17.130667 15.786667-44.330667-1.365334-60.736a43.008 43.008 0 0 0-54.997333-3.626666l-2.901333 2.304-2.837334 2.688-105.173333 110.016-186.816-252.714667a42.944 42.944 0 0 0-50.325333-14.378667l-3.328 1.493334-3.264 1.749333-3.050667 2.048-229.888 168.96a42.965333 42.965333 0 0 0-9.173333 60.053333 43.008 43.008 0 0 0 53.909333 12.928l3.072-1.706666 3.072-2.048 195.349333-143.552 191.722667 259.242666a42.965333 42.965333 0 0 0 59.669333 9.322667zM848.533333 282.410667c75.349333 0 132.629333-50.261333 135.189334-117.418667l0.106666-4.693333-0.042666-34.346667 2.730666-0.106667c18.197333-1.408 32.96-15.146667 35.882667-32.874666l0.426667-3.370667 0.106666-3.093333v-168.213334a39.466667 39.466667 0 0 0-36.416-39.317333l-3.072-0.128H709.717333a39.466667 39.466667 0 0 0-39.381333 36.373333l-0.106667 3.072v168.213334c0 20.778667 16.021333 37.76 36.394667 39.338666l3.093333 0.128h3.52v34.325334c0 64.405333 50.090667 114.56 119.424 121.344l5.248 0.426666 5.184 0.256 5.44 0.085334z m111.104-219.733334h-226.133333v-120.533333h226.133333v120.533333z m-111.104 156.437334c-41.557333 0-69.909333-23.957333-71.893333-55.317334l-0.106667-3.498666-0.021333-34.325334h144.021333v34.325334c0 30.698667-25.045333 55.274667-63.082666 58.453333l-4.266667 0.277333-4.650667 0.085334z"  horiz-adv-x="1024" />
      
      <glyph glyph-name="uploading2" unicode="&#59057;" d="M484.714667 519.04a43.029333 43.029333 0 0 0 51.498666 2.304l3.050667-2.304 165.418667-135.445333 2.730666-2.474667a43.029333 43.029333 0 0 0-54.762666-65.941333l-2.816 2.133333-94.826667 77.589333v-427.306666c0-21.546667-15.829333-39.402667-36.48-42.538667l-3.306667-0.384-3.221333-0.106667a43.029333 43.029333 0 0 0-42.901333 39.808l-0.128 3.2V394.922667l-95.850667-78.442667c-5.76-4.736-12.608-7.893333-20.096-9.130667l-3.797333-0.469333-3.861334-0.170667-3.776 0.213334a43.050667 43.050667 0 0 0-25.621333 73.728l2.645333 2.368 166.101334 136.021333zM381.397333 837.077333c171.392 70.357333 366.784-7.786667 443.264-174.72l3.669334-8.341333 1.578666-0.426667a258.816 258.816 0 0 0 192.768-238.805333l0.213334-6.4 0.042666-6.442667-0.085333-6.485333c-3.477333-138.581333-115.584-250.176-253.696-253.568l-6.485333-0.085333h-101.610667a43.029333 43.029333 0 0 0-3.2 85.930666l3.2 0.106667h101.610667c96.021333 0 174.208 78.186667 174.208 174.293333a173.226667 173.226667 0 0 1-141.568 171.157334l-5.376 0.896-25.6 4.010666-8.448 24.533334a257.749333 257.749333 0 0 1-237.184 173.994666l-6.570667 0.085334-6.613333-0.085334a257.856 257.856 0 0 1-235.221334-167.786666l-2.218666-6.208-8.384-24.533334-25.642667-4.010666a173.205333 173.205333 0 0 1-146.88-166.506667l-0.042667-5.461333 0.064-5.376a174.421333 174.421333 0 0 1 168.746667-168.917334l5.397333-0.085333h95.573334a43.029333 43.029333 0 0 0 3.2-85.930667l-3.2-0.106666h-95.573334c-143.530667 0-260.266667 116.736-260.266666 260.224a258.816 258.816 0 0 0 193.152 251.605333l1.493333 0.384 1.450667 3.413333a343.978667 343.978667 0 0 0 168.490666 172.714667l7.808 3.562667 7.936 3.370666z"  horiz-adv-x="1024" />
      
      <glyph glyph-name="knowledge" unicode="&#59058;" d="M99.690667 827.690667A53.333333 53.333333 0 0 0 149.546667 880.917333l3.498666 0.106667h616.704a53.333333 53.333333 0 0 0 53.333334-53.333333l-0.128-3.456-6.933334-106.410667h60.309334a48 48 0 0 0 47.872-44.714667l0.128-3.285333v-729.173333a53.333333 53.333333 0 0 0-53.333334-53.333334H153.024a53.333333 53.333333 0 0 0-53.333333 53.333334V827.712z m739.264-195.2H185.024v-82.474667 0.021333V-27.306666999999948h653.930667V632.490667zM682.666667 256a42.666667 42.666667 0 1 0 0-85.333333H341.333333a42.666667 42.666667 0 1 0 0 85.333333h341.333334z m0 213.333333a42.666667 42.666667 0 1 0 0-85.333333H341.333333a42.666667 42.666667 0 1 0 0 85.333333h341.333334z m52.885333 326.378667H185.024v-77.866667h545.493333l5.034667 77.866667z"  horiz-adv-x="1024" />
      
      <glyph glyph-name="exit" unicode="&#59059;" d="M874.666667 896a85.333333 85.333333 0 0 0 85.226666-81.066667L960 810.666667v-256a42.666667 42.666667 0 0 0-85.226667-3.2L874.666667 554.666667V810.666667H106.666667v-853.333334h768V213.33333300000004a42.666667 42.666667 0 0 0 85.226666 3.2L960 213.33333300000004v-256a85.333333 85.333333 0 0 0-81.066667-85.226666L874.666667-128H106.666667a85.333333 85.333333 0 0 0-85.226667 81.066667L21.333333-42.66666699999996V810.666667A85.333333 85.333333 0 0 0 102.4 895.893333L106.666667 896h768z m-57.706667-361.749333l2.773333-2.133334 188.970667-158.058666c29.738667-24.874667 13.461333-72.64-24.106667-75.285334L981.333333 298.66666699999996H229.290667a42.666667 42.666667 0 0 0-3.178667 85.226666l3.2 0.106667 634.474667 0.021333-98.773334 82.645334a42.666667 42.666667 0 0 0-7.509333 57.322666l2.133333 2.773334a42.666667 42.666667 0 0 0 57.322667 7.488z"  horiz-adv-x="1024" />
      
      <glyph glyph-name="set2" unicode="&#59060;" d="M404.394667 896l10.453333-0.106667A402.389333 402.389333 0 0 0 691.306667 777.386667a404.266667 404.266667 0 0 0 107.52-380.373334l-2.048-8.192-2.154667-7.936 171.669333-171.584c56.597333-56.661333 72.832-141.504 42.56-215.466666l-2.56-5.973334-2.773333-5.888-3.157333-6.208-6.528-11.242666-1.6-2.496-7.082667-10.24-1.706667-2.24-7.104-8.746667-1.706666-1.984-8.469334-9.045333a197.184 197.184 0 0 0-139.648-57.706667 197.013333 197.013333 0 0 0-111.061333 34.282667l-6.250667 4.373333-10.005333 7.893333-2.218667 1.92-10.090666 9.344-171.648 171.648-1.28-0.384-10.922667-2.88-11.392-2.666666-21.738667-4.117334-22.037333-2.965333-22.016-1.728-20.906667-0.576c-107.882667 0-209.621333 42.154667-286.272 118.592C13.76 309.73866699999996-25.066667 462.357333 16.448 604.970667l2.453333 8.064 6.037334 17.706666 5.76 14.784 25.792 62.506667 24.341333 50.261333a10.666667 10.666667 0 0 0 15.658667 4.138667l1.493333-1.237333 219.946667-220.010667c4.736-4.778667 11.562667-7.637333 18.176-7.637333 7.04 0 13.930667 2.858667 18.88 7.786666a26.496 26.496 0 0 1 5.205333 29.397334l-0.938667 1.813333-2.325333 3.413333-2.026667 2.304L134.677333 798.506667a10.666667 10.666667 0 0 0 1.28 16.213333l1.706667 0.981333 52.885333 24.96 59.946667 24.746667A401.344 401.344 0 0 0 351.36 892.458667L363.157333 893.866667l22.933334 1.706666 18.304 0.426667zM405.12 810.666667l-14.762667-0.32-19.456-1.493334a315.456 315.456 0 0 1-78.378666-18.624l-9.472-3.733333-11.136-4.586667 144.938666-145.024 5.888-6.592 2.922667-3.754666 5.333333-7.765334 1.386667-2.176c10.133333-17.130667 15.552-36.970667 15.509333-56.810666a110.72 110.72 0 0 0-32.64-78.869334 112.149333 112.149333 0 0 0-79.146666-32.725333 111.637333 111.637333 0 0 0-74.602667 28.885333l-3.989333 3.797334-143.338667 143.381333-4.266667-10.453333-4.778666-12.202667-5.12-15.04A318.741333 318.741333 0 0 1 178.986667 265.17333299999996c58.496-58.346667 135.253333-91.370667 216.362666-93.525333l8.426667-0.106667 17.450667 0.426667 17.450666 1.344 17.386667 2.346667 18.282667 3.498666c8.896 1.962667 17.834667 4.352 25.962666 6.869334l5.930667 1.92 24.746667 9.536a10.666667 10.666667 0 0 0 10.026666-1.28l1.344-1.130667 203.605334-203.648 7.36-6.826667 7.36-5.845333c16.149333-11.733333 34.752-18.816 54.229333-20.778667l5.866667-0.426666 5.738666-0.149334c27.946667 0 54.506667 10.154667 74.432 28.010667l3.882667 3.690667 6.101333 6.528 4.970667 6.058666 5.013333 7.210667 4.8 8.192a112.704 112.704 0 0 1-12.928 124.373333l-3.306666 3.797334-3.541334 3.712-204.16 204.053333a10.666667 10.666667 0 0 0-3.029333 9.002667l0.469333 1.941333 11.690667 34.56a318.826667 318.826667 0 0 1-79.957333 318.528 317.056 317.056 0 0 1-217.386667 93.482667L405.12 810.666667z"  horiz-adv-x="1024" />
      
      <glyph glyph-name="Demand" unicode="&#59061;" d="M788.266667 804.522667c31.658667 0 60.202667-18.453333 73.322666-47.104l1.706667-3.968 141.12-352.277334c1.002667-2.005333 1.664-3.904 2.261333-6.336l0.554667-2.602666c0.384-1.493333 0.576-3.093333 0.682667-4.906667l0.085333-4.224v-338.794667a80.853333 80.853333 0 0 0-76.672-80.725333l-4.138667-0.106667H96.810667a80.853333 80.853333 0 0 0-80.704 76.672l-0.106667 4.16v340.48c0 0.981333 0.042667 1.706667 0.085333 2.517334 0.106667 1.834667 0.298667 3.456 0.682667 4.928l1.002667 4.053333c0.362667 1.258667 0.725333 2.346667 1.066666 3.285333l0.554667 1.216 141.312 352.64a80.597333 80.597333 0 0 0 70.72 50.986667l4.288 0.106667h552.576zM323.242667 340.90666699999997H102.144v-291.285334h819.690667V340.928H701.354667l-0.277334-1.344c-23.722667-99.968-121.28-164.266667-222.272-146.389333l-5.610666 1.088a193.322667 193.322667 0 0 0-149.546667 144.768l-0.426667 1.877333z m461.44 377.450666H239.317333L122.794667 427.093333h204.714666a80.853333 80.853333 0 0 0 77.930667-60.522666l0.96-4.138667c12.117333-58.24 69.205333-96.085333 127.189333-84.010667a107.733333 107.733333 0 0 1 82.944 79.36l1.066667 4.650667a80.938667 80.938667 0 0 0 74.666667 64.533333l4.224 0.106667 204.693333 0.021333-116.522667 291.285334zM341.333333 677.034667h341.333334a42.666667 42.666667 0 1 0 0-85.333334H341.333333a42.666667 42.666667 0 1 0 0 85.333334z m0-135.765334h341.333334a42.666667 42.666667 0 1 0 0-85.333333H341.333333a42.666667 42.666667 0 1 0 0 85.333333z"  horiz-adv-x="1024" />
      
      <glyph glyph-name="key" unicode="&#59062;" d="M258.282667 883.242667l30.165333-30.165334a21.333333 21.333333 0 0 0 0-30.165333L209.344 743.829333l67.669333-67.669333 79.082667 79.082667a21.333333 21.333333 0 0 0 30.186667 0l30.165333-30.165334a21.333333 21.333333 0 0 0 0-30.165333l-79.104-79.082667 55.168-55.146666a382.4 382.4 0 0 0 242.005333 85.824c212.053333 0 384-171.925333 384-384s-171.946667-384-384-384c-212.074667 0-384 171.925333-384 384 0 89.6 30.677333 172.032 82.133334 237.376L11.733333 820.757333a21.333333 21.333333 0 0 0 0 30.165334L41.898667 881.109333a21.333333 21.333333 0 0 0 30.186666 0l76.928-76.949333L228.096 883.242667a21.333333 21.333333 0 0 0 30.186667 0z m376.234666-322.069334c-164.949333 0-298.666667-133.717333-298.666666-298.666666s133.717333-298.666667 298.666666-298.666667 298.666667 133.717333 298.666667 298.666667-133.717333 298.666667-298.666667 298.666666z"  horiz-adv-x="1024" />
      
      <glyph glyph-name="finally" unicode="&#59063;" d="M396.501333-115.49866699999995a42.666667 42.666667 0 0 0-2.496 57.621334l2.496 2.709333L835.626667 384 396.501333 823.168a42.666667 42.666667 0 0 0-2.496 57.621333l2.496 2.709334a42.666667 42.666667 0 0 0 57.621334 2.496l2.709333-2.496 469.333333-469.333334a42.666667 42.666667 0 0 0 2.496-57.621333l-2.496-2.709333-469.333333-469.333334a42.666667 42.666667 0 0 0-60.330667 0zM97.834667-115.49866699999995a42.666667 42.666667 0 0 0-2.496 57.621334l2.496 2.709333L536.96 384 97.834667 823.168A42.666667 42.666667 0 0 0 95.338667 880.7893329999999l2.496 2.709334A42.666667 42.666667 0 0 0 155.456 885.994667l2.709333-2.496 469.333334-469.333334a42.666667 42.666667 0 0 0 2.496-57.621333l-2.496-2.709333-469.333334-469.333334a42.666667 42.666667 0 0 0-60.330666 0z"  horiz-adv-x="1024" />
      
      <glyph glyph-name="information" unicode="&#59064;" d="M293.824 431.552a54.976 54.976 0 0 0 54.912 0A55.082667 55.082667 0 0 0 376.170667 384a54.826667 54.826667 0 0 0-27.434667-47.530667c-17.024-9.813333-38.016-9.813333-54.912 0a54.997333 54.997333 0 0 0 0 95.082667z m190.72 0a54.976 54.976 0 0 0 54.912 0 54.997333 54.997333 0 0 0 0-95.082667c-17.045333-9.813333-38.037333-9.813333-54.933333 0A55.082667 55.082667 0 0 0 457.109333 384c0 19.690667 10.517333 37.674667 27.413334 47.552zM511.914667 893.12c280.896 0 509.226667-228.266667 509.226666-509.077333 0-97.834667-27.349333-191.637333-79.488-273.386667l-5.525333-8.256 57.792-154.112c5.12-13.802667 4.416-28.928-1.621333-41.962667l-4.266667-7.552-4.629333-5.952a54.613333 54.613333 0 0 0-49.152-17.216l-4.992 0.981334-193.984 50.048-13.397334-6.506667a509.418667 509.418667 0 0 0-161.898666-42.965333l-24.064-1.706667-24.149334-0.576C231.146667-125.12 2.858667 103.27466700000002 2.858667 384.042667 2.858667 664.810667 231.146667 893.12 511.936 893.12z m0-85.333333c-233.664 0-423.744-190.101333-423.744-423.744 0-231.189333 186.112-419.818667 414.272-423.786667l7.296-0.064 22.208 0.554667 19.989333 1.386666c42.794667 4.053333 84.693333 14.549333 124.074667 31.082667l9.770666 4.266667 40.448 19.626666 166.890667-43.072-52.266667 139.413334 28.864 43.093333a420.266667 420.266667 0 0 1 66.069334 227.498667c0 233.664-190.122667 423.744-423.893334 423.744z m218.24-376.234667a54.997333 54.997333 0 0 0 0-95.082667c-17.045333-9.813333-38.101333-9.813333-54.933334 0A55.082667 55.082667 0 0 0 647.829333 384c0 19.690667 10.517333 37.674667 27.413334 47.552a54.976 54.976 0 0 0 54.933333 0z"  horiz-adv-x="1024" />
      
      <glyph glyph-name="distribute" unicode="&#59065;" d="M537.6 885.653333a10.666667 10.666667 0 0 0 2.986667-2.986666l108.032-162.090667a10.666667 10.666667 0 0 0-8.874667-16.576h-65.365333v-380.714667l0.021333-1.642666v-141.930667c2.538667 2.453333 5.12 4.864 7.765333 7.232 44.522667 39.829333 100.394667 62.464 161.92 71.722667 37.674667 5.674667 69.930667 5.504 90.368 3.2l-2.474666 0.256 0.021333 63.957333a10.666667 10.666667 0 0 0 16.576 8.874667l162.112-108.053334a10.666667 10.666667 0 0 0 0-17.749333l-162.112-108.053333a10.666667 10.666667 0 0 0-16.576 8.874666V176.64a43.456 43.456 0 0 0-6.997333 0.170667l-1.770667 0.170666-7.36 0.426667-10.197333 0.170667c-14.784 0.064-30.72-0.938667-47.125334-3.306667-46.656-6.698667-88.192-22.997333-119.850666-51.541333-42.645333-38.378667-64.298667-97.386667-64.298667-175.658667v2.090667-32.384a42.624 42.624 0 0 0-39.509333-42.496l-3.2-0.106667a42.666667 42.666667 0 0 0-42.709334 42.709333V321.749333c0 50.666667-45.653333 88.533333-136.618666 112.213334-31.914667 8.32-66.261333 13.888-101.056 17.237333a836.48 836.48 0 0 1-7.402667 0.682667l-13.952 1.109333a739.456 739.456 0 0 1-6.506667 0.426667l-12.074666 0.618666-10.624 0.341334-6.186667 0.106666c-0.853333 0-1.706667 0.021333-2.56 0.085334v-68.394667a10.666667 10.666667 0 0 0-16.576-8.874667L13.312 485.354667a10.666667 10.666667 0 0 0 0 17.749333l162.112 108.053333a10.666667 10.666667 0 0 0 16.576-8.874666v-62.464l2.602667 0.085333 6.869333-0.085333 10.816-0.32 5.909333-0.256 12.693334-0.704 13.824-0.981334 14.848-1.322666c39.04-3.776 77.845333-10.133333 114.346666-19.669334 47.274667-12.288 85.333333-28.373333 115.093334-47.573333L488.96 704 423.68 704a10.666667 10.666667 0 0 0-8.896 16.576L522.816 882.688a10.666667 10.666667 0 0 0 14.805333 2.965333z"  horiz-adv-x="1024" />
      
      <glyph glyph-name="security3" unicode="&#59066;" d="M143.445333 354.06933300000003V691.2l369.109334 122.645333L880.490667 691.2v-337.130667c0-184.085333-122.666667-317.44-367.936-399.914666C266.453333 35.84000000000003 143.36 169.19466699999998 143.36 354.06933300000003h0.085333z m816.042667 1.024V746.56L512.469333 896 64.512 746.666667v-391.488c0-110.933333 35.754667-206.229333 107.2-285.866667 71.466667-79.637333 175.808-142.165333 313.024-187.712l27.818667-9.6 28.736 9.6c136.597333 45.546667 240.426667 108.074667 311.466666 187.733333 71.125333 79.616 106.730667 174.848 106.730667 285.909334v-0.149334zM724.586667 550.613333l2.816-2.602666a37.653333 37.653333 0 0 0-0.32-53.013334L468.885333 237.65333299999998a21.333333 21.333333 0 0 0-30.144 0.021334l-38.272 38.272 0.128 0.128-103.68 103.594666a37.76 37.76 0 0 0 50.602667 55.872l2.709333-2.474666 103.850667-103.850667 220.714667 219.136a37.077333 37.077333 0 0 0 49.792 2.218667z"  horiz-adv-x="1024" />
      
      <glyph glyph-name="loading" unicode="&#59067;" d="M512.095698 170.802188a42.658695 42.658695 0 0 0 42.530719-39.459293L554.754393 128.143493v-213.293474a42.658695 42.658695 0 0 0-85.210743-3.199402L469.437003-85.149981V128.143493a42.658695 42.658695 0 0 0 42.658695 42.658695z m208.430383 64.969192l2.708827-2.495533 150.819815-150.819816a42.658695 42.658695 0 0 0-57.610567-62.814928l-2.708827 2.474204-150.819816 150.841145a42.658695 42.658695 0 0 0 54.731106 65.03318l2.879462-2.218252z m-359.271528-2.495533a42.658695 42.658695 0 0 0 2.495534-57.610568l-2.495534-2.708827-150.798486-150.841145a42.658695 42.658695 0 0 0-62.836258 57.631897l2.495534 2.708827 150.819816 150.798486a42.658695 42.658695 0 0 0 60.319394 0zM981.341341 426.754357a42.658695 42.658695 0 0 0 3.199402-85.210743l-3.199402-0.106647H768.047867a42.658695 42.658695 0 0 0-3.178073 85.210743L768.047867 426.754357h213.293474z m-725.197812 0a42.658695 42.658695 0 0 0 3.199402-85.210743l-3.199402-0.106647H42.850055a42.658695 42.658695 0 0 0-3.178073 85.210743L42.850055 426.754357h213.293474zM874.054723 746.054688a42.658695 42.658695 0 0 0 2.495534-57.589238l-2.495534-2.730157-150.819815-150.798486a42.658695 42.658695 0 0 0-62.814928 57.589238l2.495533 2.708827 150.798487 150.841145a42.658695 42.658695 0 0 0 60.362053 0zM207.72591 748.571551l2.708827-2.474205 150.819816-150.841145a42.658695 42.658695 0 0 0-57.589238-62.814928l-2.730156 2.495534-150.819816 150.819816a42.658695 42.658695 0 0 0 54.752435 65.054509l2.858132-2.239581zM512.095698 896a42.658695 42.658695 0 0 0 42.530719-39.459293l0.106646-3.199402v-213.293474a42.658695 42.658695 0 0 0-85.189413-3.199402l-0.127976 3.199402V853.341305a42.658695 42.658695 0 0 0 42.658695 42.658695z"  horiz-adv-x="1024" />
      
      <glyph glyph-name="branch" unicode="&#59068;" d="M245.378937 896a149.307795 149.307795 0 0 0 42.680699-292.429982L288.038307 252.440742h361.751459a86.171928 86.171928 0 0 1 86.065279 81.863331l0.106648 4.287267c0 3.007486 0.319945 5.972312 0.895847 8.78783a149.307795 149.307795 0 1 0 83.505717-0.042659c0.597231-2.772859 0.917176-5.737685 0.917176-8.745171a171.490668 171.490668 0 0 0-166.158246-171.405349l-5.332421-0.085319-361.751459 0.02133 0.021329-2.516903a149.307795 149.307795 0 1 0-85.340069 0V603.570018A149.307795 149.307795 0 0 0 245.378937 896z m0-810.528033a63.989055 63.989055 0 1 1 0-127.97811 63.989055 63.989055 0 0 1 0 127.97811z m533.242126 469.253072a63.989055 63.989055 0 1 1 0-127.978111 63.989055 63.989055 0 0 1 0 127.978111z m-533.242126 255.956221a63.989055 63.989055 0 1 1 0-127.978111 63.989055 63.989055 0 0 1 0 127.978111z"  horiz-adv-x="1024" />
      
      <glyph glyph-name="refresh" unicode="&#59069;" d="M490.666667 874.666667a490.666667 490.666667 0 0 0 414.442666-227.797334l34.346667 128.256a42.666667 42.666667 0 0 0 49.173333 30.869334l3.093334-0.704a42.666667 42.666667 0 0 0 30.890666-49.152l-0.704-3.114667-60.736-226.666667a42.666667 42.666667 0 0 0-49.152-30.869333l-3.114666 0.704-226.666667 60.736a42.666667 42.666667 0 0 0 18.986667 83.136l3.093333-0.704 125.824-33.706667A405.376 405.376 0 0 1 490.666667 789.333333C266.816 789.333333 85.333333 607.8506669999999 85.333333 384s181.482667-405.333333 405.333334-405.333333c196.906667 0 364.373333 141.397333 398.890666 332.928a42.666667 42.666667 0 1 0 83.989334-15.146667C931.733333 64.49066700000003 729.024-106.66666699999996 490.666667-106.66666699999996 219.669333-106.66666699999996 0 113.00266699999997 0 384S219.669333 874.666667 490.666667 874.666667z"  horiz-adv-x="1024" />
      
      <glyph glyph-name="collect" unicode="&#59005;" d="M339.434667 578.816L39.210667 535.189333l-3.2-0.597333c-32.64-7.168-44.970667-48.277333-20.437334-72.192l217.237334-211.754667L181.546667-48.40533300000004l-0.426667-3.157334c-3.349333-33.28 31.978667-57.792 62.336-41.813333L512 47.786666999999966l268.544-141.205334 2.858667-1.365333c30.634667-13.461333 64.853333 12.544 59.050666 46.357333l-51.285333 299.050667 217.258667 211.754667 2.261333 2.368c22.186667 24.96 8 65.493333-25.898667 70.4l-300.245333 43.648-134.293333 272.064c-15.637333 31.722667-60.864 31.722667-76.501334 0L339.413333 578.816zM512 735.594667l105.941333-214.656 1.664-3.072a42.666667 42.666667 0 0 1 30.464-20.266667l236.885334-34.410667-171.413334-167.125333-2.389333-2.517333a42.666667 42.666667 0 0 1-9.877333-35.242667l40.448-235.925333-211.861334 111.381333-3.456 1.621333a42.666667 42.666667 0 0 1-36.266666-1.621333l-211.882667-111.381333 40.469333 235.946666 0.448 3.456a42.666667 42.666667 0 0 1-12.714666 34.282667l-171.434667 167.125333 236.906667 34.389334a42.666667 42.666667 0 0 1 32.128 23.36L512 735.573333z"  horiz-adv-x="1024" />
      
      <glyph glyph-name="delete" unicode="&#59004;" d="M681.962667 885.333333a64.32 64.32 0 0 0 63.808-56.661333l0.362666-3.733333 0.106667-3.882667-0.021333-100.501333H973.013333c21.461333 0 39.232-15.786667 42.346667-36.352l0.384-3.306667 0.106667-3.2a42.88 42.88 0 0 0-35.904-42.218667l-3.328-0.426666-3.605334-0.170667-66.965333 0.021333 0.042667-687.957333a64.298667 64.298667 0 0 0-52.842667-63.232l-3.818667-0.576-3.754666-0.341333-3.861334-0.128H182.186667a64.32 64.32 0 0 0-63.786667 56.661333l-0.362667 3.733333-0.128 3.882667-0.021333 687.957333-66.901333-0.021333a42.837333 42.837333 0 0 0-42.346667 36.352l-0.384 3.285333-0.106667 3.2a42.88 42.88 0 0 0 35.904 42.24l3.328 0.426667 3.605334 0.149333 226.730666 0.021334 0.042667 100.501333A64.298667 64.298667 0 0 0 330.581333 884.288l3.84 0.576 3.733334 0.341333 3.882666 0.128h339.925334z m138.410666-250.453333H203.541333l0.021334-666.538667h616.832l-0.021334 666.538667z m-494.976-69.397333a42.88 42.88 0 0 0 42.24-35.904l0.426667-3.328 0.170667-3.605334v-395.157333a42.837333 42.837333 0 0 0-42.837334-42.837333 42.88 42.88 0 0 0-42.24 35.925333l-0.426666 3.306667-0.170667 3.626666V522.624c0 23.68 19.2 42.837333 42.837333 42.837333z m186.602667 0a42.88 42.88 0 0 0 42.24-35.904l0.426667-3.328 0.170666-3.605334v-395.157333A42.837333 42.837333 0 0 0 512 84.650667a42.88 42.88 0 0 0-42.24 35.925333l-0.426667 3.306667-0.170666 3.626666V522.624c0 23.68 19.2 42.837333 42.837333 42.837333z m186.602667 0a42.88 42.88 0 0 0 42.24-35.904l0.426666-3.328 0.170667-3.605334v-395.157333a42.837333 42.837333 0 0 0-42.837333-42.837333 42.88 42.88 0 0 0-42.24 35.925333l-0.426667 3.306667-0.170667 3.626666V522.624c0 23.68 19.2 42.837333 42.837334 42.837333zM660.565333 799.6800000000001h-297.173333v-79.125333h297.173333V799.6800000000001z"  horiz-adv-x="1024" />
      
      <glyph glyph-name="more" unicode="&#58986;" d="M512 58.18278799999996A93.096727 93.096727 0 1 0 512-127.98933399999999a93.096727 93.096727 0 0 0 0 186.172122z m0 418.913939a93.096727 93.096727 0 1 0 0-186.193454 93.096727 93.096727 0 0 0 0 186.193454zM512 895.989334a93.096727 93.096727 0 1 0 0-186.172122A93.096727 93.096727 0 0 0 512 895.989334z"  horiz-adv-x="1024" />
      
      <glyph glyph-name="success2" unicode="&#58987;" d="M512 896c282.773333 0 512-229.226667 512-512S794.773333-128 512-128 0 101.22666700000002 0 384 229.226667 896 512 896z m0-85.333333C276.352 810.666667 85.333333 619.648 85.333333 384s191.018667-426.666667 426.666667-426.666667 426.666667 191.018667 426.666667 426.666667S747.648 810.666667 512 810.666667z m159.04-258.517334a42.410667 42.410667 0 0 0 56.96 2.56l3.2-2.986666c16.512-16.853333 16.341333-43.861333-0.362667-60.501334L472.64 233.89866700000005a26.666667 26.666667 0 0 0-37.674667 0.042666l-42.176 42.154667 0.149334 0.128-99.797334 99.712a43.093333 43.093333 0 0 0-2.56 58.154667l2.538667 2.752a43.093333 43.093333 0 0 0 57.984 2.666666l2.901333-2.645333 100.096-100.074667z"  horiz-adv-x="1024" />
      
      <glyph glyph-name="edit" unicode="&#58988;" d="M557.141333 869.610667c24.064 0 43.562667-19.498667 43.562667-43.562667a43.605333 43.605333 0 0 0-36.501333-42.922667l-3.370667-0.448-3.690667-0.170666H103.829333a6.314667 6.314667 0 0 1-5.589333-3.392l-0.341333-1.109334-0.128-1.557333v-800.618667c0-2.538667 1.557333-4.736 3.392-5.589333l1.109333-0.341333 1.557333-0.128h800.618667a6.314667 6.314667 0 0 1 5.589333 3.392l0.341334 1.109333 0.128 1.557333v453.333334c0 24.042667 19.498667 43.52 43.541333 43.52 21.376 0 39.36-15.424 42.944-36.48l0.448-3.370667 0.170667-3.690667v-453.312a93.226667 93.226667 0 0 0-84.16-92.714666l-4.48-0.341334-4.522667-0.106666H103.829333a93.226667 93.226667 0 0 0-92.714666 84.16l-0.341334 4.48-0.106666 4.522666V776.448a93.226667 93.226667 0 0 0 84.16 92.714667l4.48 0.341333 4.522666 0.106667h453.333334zM809.813333 866.133333a65.493333 65.493333 0 0 0 85.866667 5.866667l3.584-2.944 3.136-2.922667L994.133333 774.4a65.514667 65.514667 0 0 0 5.546667-86.272l-2.624-3.2-2.922667-3.114667L476.8 164.41600000000005c-8.832-8.832-19.989333-14.933333-32.405333-17.664l-4.714667-0.853333-4.8-0.512-123.349333-8.234667a43.605333 43.605333 0 0 0-46.250667 39.68l-0.192 3.264 0.085333 3.413333 8.234667 123.349334a65.472 65.472 0 0 0 12.757333 34.624l2.986667 3.754666 3.285333 3.541334L809.792 866.154667zM856.064 789.333333L359.744 292.99199999999996l-4.373333-65.578667 65.578666 4.373334L917.269333 728.1279999999999l-61.205333 61.184z"  horiz-adv-x="1024" />
      
      <glyph glyph-name="member" unicode="&#58989;" d="M412.437333 832C561.706667 832 682.666667 711.018667 682.666667 561.770667c0-89.109333-43.136-168.149333-109.653334-217.386667 135.936-57.493333 235.477333-185.962667 250.048-340.885333a42.666667 42.666667 0 0 0-84.949333-7.978667c-15.765333 167.466667-156.906667 296.042667-325.674667 296.042667-169.024 0-310.272-128.96-325.717333-296.704a42.666667 42.666667 0 0 0-84.970667 7.808c14.293333 155.264 113.92 284.117333 250.154667 341.76a269.76 269.76 0 0 0-109.674667 217.344C142.229333 711.04 263.189333 832 412.437333 832z m236.650667-94.890667a42.666667 42.666667 0 0 0 52.629333 29.525334c21.141333-5.952 41.322667-14.933333 59.904-26.730667a227.626667 227.626667 0 0 0 28.053334-363.818667c140.522667-65.408 216.96-171.797333 225.152-315.818666a42.666667 42.666667 0 1 0-85.184-4.842667c-7.68 134.613333-89.92 223.637333-254.058667 272.597333a43.541333 43.541333 0 0 0-6.4 2.474667l-0.874667 0.426667a34.517333 34.517333 0 0 0-1.749333 0.96l-0.512 0.298666a42.197333 42.197333 0 0 0-18.368 22.186667 43.306667 43.306667 0 0 0-1.109333 3.541333l0.597333-2.069333a42.730667 42.730667 0 0 0-0.533333 1.792l-0.064 0.277333a43.52 43.52 0 0 0-1.109334 16.490667l0.149334 0.981333a37.376 37.376 0 0 0 1.28 5.717334l-0.704-2.730667c0.149333 0.704 0.32 1.408 0.512 2.090667l0.213333 0.64a43.584 43.584 0 0 0 7.36 14.229333c1.6 2.026667 3.413333 3.925333 5.354667 5.632l0.597333 0.533333a30.805333 30.805333 0 0 0 2.517333 1.962667l1.152 0.810667 1.216 0.768a41.429333 41.429333 0 0 0 11.413334 5.034666l0.256 0.064a142.293333 142.293333 0 0 1 1.834666 274.346667l-3.029333 0.981333a42.666667 42.666667 0 0 0-26.496 51.648zM412.437333 746.666667a184.896 184.896 0 1 1 0-369.770667 184.896 184.896 0 0 1 0 369.770667z"  horiz-adv-x="1024" />
      
      <glyph glyph-name="relevance" unicode="&#58990;" d="M607.146667 821.461333c94.528 94.528 247.786667 94.528 342.314666 0 93.056-93.056 94.506667-243.008 4.373334-337.834666l-4.373334-4.48-93.013333-93.013334a42.666667 42.666667 0 0 0-62.506667 58.005334l2.154667 2.346666 93.013333 93.013334A156.714667 156.714667 0 0 1 671.232 764.714667l-3.712-3.584-219.306667-219.306667a156.714667 156.714667 0 0 1 0-221.653333 42.666667 42.666667 0 1 0-60.352-60.330667c-93.056 93.056-94.506667 243.008-4.352 337.834667l4.352 4.48 219.306667 219.306666zM167.552 381.866667a42.666667 42.666667 0 0 0 62.506667-58.005334l-2.154667-2.346666-93.013333-93.013334a156.714667 156.714667 0 0 1 217.898666-225.216l3.712 3.584 219.306667 219.306667a156.714667 156.714667 0 0 1 0 221.653333 42.666667 42.666667 0 1 0 60.352 60.330667c93.056-93.056 94.506667-243.008 4.352-337.834667l-4.352-4.48-219.306667-219.306666c-94.528-94.528-247.786667-94.528-342.314666 0-93.056 93.056-94.506667 243.008-4.373334 337.834666l4.373334 4.48 93.013333 93.013334z"  horiz-adv-x="1024" />
      
      <glyph glyph-name="search" unicode="&#58991;" d="M491.733333 892.906667c270.997333 0 490.666667-219.690667 490.666667-490.666667 0-119.104-42.432-228.288-113.002667-313.28l141.034667-141.013333a42.666667 42.666667 0 0 0-60.330667-60.352l-140.693333 140.672a488.725333 488.725333 0 0 0-317.653333-116.693334c-270.997333 0-490.666667 219.669333-490.666667 490.666667 0 270.976 219.669333 490.666667 490.666667 490.666667z m0-85.333334c-223.850667 0-405.333333-181.482667-405.333333-405.333333 0-223.872 181.482667-405.333333 405.333333-405.333333 223.872 0 405.333333 181.461333 405.333334 405.333333 0 223.850667-181.461333 405.333333-405.333334 405.333333z"  horiz-adv-x="1024" />
      
      <glyph glyph-name="calendar" unicode="&#58992;" d="M981.333333 793.941333a42.666667 42.666667 0 0 0 42.666667-42.666666V-85.33333300000004a42.666667 42.666667 0 0 0-42.666667-42.666667H42.666667a42.666667 42.666667 0 0 0-42.666667 42.666667V751.274667a42.666667 42.666667 0 0 0 42.666667 42.666666h938.666666z m-42.666666-85.333333H85.333333V-42.66666699999996h853.333334V708.608zM0 533.333333h1024v-85.333333H0zM665.216 895.061333m42.666667 0l0 0q42.666667 0 42.666666-42.666666l0-221.482667q0-42.666667-42.666666-42.666667l0 0q-42.666667 0-42.666667 42.666667l0 221.482667q0 42.666667 42.666667 42.666666ZM249.066667 895.061333m42.666666 0l0 0q42.666667 0 42.666667-42.666666l0-221.482667q0-42.666667-42.666667-42.666667l0 0q-42.666667 0-42.666666 42.666667l0 221.482667q0 42.666667 42.666666 42.666666ZM230.378667 341.33333300000004m42.666666 0l477.930667 0q42.666667 0 42.666667-42.666666l0 0q0-42.666667-42.666667-42.666667l-477.930667 0q-42.666667 0-42.666666 42.666667l0 0q0 42.666667 42.666666 42.666666ZM230.378667 170.66666699999996m42.666666 0l477.930667 0q42.666667 0 42.666667-42.666667l0 0q0-42.666667-42.666667-42.666667l-477.930667 0q-42.666667 0-42.666666 42.666667l0 0q0 42.666667 42.666666 42.666667Z"  horiz-adv-x="1024" />
      
      <glyph glyph-name="add" unicode="&#58993;" d="M512 896a42.666667 42.666667 0 0 0 42.666667-42.666667v-426.666666h426.666666a42.666667 42.666667 0 1 0 0-85.333334H554.666667v-426.666666a42.666667 42.666667 0 1 0-85.333334 0V341.33333300000004H42.666667a42.666667 42.666667 0 1 0 0 85.333334h426.666666V853.333333a42.666667 42.666667 0 0 0 42.666667 42.666667z"  horiz-adv-x="1024" />
      
      <glyph glyph-name="dropdown" unicode="&#58994;" d="M12.501333 648.832a42.666667 42.666667 0 0 0 57.621334 2.496l2.709333-2.496L512 209.70666700000004l439.168 439.146666a42.666667 42.666667 0 0 0 57.621333 2.496l2.709334-2.496a42.666667 42.666667 0 0 0 2.496-57.621333l-2.496-2.709333-469.333334-469.333334a42.666667 42.666667 0 0 0-57.621333-2.496l-2.709333 2.496-469.333334 469.333334a42.666667 42.666667 0 0 0 0 60.330666z"  horiz-adv-x="1024" />
      
      <glyph glyph-name="maximize" unicode="&#58995;" d="M403.626667 274.36800000000005l2.410666-2.816a42.666667 42.666667 0 0 0-2.389333-55.36L154.837333-33.34400000000005h107.690667a42.666667 42.666667 0 0 0 0-85.333333H51.946667a42.666667 42.666667 0 0 0-42.666667 42.666666v211.413334a42.666667 42.666667 0 0 0 42.666667 42.666666l3.178666-0.128a42.666667 42.666667 0 0 0 39.466667-42.56v-107.626666L343.04 276.202667a42.752 42.752 0 0 0 60.586667-1.834667z m216.746666 0a42.752 42.752 0 0 0 60.586667 1.834667l248.448-248.426667v107.605333a42.666667 42.666667 0 0 0 39.466667 42.56l3.2 0.106667a42.666667 42.666667 0 0 0 42.645333-42.666667v-211.413333a42.666667 42.666667 0 0 0-42.666667-42.645333h-210.581333a42.666667 42.666667 0 0 0 0 85.333333h107.690667L620.352 216.192a42.666667 42.666667 0 0 0-2.389333 55.36zM262.506667 886.72a42.666667 42.666667 0 0 0 0-85.333333l-107.690667 0.021333 248.810667-249.557333a42.666667 42.666667 0 0 0 2.389333-55.36l-2.389333-2.816a42.752 42.752 0 0 0-60.608-1.834667L94.592 740.288v-107.626667a42.666667 42.666667 0 0 0-39.466667-42.56l-3.2-0.106666a42.666667 42.666667 0 0 0-42.645333 42.666666v211.413334a42.666667 42.666667 0 0 0 42.666667 42.645333z m709.546666 0a42.666667 42.666667 0 0 0 42.645334-42.666667v-211.413333a42.666667 42.666667 0 0 0-42.666667-42.666667l-3.178667 0.128a42.666667 42.666667 0 0 0-39.466666 42.56V740.266667L680.96 491.84a42.752 42.752 0 0 0-60.586667 1.834667l-2.410666 2.816a42.666667 42.666667 0 0 0 2.389333 55.36L869.162667 801.408h-107.690667a42.666667 42.666667 0 0 0 0 85.312h210.581333z"  horiz-adv-x="1024" />
      
      <glyph glyph-name="hint" unicode="&#58996;" d="M512 896c282.773333 0 512-229.226667 512-512S794.773333-128 512-128 0 101.22666700000002 0 384 229.226667 896 512 896z m0-85.333333C276.352 810.666667 85.333333 619.648 85.333333 384s191.018667-426.666667 426.666667-426.666667 426.666667 191.018667 426.666667 426.666667S747.648 810.666667 512 810.666667z m0-320a42.666667 42.666667 0 0 0 42.666667-42.666667v-256a42.666667 42.666667 0 1 0-85.333334 0V448a42.666667 42.666667 0 0 0 42.666667 42.666667z m0 128a42.666667 42.666667 0 1 0 0-85.333334 42.666667 42.666667 0 0 0 0 85.333334z"  horiz-adv-x="1024" />
      
      <glyph glyph-name="catalog" unicode="&#58997;" d="M642.837333 884.8c8.789333 0 17.301333-2.688 24.704-7.893333l3.093334-2.346667 2.773333-2.581333 261.696-266.496c5.994667-6.122667 10.026667-13.866667 11.584-22.549334l0.512-3.776 0.170667-3.690666v-649.429334c0-21.098667-15.317333-38.826667-36.074667-42.261333l-3.328-0.426667-3.434667-0.149333H119.466667a42.88 42.88 0 0 0-42.282667 36.096l-0.426667 3.306667-0.128 3.434666V841.962667c0 21.098667 15.317333 38.826667 36.074667 42.261333l3.328 0.426667L119.466667 884.8h523.370666zM578.176 799.146667l-415.872-0.021334v-830.229333h699.370667V515.648l-240.64-0.042667a42.88 42.88 0 0 0-42.24 35.904l-0.426667 3.328-0.170667 3.626667-0.021333 240.682667zM708.266667 197.866667c23.68 0 42.837333-19.2 42.837333-42.837334a42.88 42.88 0 0 0-35.904-42.24l-3.306667-0.448-3.626666-0.170666H315.733333c-23.68 0-42.837333 19.2-42.837333 42.858666a42.88 42.88 0 0 0 35.904 42.24l3.306667 0.426667 3.626666 0.170667h392.533334z m0 196.266666c23.68 0 42.837333-19.2 42.837333-42.837333a42.88 42.88 0 0 0-35.904-42.24l-3.306667-0.448-3.626666-0.170667H315.733333c-23.68 0-42.837333 19.2-42.837333 42.858667a42.88 42.88 0 0 0 35.904 42.24l3.306667 0.426667 3.626666 0.170666h392.533334zM663.850667 759.424l0.021333-158.101333h155.242667l-155.264 158.101333z"  horiz-adv-x="1024" />
      
      <glyph glyph-name="user" unicode="&#58998;" d="M766.08 261.33333300000004a194.666667 194.666667 0 0 0 5.653333-389.248l-5.632-0.085333h-490.666666a194.666667 194.666667 0 0 0-5.653334 389.248l5.653334 0.085333h490.666666z m-0.192-85.333333h-490.453333a109.333333 109.333333 0 0 1-109.333334-109.333333 109.312 109.312 0 0 1 100.117334-108.970667l4.693333-0.277333 4.522667-0.085334h490.666666a109.333333 109.333333 0 0 1 109.333334 109.333334 109.312 109.312 0 0 1-100.138667 108.970666l-4.693333 0.277334-4.693334 0.085333zM794.965333 896a10.666667 10.666667 0 0 0 10.496-8.746667l0.170667-1.92v-272.32c0-156.373333-125.738667-283.050667-281.024-283.050666-155.242667 0-281.045333 126.741333-281.045333 283.050666C243.562667 767.061333 365.781333 892.373333 517.973333 895.914667L524.586667 896h270.378666z m-74.666666-85.333333H524.586667c-108.032 0-195.690667-88.426667-195.690667-197.653334 0-109.248 87.68-197.717333 195.712-197.717333 104.106667 0 189.568 82.133333 195.370667 186.24l0.256 5.674667 0.064 5.802666V810.666667z"  horiz-adv-x="1024" />
      
      </font>
</defs>
</svg>
