<svg width="14" height="14" viewBox="0 0 14 14" fill="none" xmlns="http://www.w3.org/2000/svg">
<g clip-path="url(#clip0_5586_8598)">
<path fill-rule="evenodd" clip-rule="evenodd" d="M7.90601 0.689125C8.16975 0.384803 8.63026 0.351909 8.93459 0.615655L13.3096 4.40732C13.8197 4.8494 13.507 5.68751 12.832 5.68751H0.873698C0.47099 5.68751 0.144531 5.36105 0.144531 4.95834C0.144531 4.55564 0.47099 4.22918 0.873698 4.22918H10.8773L7.97948 1.7177C7.67516 1.45396 7.64226 0.993446 7.90601 0.689125Z" fill="#081E40"/>
<path fill-rule="evenodd" clip-rule="evenodd" d="M6.23722 13.0192C5.97348 13.3235 5.51297 13.3564 5.20864 13.0927L0.833645 9.30102C0.323561 8.85895 0.636207 8.02083 1.3112 8.02083L13.2695 8.02083C13.6722 8.02083 13.9987 8.34729 13.9987 8.75C13.9987 9.15271 13.6722 9.47916 13.2695 9.47916H3.26589L6.16375 11.9906C6.46807 12.2544 6.50097 12.7149 6.23722 13.0192Z" fill="#081E40"/>
</g>
<defs>
<clipPath id="clip0_5586_8598">
<rect width="14" height="14" fill="white"/>
</clipPath>
</defs>
</svg>
