<?xml version="1.0" standalone="no"?><!DOCTYPE svg PUBLIC "-//W3C//DTD SVG 1.1//EN" "http://www.w3.org/Graphics/SVG/1.1/DTD/svg11.dtd"><svg t="1645151204875" class="icon" viewBox="0 0 1024 1024" version="1.1" xmlns="http://www.w3.org/2000/svg" p-id="2069" xmlns:xlink="http://www.w3.org/1999/xlink" width="200" height="200"><defs><style type="text/css"></style></defs><path d="M512 512m-512 0a512 512 0 1 0 1024 0 512 512 0 1 0-1024 0Z" fill="#CBD5E0" fill-opacity=".5" p-id="2070"></path><path d="M512 454.08L325.888 267.968l-1.984-1.856a41.152 41.152 0 0 0-55.936 1.92l-1.856 1.92-1.472 1.92a41.088 41.088 0 0 0 3.328 54.016L454.08 512l-186.112 186.112a40.96 40.96 0 0 0 0 57.92l1.728 1.6a40.96 40.96 0 0 0 56.192-1.6L512 569.92l186.112 186.112 1.984 1.856a41.152 41.152 0 0 0 55.936-1.92l1.856-1.92 1.472-1.92a41.088 41.088 0 0 0-3.328-54.016L569.92 512l186.112-186.112a40.96 40.96 0 0 0-57.92-57.92L512 454.08z" fill="#8797AA" p-id="2071"></path></svg>